<svg width="89" height="56" viewBox="0 0 89 56" fill="none" xmlns="http://www.w3.org/2000/svg">
<path d="M21.2776 21.248H24.7176V23.408C24.7176 25.856 22.7176 26.736 20.2696 26.736C17.8216 26.736 15.7416 25.856 15.7416 23.408V15.04C15.7416 12.592 17.7416 11.712 20.1896 11.712C22.6376 11.712 24.6376 12.592 24.6376 15.04V16.688H21.2776V15.568C21.2776 14.944 20.8136 14.608 20.1896 14.608C19.5656 14.608 19.1016 14.944 19.1016 15.568V22.88C19.1016 23.504 19.5656 23.84 20.1896 23.84C20.8136 23.84 21.2776 23.504 21.2776 22.88V21.248ZM25.6791 23.408V15.04C25.6791 12.592 27.6791 11.712 30.1271 11.712C32.5751 11.712 34.5751 12.592 34.5751 15.04V23.408C34.5751 25.856 32.5751 26.736 30.1271 26.736C27.6791 26.736 25.6791 25.856 25.6791 23.408ZM29.0071 15.568V22.88C29.0071 23.504 29.5031 23.84 30.1271 23.84C30.7511 23.84 31.2471 23.504 31.2471 22.88V15.568C31.2471 14.944 30.7511 14.608 30.1271 14.608C29.5031 14.608 29.0071 14.944 29.0071 15.568ZM35.8509 26.416V12.032H40.2189L42.0269 21.296L43.8989 12.032H48.1229V26.416H44.9229V18.576L43.2749 26.416H40.7949L39.0509 18.576V26.416H35.8509ZM52.9178 12.032V26.416H49.3978V12.032H52.9178ZM63.1707 12.032V26.416H59.9707L57.3947 19.136V26.416H54.1947V12.032H57.3947L59.9707 19.376V12.032H63.1707ZM69.0527 21.328V18.688H73.4207V23.408C73.4207 25.856 71.4207 26.736 68.9727 26.736C66.5247 26.736 64.4447 25.856 64.4447 23.408V15.04C64.4447 12.592 66.4447 11.712 68.8927 11.712C71.3407 11.712 73.3407 12.592 73.3407 15.04V16.688H69.9807V15.568C69.9807 14.944 69.5167 14.608 68.8927 14.608C68.2687 14.608 67.8047 14.944 67.8047 15.568V22.88C67.8047 23.504 68.3487 23.84 68.9727 23.84C69.5967 23.84 70.1407 23.504 70.1407 22.88V21.328H69.0527ZM28.1056 33.488V34.144C28.1056 34.64 28.3936 34.928 29.6416 35.36C33.6736 36.816 33.6736 37.856 33.6736 40.544V41.408C33.6736 43.856 31.5936 44.736 29.1456 44.736C26.6976 44.736 24.6976 43.856 24.6976 41.408V39.248H28.1376V40.88C28.1376 41.504 28.6016 41.84 29.2256 41.84C29.8496 41.84 30.3136 41.504 30.3136 40.88V40.544C30.3136 38.736 30.2336 38.656 27.3696 37.552C25.1456 36.704 24.7456 35.28 24.7456 34.144V33.04C24.7456 30.592 26.7456 29.712 29.1936 29.712C31.6416 29.712 33.6416 30.592 33.6416 33.04V34.576H30.2816V33.568C30.2816 32.944 29.8176 32.608 29.1936 32.608C28.5696 32.608 28.1056 32.864 28.1056 33.488ZM34.7806 41.408V33.04C34.7806 30.592 36.7806 29.712 39.2286 29.712C41.6766 29.712 43.6766 30.592 43.6766 33.04V41.408C43.6766 43.856 41.6766 44.736 39.2286 44.736C36.7806 44.736 34.7806 43.856 34.7806 41.408ZM38.1086 33.568V40.88C38.1086 41.504 38.6046 41.84 39.2286 41.84C39.8526 41.84 40.3486 41.504 40.3486 40.88V33.568C40.3486 32.944 39.8526 32.608 39.2286 32.608C38.6046 32.608 38.1086 32.944 38.1086 33.568ZM44.9525 41.408V33.04C44.9525 30.592 46.9525 29.712 49.4005 29.712C51.8485 29.712 53.8485 30.592 53.8485 33.04V41.408C53.8485 43.856 51.8485 44.736 49.4005 44.736C46.9525 44.736 44.9525 43.856 44.9525 41.408ZM48.2805 33.568V40.88C48.2805 41.504 48.7765 41.84 49.4005 41.84C50.0245 41.84 50.5205 41.504 50.5205 40.88V33.568C50.5205 32.944 50.0245 32.608 49.4005 32.608C48.7765 32.608 48.2805 32.944 48.2805 33.568ZM64.1004 30.032V44.416H60.9004L58.3244 37.136V44.416H55.1244V30.032H58.3244L60.9004 37.376V30.032H64.1004Z" fill="#909090"/>
</svg>
