<svg width="131" height="56" viewBox="0 0 131 56" fill="none" xmlns="http://www.w3.org/2000/svg">
<rect x="1" y="1" width="129" height="54" rx="27" stroke="white" stroke-width="2"/>
<path d="M41.2023 19.936V17.376L42.2583 17.296C42.7383 17.248 43.2663 16.88 43.2663 16.368V14.96C43.2663 14.448 42.8503 14.032 42.3383 14.032C41.8263 14.032 41.4103 14.448 41.4103 14.96V16.128H38.2103V15.12C38.2103 12.848 40.0823 11.632 42.3383 11.632C44.5943 11.632 46.4663 12.848 46.4663 15.12V16.208C46.4663 17.424 45.9863 18.176 45.2183 18.64C46.0663 19.104 46.6263 19.872 46.6263 21.104V23.328C46.6263 25.6 44.5943 26.816 42.3383 26.816C40.0823 26.816 38.0503 25.6 38.0503 23.328V21.584H41.4103V23.328C41.4103 23.84 41.8263 24.256 42.3383 24.256C42.8503 24.256 43.2663 23.84 43.2663 23.328V20.944C43.2663 20.432 42.6903 20.016 42.1783 20.016L41.2023 19.936ZM47.7416 23.328V15.12C47.7416 12.848 49.6136 11.632 51.8696 11.632C54.1256 11.632 55.9976 12.848 55.9976 15.12V23.328C55.9976 25.6 54.1256 26.816 51.8696 26.816C49.6136 26.816 47.7416 25.6 47.7416 23.328ZM50.9416 15.12V23.328C50.9416 23.84 51.3576 24.256 51.8696 24.256C52.3816 24.256 52.7976 23.84 52.7976 23.328V15.12C52.7976 14.608 52.3816 14.192 51.8696 14.192C51.3576 14.192 50.9416 14.608 50.9416 15.12ZM71.4328 14.752H66.4408C66.6968 15.68 68.0408 16.992 71.5928 16.944V19.6C68.0728 19.6 65.7848 18.592 64.6328 17.12C63.4648 18.592 61.1928 19.6 57.6728 19.6V16.944C61.1928 16.992 62.6008 15.68 62.8088 14.752H57.8328V12.032H71.4328V14.752ZM57.2728 22.912V20.224H71.9928V22.912H66.4408V26.816H62.8248V22.912H57.2728ZM80.6488 15.088V12.912H84.2968V11.792H87.8328V22.704H84.2968V17.952H80.6488V15.776H84.2968V15.088H80.6488ZM73.5928 21.536V11.952H77.1128V18.704L83.7368 18.464V21.12L73.5928 21.536ZM88.0728 24.032V26.656H74.2648V22.208H77.8328V24.032H88.0728ZM26.6856 37.808V29.792H30.2856V37.808H26.6856ZM16.0616 32.064V30.032H25.1016V34.608H19.4376V35.392L26.3016 34.944V37.072L16.0616 37.728V32.72H21.7256V32.064H16.0616ZM16.7336 40V38.208H30.2856V42.176H20.2696V42.768H30.5256V44.656H16.7336V40.544H26.7496V40H16.7336ZM32.0616 33.072V30.272H38.7496L37.9496 38.224H35.1816V41.008L39.7736 40.48V43.36L32.0616 44.176V35.568H35.1016L35.3576 33.072H32.0616ZM38.6376 37.552V34.672H40.1736V29.792H42.9736V44.656H40.1736V37.552H38.6376ZM43.5976 44.656V29.792H46.4616V44.656H43.5976ZM48.0616 40.464V33.984C48.0616 31.632 50.0936 30.032 52.5736 30.032C55.0696 30.032 57.1176 31.632 57.1176 33.984V40.464C57.1176 42.816 55.0696 44.416 52.5736 44.416C50.0936 44.416 48.0616 42.816 48.0616 40.464ZM58.6856 44.656V29.792H62.2856V44.656H58.6856ZM51.4696 33.824V40.624C51.4696 41.184 51.9336 41.712 52.6216 41.712C53.3096 41.712 53.7896 41.184 53.7896 40.624V33.824C53.7896 33.296 53.3096 32.72 52.6216 32.72C51.9336 32.72 51.4696 33.296 51.4696 33.824ZM68.8584 40.464V33.984C68.8584 31.632 70.8904 30.032 73.3704 30.032C75.8664 30.032 77.9144 31.632 77.9144 33.984V40.464C77.9144 42.816 75.8664 44.416 73.3704 44.416C70.8904 44.416 68.8584 42.816 68.8584 40.464ZM79.4824 44.656V29.792H83.0824V44.656H79.4824ZM72.2664 33.824V40.624C72.2664 41.184 72.7304 41.712 73.4184 41.712C74.1064 41.712 74.5864 41.184 74.5864 40.624V33.824C74.5864 33.296 74.1064 32.72 73.4184 32.72C72.7304 32.72 72.2664 33.296 72.2664 33.824ZM84.8584 38.864V29.952H87.6424V31.744H89.0984V29.952H91.7704V33.072H92.9704V29.792H95.7704V40.816H92.9704V35.792H91.7704V38.864H84.8584ZM99.4984 42.032V44.656H85.5304V39.664H89.0984V42.032H99.4984ZM96.3944 40.816V29.792H99.2584V40.816H96.3944ZM87.6424 34.368V36.24H89.0984V34.368H87.6424ZM100.538 44.416V41.6H115.258V44.416H100.538ZM114.858 36.72V39.36H101.098V33.296H114.634V35.808H104.666V36.72H114.858ZM101.098 32.624V30.032H114.698V32.624H101.098Z" fill="white"/>
</svg>
