<svg width="140" height="56" viewBox="0 0 140 56" fill="none" xmlns="http://www.w3.org/2000/svg">
<path d="M39.488 23.728V21.168H53.36V26.816H49.68V23.728H39.488ZM38.96 20.528V11.952H42.176V17.456L46.512 16.992V19.728L38.96 20.528ZM44.208 16.192V13.696H47.072V11.792H49.872V20.768H47.072V16.192H44.208ZM50.496 20.768V11.792H53.36V20.768H50.496ZM55.04 17.6V15.104C58.448 15.104 60.208 13.568 60.208 12.032V11.632H63.808V12.032C63.808 13.568 65.568 15.152 68.96 15.152V17.6C65.36 17.6 63.216 16.56 61.984 15.152C60.752 16.56 58.56 17.6 55.04 17.6ZM69.04 24.128V26.656H55.2V21.792H58.672V24.128H69.04ZM54.64 21.04V18.4H69.36V21.04H54.64ZM78.912 26.656V11.792H81.712V17.248H82.496V11.792H85.36V26.656H82.496V20.144H81.712V26.656H78.912ZM71.12 19.904V17.168H75.088C75.168 16.48 75.2 15.84 75.2 15.152H70.88V12.272H78.256V14.352C78.256 22.464 75.248 25.264 70.8 26.336V23.36C72.704 22.8 73.808 21.52 74.448 19.904H71.12ZM86.8 26.176V22.4C88.512 21.248 89.968 19.664 89.968 14.976V12.112H93.504V14.976C93.504 19.664 94.96 21.248 96.672 22.4V26.176C94.624 25.152 92.88 23.792 91.728 21.632C90.576 23.792 88.848 25.152 86.8 26.176ZM97.584 26.656V11.792H101.184V26.656H97.584ZM16.6319 42.192C16.6319 40.784 17.8319 39.632 19.3199 39.632H28.0079C29.4799 39.632 30.7119 40.784 30.7119 42.192C30.7119 43.6 29.4799 44.736 28.0079 44.736H19.3199C17.8319 44.736 16.6319 43.6 16.6319 42.192ZM30.4719 32.72H25.5279C25.8639 33.44 27.3039 34.048 30.6319 34V36.176C26.9999 36.176 24.8239 35.6 23.6719 34.432C22.5199 35.6 20.3439 36.176 16.7119 36.176V34C20.0239 34.048 21.4639 33.44 21.7999 32.72H16.8719V30.512H21.8799V29.472H25.4959V30.512H30.4719V32.72ZM16.3119 39.152V36.928H21.9759V35.584H25.3519V36.928H31.0319V39.152H16.3119ZM19.8479 42.144C19.8479 42.336 20.0079 42.528 20.2159 42.528H27.0479C27.2559 42.528 27.4159 42.336 27.4159 42.144C27.4159 41.952 27.2559 41.76 27.0479 41.76H20.2159C20.0079 41.76 19.8479 41.952 19.8479 42.144ZM40.1008 37.936V35.376L41.1568 35.296C41.6368 35.248 42.1648 34.88 42.1648 34.368V32.96C42.1648 32.448 41.7488 32.032 41.2368 32.032C40.7248 32.032 40.3088 32.448 40.3088 32.96V34.128H37.1088V33.12C37.1088 30.848 38.9808 29.632 41.2368 29.632C43.4928 29.632 45.3648 30.848 45.3648 33.12V34.208C45.3648 35.424 44.8848 36.176 44.1168 36.64C44.9648 37.104 45.5248 37.872 45.5248 39.104V41.328C45.5248 43.6 43.4928 44.816 41.2368 44.816C38.9808 44.816 36.9488 43.6 36.9488 41.328V39.584H40.3088V41.328C40.3088 41.84 40.7248 42.256 41.2368 42.256C41.7488 42.256 42.1648 41.84 42.1648 41.328V38.944C42.1648 38.432 41.5888 38.016 41.0768 38.016L40.1008 37.936ZM46.64 41.328V33.12C46.64 30.848 48.512 29.632 50.768 29.632C53.024 29.632 54.896 30.848 54.896 33.12V41.328C54.896 43.6 53.024 44.816 50.768 44.816C48.512 44.816 46.64 43.6 46.64 41.328ZM49.84 33.12V41.328C49.84 41.84 50.256 42.256 50.768 42.256C51.28 42.256 51.696 41.84 51.696 41.328V33.12C51.696 32.608 51.28 32.192 50.768 32.192C50.256 32.192 49.84 32.608 49.84 33.12ZM56.4913 34.544V33.376C56.4913 31.024 58.4113 29.792 60.7633 29.792C62.7793 29.792 64.4913 30.704 64.9233 32.464H67.2113V29.792H70.7313V38.544H67.2113V35.2H64.9713C64.6353 37.12 62.8753 38.096 60.7633 38.096C58.4113 38.096 56.4913 36.896 56.4913 34.544ZM57.0033 41.584V38.944H70.7313V44.736H67.0513V41.584H57.0033ZM59.7073 33.12V34.784C59.7073 35.408 60.1713 35.792 60.7953 35.792C61.4193 35.792 61.8993 35.408 61.8993 34.784V33.12C61.8993 32.496 61.4193 32.096 60.7953 32.096C60.1713 32.096 59.7073 32.496 59.7073 33.12ZM77.2881 40.464V33.984C77.2881 31.632 79.3201 30.032 81.8001 30.032C84.2961 30.032 86.3441 31.632 86.3441 33.984V40.464C86.3441 42.816 84.2961 44.416 81.8001 44.416C79.3201 44.416 77.2881 42.816 77.2881 40.464ZM87.9121 44.656V29.792H91.5121V44.656H87.9121ZM80.6961 33.824V40.624C80.6961 41.184 81.1601 41.712 81.8481 41.712C82.5361 41.712 83.0161 41.184 83.0161 40.624V33.824C83.0161 33.296 82.5361 32.72 81.8481 32.72C81.1601 32.72 80.6961 33.296 80.6961 33.824ZM93.2881 38.864V29.952H96.0721V31.744H97.5281V29.952H100.2V33.072H101.4V29.792H104.2V40.816H101.4V35.792H100.2V38.864H93.2881ZM107.928 42.032V44.656H93.9601V39.664H97.5281V42.032H107.928ZM104.824 40.816V29.792H107.688V40.816H104.824ZM96.0721 34.368V36.24H97.5281V34.368H96.0721ZM108.968 44.416V41.6H123.688V44.416H108.968ZM123.288 36.72V39.36H109.528V33.296H123.064V35.808H113.096V36.72H123.288ZM109.528 32.624V30.032H123.128V32.624H109.528Z" fill="#909090"/>
</svg>
