<svg width="160" height="42" viewBox="0 0 160 42" fill="none" xmlns="http://www.w3.org/2000/svg">
<g filter="url(#filter0_d_2205_1058)">
<rect width="160" height="40" rx="5" fill="#00B2CA"/>
<path d="M17.2414 22.656V16.986C17.2414 14.928 19.0194 13.528 21.1894 13.528C23.3734 13.528 25.1654 14.928 25.1654 16.986V22.656C25.1654 24.714 23.3734 26.114 21.1894 26.114C19.0194 26.114 17.2414 24.714 17.2414 22.656ZM26.5374 26.324V13.318H29.6874V26.324H26.5374ZM20.2234 16.846V22.796C20.2234 23.286 20.6294 23.748 21.2314 23.748C21.8334 23.748 22.2534 23.286 22.2534 22.796V16.846C22.2534 16.384 21.8334 15.88 21.2314 15.88C20.6294 15.88 20.2234 16.384 20.2234 16.846ZM31.2414 21.256V13.458H33.6774V15.026H34.9514V13.458H37.2894V16.188H38.3394V13.318H40.7894V22.964H38.3394V18.568H37.2894V21.256H31.2414ZM44.0514 24.028V26.324H31.8294V21.956H34.9514V24.028H44.0514ZM41.3354 22.964V13.318H43.8414V22.964H41.3354ZM33.6774 17.322V18.96H34.9514V17.322H33.6774ZM44.9614 26.114V23.65H57.8414V26.114H44.9614ZM57.4914 19.38V21.69H45.4514V16.384H57.2954V18.582H48.5734V19.38H57.4914ZM45.4514 15.796V13.528H57.3514V15.796H45.4514ZM63.4386 25.904V13.654H66.3926V16.65H68.0306V13.654H70.9286V25.904H68.0306V25.4L63.4386 25.904ZM72.3986 26.324V13.318H75.4786V18.036H76.9346V20.71H75.4786V26.324H72.3986ZM66.3926 19.016V23.188L68.0306 23.02V19.016H66.3926ZM77.6486 15.656V13.528H89.5486V18.344H80.7146V19.044H89.6886V21.256H77.6486V16.3H86.4826V15.656H77.6486ZM77.1586 26.114V23.622H82.0166V21.676H85.1806V23.622H90.0386V26.114H77.1586ZM91.4386 16.258V13.738H99.0686V15.838C99.0686 21.942 96.2406 25.274 91.3686 26.044V23.37C94.5606 22.53 96.1706 20.304 96.1566 16.258H91.4386ZM100.119 26.324V13.318H103.199V18.036H104.935V20.71H103.199V26.324H100.119ZM114.735 26.324V13.318H117.885V26.324H114.735ZM105.369 16.258V13.738H113.629V15.838C113.629 21.956 110.157 25.26 105.299 26.044V23.37C108.575 22.544 110.717 20.29 110.717 16.258H105.369Z" fill="white"/>
<path fill-rule="evenodd" clip-rule="evenodd" d="M133.86 11.4205C133.194 10.7544 132.114 10.7544 131.448 11.4205C130.782 12.0866 130.782 13.1666 131.448 13.8327L137.593 19.9776L131.448 26.1226C130.769 26.801 130.769 27.901 131.448 28.5795C132.126 29.258 133.226 29.258 133.905 28.5795L141.233 21.2508C141.911 20.573 141.912 19.4744 141.235 18.7958C141.235 18.7952 141.234 18.7945 141.233 18.7939L133.86 11.4205Z" fill="white"/>
</g>
<defs>
<filter id="filter0_d_2205_1058" x="0" y="0" width="160" height="42" filterUnits="userSpaceOnUse" color-interpolation-filters="sRGB">
<feFlood flood-opacity="0" result="BackgroundImageFix"/>
<feColorMatrix in="SourceAlpha" type="matrix" values="0 0 0 0 0 0 0 0 0 0 0 0 0 0 0 0 0 0 127 0" result="hardAlpha"/>
<feOffset dy="2"/>
<feComposite in2="hardAlpha" operator="out"/>
<feColorMatrix type="matrix" values="0 0 0 0 0 0 0 0 0 0.325139 0 0 0 0 0.368978 0 0 0 1 0"/>
<feBlend mode="normal" in2="BackgroundImageFix" result="effect1_dropShadow_2205_1058"/>
<feBlend mode="normal" in="SourceGraphic" in2="effect1_dropShadow_2205_1058" result="shape"/>
</filter>
</defs>
</svg>
