<svg width="100" height="42" viewBox="0 0 100 42" fill="none" xmlns="http://www.w3.org/2000/svg">
<g filter="url(#filter0_d_2205_1051)">
<rect width="100" height="40" rx="5" fill="#006FCE"/>
<path d="M30.05 15.656V13.528H41.95V18.344H33.116V19.044H42.09V21.256H30.05V16.3H38.884V15.656H30.05ZM29.56 26.114V23.622H34.418V21.676H37.582V23.622H42.44V26.114H29.56ZM43.56 26.114V23.454H56.44V26.114H43.56ZM43.98 16.118V13.528H56.02L55.152 23.104H51.988L52.646 16.118H43.98ZM67.136 22.782V13.318H70.286V22.782H67.136ZM70.496 24.028V26.324H58.428V21.872H61.55V24.028H70.496ZM57.84 17.994V16.51C57.84 14.452 59.618 13.318 61.802 13.318C63.972 13.318 65.75 14.452 65.75 16.51V17.994C65.75 20.01 63.972 21.144 61.802 21.144C59.618 21.144 57.84 20.01 57.84 17.994ZM60.864 16.342V18.162C60.864 18.652 61.256 19.002 61.802 19.002C62.32 19.002 62.74 18.652 62.74 18.162V16.342C62.74 15.852 62.32 15.46 61.802 15.46C61.256 15.46 60.864 15.852 60.864 16.342Z" fill="white"/>
</g>
<defs>
<filter id="filter0_d_2205_1051" x="0" y="0" width="100" height="42" filterUnits="userSpaceOnUse" color-interpolation-filters="sRGB">
<feFlood flood-opacity="0" result="BackgroundImageFix"/>
<feColorMatrix in="SourceAlpha" type="matrix" values="0 0 0 0 0 0 0 0 0 0 0 0 0 0 0 0 0 0 127 0" result="hardAlpha"/>
<feOffset dy="2"/>
<feComposite in2="hardAlpha" operator="out"/>
<feColorMatrix type="matrix" values="0 0 0 0 0 0 0 0 0 0.205177 0 0 0 0 0.380778 0 0 0 1 0"/>
<feBlend mode="normal" in2="BackgroundImageFix" result="effect1_dropShadow_2205_1051"/>
<feBlend mode="normal" in="SourceGraphic" in2="effect1_dropShadow_2205_1051" result="shape"/>
</filter>
</defs>
</svg>
