<svg width="93" height="86" viewBox="0 0 93 86" fill="none" xmlns="http://www.w3.org/2000/svg">
<path d="M43.9664 8.99552C45.1445 7.13758 47.8554 7.13758 49.0336 8.99551L68.6937 40.0001C69.9603 41.9974 68.5252 44.6066 66.1601 44.6066H26.8399C24.4748 44.6066 23.0397 41.9975 24.3063 40.0001L43.9664 8.99552Z" fill="#FF3C00"/>
<path d="M48.5695 16.2709L48.0262 32.8995H44.6573L44.1139 16.2709H48.5695ZM48.814 37.4071C48.814 38.085 48.5876 38.6622 48.1348 39.1386C47.682 39.6334 47.0843 39.8807 46.3417 39.8807C45.5991 39.8807 45.0014 39.6334 44.5486 39.1386C44.0958 38.6622 43.8694 38.085 43.8694 37.4071C43.8694 36.7291 44.0958 36.1519 44.5486 35.6755C45.0014 35.1808 45.5991 34.9334 46.3417 34.9334C47.0843 34.9334 47.682 35.1808 48.1348 35.6755C48.5876 36.1519 48.814 36.7291 48.814 37.4071Z" fill="white"/>
<path d="M22.434 58.506C20.768 58.506 19.41 57.148 19.41 55.482C19.41 53.816 20.768 52.458 22.434 52.458H28.566C30.232 52.458 31.59 53.816 31.59 55.482C31.59 57.148 30.232 58.506 28.566 58.506H22.434ZM26.788 65.394V61.936H24.506L23.722 65.394H20.628L21.412 61.936H19.06V59.416H31.94V61.936H29.812V65.394H26.788ZM23.064 56.154H27.936C28.314 56.154 28.594 55.874 28.594 55.496C28.594 55.118 28.314 54.838 27.936 54.838H23.064C22.686 54.838 22.42 55.146 22.42 55.496C22.42 55.874 22.686 56.154 23.064 56.154ZM33.48 57.19V55.86C33.48 53.508 35.258 52.318 37.428 52.318C39.612 52.318 41.39 53.508 41.39 55.86V57.19C41.39 59.528 39.612 60.662 37.428 60.662C35.258 60.662 33.48 59.528 33.48 57.19ZM42.636 65.324V52.318H45.786V65.324H42.636ZM33.06 65.114V62.594L42.286 62.034V64.554L33.06 65.114ZM36.392 55.692V57.33C36.392 57.988 36.854 58.38 37.428 58.38C38.03 58.38 38.506 57.988 38.506 57.33V55.692C38.506 55.034 38.03 54.6 37.428 54.6C36.854 54.6 36.392 55.034 36.392 55.692ZM47.2 64.904V61.6C48.698 60.592 49.86 59.206 49.86 55.104V52.598H52.898V55.104C52.898 59.206 54.06 60.592 55.558 61.6V64.904C53.78 64.162 52.338 62.846 51.372 61.012C50.42 62.846 48.95 64.162 47.2 64.904ZM56.3 65.324V52.318H59.38V57.036H60.836V59.71H59.38V65.324H56.3ZM61.788 62.93C61.788 61.474 62.922 60.452 64.434 60.452H70.986C72.512 60.452 73.66 61.474 73.66 62.93C73.66 64.33 72.512 65.394 70.986 65.394H64.434C62.922 65.394 61.788 64.33 61.788 62.93ZM67.192 59.794H63.356C62.278 59.794 61.34 58.772 61.34 57.568C61.34 56.35 62.278 55.328 63.356 55.328H67.192C68.27 55.328 69.208 56.35 69.208 57.568C69.208 58.772 68.27 59.794 67.192 59.794ZM70.3 60.172V52.318H73.38V54.768H74.836V57.218H73.38V60.172H70.3ZM61.2 54.936V53.046H63.65V52.038H66.87V53.046H69.32V54.936H61.2ZM65.414 63.35H69.992C70.384 63.35 70.58 63.196 70.58 62.916C70.58 62.636 70.384 62.482 69.992 62.482H65.414C65.078 62.482 64.882 62.636 64.882 62.916C64.882 63.196 65.078 63.35 65.414 63.35ZM63.86 57.568C63.86 57.75 63.986 57.946 64.21 57.946H66.394C66.618 57.946 66.744 57.75 66.744 57.568C66.744 57.358 66.618 57.176 66.394 57.176H64.21C63.986 57.176 63.86 57.358 63.86 57.568Z" fill="white"/>
</svg>
