<svg width="100" height="42" viewBox="0 0 100 42" fill="none" xmlns="http://www.w3.org/2000/svg">
<g filter="url(#filter0_d_2205_1068)">
<rect width="100" height="40" rx="5" fill="black"/>
<path d="M36.7 16.006V14.018H39.318V13.038H42.51V14.018H45.128V16.006H44.33C44.442 16.272 44.526 16.538 44.526 16.832C44.526 17.91 43.854 18.624 42.734 18.624H42.328V19.478L45.45 19.324V21.396L36.56 21.816V19.744L39.486 19.604V18.624H39.066C37.946 18.624 37.288 17.91 37.288 16.832C37.288 16.552 37.344 16.272 37.47 16.006H36.7ZM45.8 22.026V13.318H48.88V16.328H50.336V18.862H48.88V22.026H45.8ZM37.288 24.392V22.376H48.88V26.464H45.66V24.392H37.288ZM39.542 16.398C39.542 16.622 39.738 16.818 40.004 16.818H41.796C42.062 16.818 42.258 16.622 42.258 16.398C42.258 16.132 42.062 15.95 41.796 15.95H40.004C39.738 15.95 39.542 16.132 39.542 16.398ZM60.136 22.782V13.318H63.286V22.782H60.136ZM63.496 24.028V26.324H51.428V21.872H54.55V24.028H63.496ZM50.84 17.994V16.51C50.84 14.452 52.618 13.318 54.802 13.318C56.972 13.318 58.75 14.452 58.75 16.51V17.994C58.75 20.01 56.972 21.144 54.802 21.144C52.618 21.144 50.84 20.01 50.84 17.994ZM53.864 16.342V18.162C53.864 18.652 54.256 19.002 54.802 19.002C55.32 19.002 55.74 18.652 55.74 18.162V16.342C55.74 15.852 55.32 15.46 54.802 15.46C54.256 15.46 53.864 15.852 53.864 16.342Z" fill="white"/>
</g>
<defs>
<filter id="filter0_d_2205_1068" x="0" y="0" width="100" height="42" filterUnits="userSpaceOnUse" color-interpolation-filters="sRGB">
<feFlood flood-opacity="0" result="BackgroundImageFix"/>
<feColorMatrix in="SourceAlpha" type="matrix" values="0 0 0 0 0 0 0 0 0 0 0 0 0 0 0 0 0 0 127 0" result="hardAlpha"/>
<feOffset dy="2"/>
<feComposite in2="hardAlpha" operator="out"/>
<feColorMatrix type="matrix" values="0 0 0 0 0 0 0 0 0 0 0 0 0 0 0 0 0 0 0.36 0"/>
<feBlend mode="normal" in2="BackgroundImageFix" result="effect1_dropShadow_2205_1068"/>
<feBlend mode="normal" in="SourceGraphic" in2="effect1_dropShadow_2205_1068" result="shape"/>
</filter>
</defs>
</svg>
