<svg width="180" height="82" viewBox="0 0 180 82" fill="none" xmlns="http://www.w3.org/2000/svg">
<path d="M92.5187 3.89281C91.3366 2.06574 88.6634 2.06574 87.4813 3.89281L66.1487 36.8629C64.8572 38.859 66.29 41.4926 68.6675 41.4926H111.333C113.71 41.4926 115.143 38.859 113.851 36.8629L92.5187 3.89281Z" fill="#FF3C00"/>
<path d="M87.7877 11.8076L88.3685 29.2281H91.9697L92.5506 11.8076H87.7877ZM87.5263 33.9503C87.5263 34.6606 87.7683 35.2652 88.2523 35.7643C88.7364 36.2826 89.3753 36.5418 90.1691 36.5418C90.9629 36.5418 91.6019 36.2826 92.0859 35.7643C92.5699 35.2652 92.812 34.6606 92.812 33.9503C92.812 33.24 92.5699 32.6354 92.0859 32.1363C91.6019 31.618 90.9629 31.3588 90.1691 31.3588C89.3753 31.3588 88.7364 31.618 88.2523 32.1363C87.7683 32.6354 87.5263 33.24 87.5263 33.9503Z" fill="white"/>
<path d="M1.84658 60.583V56.749H6.89558V54.859H13.0516V56.749H18.1006V60.583H16.5616C16.7776 61.096 16.9396 61.609 16.9396 62.176C16.9396 64.255 15.6436 65.632 13.4836 65.632H12.7006V67.279L18.7216 66.982V70.978L1.57658 71.788V67.792L7.21958 67.522V65.632H6.40958C4.24958 65.632 2.98058 64.255 2.98058 62.176C2.98058 61.636 3.08858 61.096 3.33158 60.583H1.84658ZM19.3966 72.193V55.399H25.3366V61.204H28.1446V66.091H25.3366V72.193H19.3966ZM2.98058 76.756V72.868H25.3366V80.752H19.1266V76.756H2.98058ZM7.32758 61.339C7.32758 61.771 7.70558 62.149 8.21858 62.149H11.6746C12.1876 62.149 12.5656 61.771 12.5656 61.339C12.5656 60.826 12.1876 60.475 11.6746 60.475H8.21858C7.70558 60.475 7.32758 60.826 7.32758 61.339ZM47.0446 73.651V55.399H53.1196V73.651H47.0446ZM53.5246 76.054V80.482H30.2506V71.896H36.2716V76.054H53.5246ZM29.1166 64.417V61.555C29.1166 57.586 32.5456 55.399 36.7576 55.399C40.9426 55.399 44.3716 57.586 44.3716 61.555V64.417C44.3716 68.305 40.9426 70.492 36.7576 70.492C32.5456 70.492 29.1166 68.305 29.1166 64.417ZM34.9486 61.231V64.741C34.9486 65.686 35.7046 66.361 36.7576 66.361C37.7566 66.361 38.5666 65.686 38.5666 64.741V61.231C38.5666 60.286 37.7566 59.53 36.7576 59.53C35.7046 59.53 34.9486 60.286 34.9486 61.231ZM69.5356 80.482V55.399H74.2606V64.606H75.5836V55.399H80.4166V80.482H75.5836V69.493H74.2606V80.482H69.5356ZM56.1166 74.758V68.44C56.1166 65.335 58.9516 63.094 62.0836 63.094C65.2426 63.094 68.0776 65.335 68.0776 68.44V74.758C68.0776 77.863 65.2426 80.104 62.0836 80.104C58.9516 80.104 56.1166 77.863 56.1166 74.758ZM55.8466 62.419V58.099H59.5186V55.129H64.6486V58.099H68.3206V62.419H55.8466ZM60.7066 68.683V74.488C60.7066 75.217 61.3546 75.838 62.1376 75.838C62.9206 75.838 63.5416 75.217 63.5416 74.488V68.683C63.5416 67.927 62.9206 67.333 62.1376 67.333C61.3546 67.333 60.7066 67.927 60.7066 68.683ZM114.566 60.394H106.142C106.574 61.96 108.842 64.174 114.836 64.093V68.575C108.896 68.575 105.035 66.874 103.091 64.39C101.12 66.874 97.2863 68.575 91.3463 68.575V64.093C97.2863 64.174 99.6623 61.96 100.013 60.394H91.6163V55.804H114.566V60.394ZM90.6713 74.164V69.628H115.511V74.164H106.142V80.752H100.04V74.164H90.6713ZM117.941 79.672V73.84C121.235 71.275 121.829 68.278 121.748 60.421V55.939H126.743V60.799C126.743 68.386 127.283 71.302 130.55 73.84V79.672C127.661 78.025 125.609 76.27 124.232 73.489C122.855 76.27 120.83 78.025 117.941 79.672ZM128.201 68.764V63.904H131.9V55.399H136.625V80.482H131.9V68.764H128.201ZM137.678 80.482V55.399H142.511V80.482H137.678ZM162.032 70.06H152.123C148.154 70.06 145.346 66.847 145.346 62.878C145.346 58.882 148.154 55.669 152.123 55.669H162.032C166.028 55.669 168.836 58.882 168.836 62.878C168.836 66.847 166.028 70.06 162.032 70.06ZM144.671 80.077V75.217H149.099V70.978H154.58V75.217H159.71V70.978H165.191V75.217H169.511V80.077H144.671ZM151.421 62.878C151.421 64.39 152.42 65.497 153.905 65.497H160.304C161.789 65.497 162.788 64.39 162.788 62.878C162.788 61.393 161.789 60.286 160.304 60.286H153.905C152.42 60.286 151.421 61.393 151.421 62.878ZM172.211 65.929V55.399H177.881V65.929L177.611 73.489H172.481L172.211 65.929ZM172.481 80.482V75.406H177.611V80.482H172.481Z" fill="white"/>
</svg>
