<svg width="340" height="87" viewBox="0 0 340 87" fill="none" xmlns="http://www.w3.org/2000/svg">
<path d="M0 10C0 4.47715 4.47715 0 10 0H330C335.523 0 340 4.47715 340 10V77C340 82.5228 335.523 87 330 87H10C4.47716 87 0 82.5229 0 77V10Z" fill="#F4BF0D"/>
<path d="M106.665 24.428V21.548L107.853 21.458C108.393 21.404 108.987 20.99 108.987 20.414V18.83C108.987 18.254 108.519 17.786 107.943 17.786C107.367 17.786 106.899 18.254 106.899 18.83V20.144H103.299V19.01C103.299 16.454 105.405 15.086 107.943 15.086C110.481 15.086 112.587 16.454 112.587 19.01V20.234C112.587 21.602 112.047 22.448 111.183 22.97C112.137 23.492 112.767 24.356 112.767 25.742V28.244C112.767 30.8 110.481 32.168 107.943 32.168C105.405 32.168 103.119 30.8 103.119 28.244V26.282H106.899V28.244C106.899 28.82 107.367 29.288 107.943 29.288C108.519 29.288 108.987 28.82 108.987 28.244V25.562C108.987 24.986 108.339 24.518 107.763 24.518L106.665 24.428ZM114.022 28.244V19.01C114.022 16.454 116.128 15.086 118.666 15.086C121.204 15.086 123.31 16.454 123.31 19.01V28.244C123.31 30.8 121.204 32.168 118.666 32.168C116.128 32.168 114.022 30.8 114.022 28.244ZM117.622 19.01V28.244C117.622 28.82 118.09 29.288 118.666 29.288C119.242 29.288 119.71 28.82 119.71 28.244V19.01C119.71 18.434 119.242 17.966 118.666 17.966C118.09 17.966 117.622 18.434 117.622 19.01ZM140.674 18.596H135.058C135.346 19.64 136.858 21.116 140.854 21.062V24.05C136.894 24.05 134.32 22.916 133.024 21.26C131.71 22.916 129.154 24.05 125.194 24.05V21.062C129.154 21.116 130.738 19.64 130.972 18.596H125.374V15.536H140.674V18.596ZM124.744 27.776V24.752H141.304V27.776H135.058V32.168H130.99V27.776H124.744ZM151.042 18.974V16.526H155.146V15.266H159.124V27.542H155.146V22.196H151.042V19.748H155.146V18.974H151.042ZM143.104 26.228V15.446H147.064V23.042L154.516 22.772V25.76L143.104 26.228ZM159.394 29.036V31.988H143.86V26.984H147.874V29.036H159.394Z" fill="black"/>
<path d="M178.453 31.988V15.266H182.503V31.988H178.453ZM166.411 19.046V15.806H177.031V18.506C177.031 26.372 172.567 30.62 166.321 31.628V28.19C170.533 27.128 173.287 24.23 173.287 19.046H166.411ZM198.109 18.884L197.767 22.988H200.251V25.886H184.591V22.988H187.003L186.679 18.884H190.297L190.549 22.988H194.221L194.491 18.884H198.109ZM184.141 31.718V28.442H200.701V31.718H184.141ZM184.771 18.434V15.536H200.071V18.434H184.771ZM202.141 31.718V28.55H218.701V31.718H202.141ZM218.251 23.06V26.03H202.771V19.208H217.999V22.034H206.785V23.06H218.251ZM202.771 18.452V15.536H218.071V18.452H202.771ZM221.257 31.988V24.536H225.217V25.544H232.021V24.536H235.981V31.988H232.021V31.52L221.257 31.988ZM220.321 23.906V20.648C222.769 19.928 223.723 18.128 223.723 15.824V15.356H227.647V15.824C227.647 18.128 228.601 19.928 231.049 20.648V23.906C228.547 23.384 226.837 22.304 225.685 20.792C224.533 22.304 222.787 23.384 220.321 23.906ZM232.021 24.176V15.266H235.981V16.31H237.673V19.028H235.981V20.252H237.673V22.97H235.981V24.176H232.021ZM225.217 28.1V29.144L232.021 28.892V28.1H225.217Z" fill="white"/>
<rect x="107.5" y="38" width="125" height="34" rx="17" fill="black"/>
<path d="M123.52 62.312V47.437H127.107V51.075H129.096V47.437H132.615V62.312H129.096V61.7L123.52 62.312ZM134.4 62.822V47.029H138.14V52.758H139.908V56.005H138.14V62.822H134.4ZM127.107 53.948V59.014L129.096 58.81V53.948H127.107ZM140.775 49.868V47.284H155.225V53.132H144.498V53.982H155.395V56.668H140.775V50.65H151.502V49.868H140.775ZM140.18 62.567V59.541H146.079V57.178H149.921V59.541H155.82V62.567H140.18ZM157.52 50.599V47.539H166.785V50.089C166.785 57.501 163.351 61.547 157.435 62.482V59.235C161.311 58.215 163.266 55.512 163.249 50.599H157.52ZM168.06 62.822V47.029H171.8V52.758H173.908V56.005H171.8V62.822H168.06ZM185.808 62.822V47.029H189.633V62.822H185.808ZM174.435 50.599V47.539H184.465V50.089C184.465 57.518 180.249 61.53 174.35 62.482V59.235C178.328 58.232 180.929 55.495 180.929 50.599H174.435Z" fill="#F4BF0D"/>
<rect x="200.5" y="41.5" width="27" height="27" rx="13.5" fill="#F4BF0D"/>
<path d="M210.031 56.329V54.184H213.58V58.019C213.58 60.008 211.955 60.723 209.966 60.723C207.977 60.723 206.287 60.008 206.287 58.019V51.22C206.287 49.231 207.912 48.516 209.901 48.516C211.89 48.516 213.515 49.231 213.515 51.22V52.559H210.785V51.649C210.785 51.142 210.408 50.869 209.901 50.869C209.394 50.869 209.017 51.142 209.017 51.649V57.59C209.017 58.097 209.459 58.37 209.966 58.37C210.473 58.37 210.915 58.097 210.915 57.59V56.329H210.031ZM214.488 58.019V51.22C214.488 49.231 216.113 48.516 218.102 48.516C220.091 48.516 221.716 49.231 221.716 51.22V58.019C221.716 60.008 220.091 60.723 218.102 60.723C216.113 60.723 214.488 60.008 214.488 58.019ZM217.192 51.649V57.59C217.192 58.097 217.595 58.37 218.102 58.37C218.609 58.37 219.012 58.097 219.012 57.59V51.649C219.012 51.142 218.609 50.869 218.102 50.869C217.595 50.869 217.192 51.142 217.192 51.649Z" fill="black"/>
</svg>
