<svg width="330" height="85" viewBox="0 0 330 85" fill="none" xmlns="http://www.w3.org/2000/svg">
<path d="M0 0H330V75C330 80.5229 325.523 85 320 85H9.99999C4.47714 85 0 80.5229 0 75V0Z" fill="#F4BF0D"/>
<path d="M101.665 23.428V20.548L102.853 20.458C103.393 20.404 103.987 19.99 103.987 19.414V17.83C103.987 17.254 103.519 16.786 102.943 16.786C102.367 16.786 101.899 17.254 101.899 17.83V19.144H98.2991V18.01C98.2991 15.454 100.405 14.086 102.943 14.086C105.481 14.086 107.587 15.454 107.587 18.01V19.234C107.587 20.602 107.047 21.448 106.183 21.97C107.137 22.492 107.767 23.356 107.767 24.742V27.244C107.767 29.8 105.481 31.168 102.943 31.168C100.405 31.168 98.1191 29.8 98.1191 27.244V25.282H101.899V27.244C101.899 27.82 102.367 28.288 102.943 28.288C103.519 28.288 103.987 27.82 103.987 27.244V24.562C103.987 23.986 103.339 23.518 102.763 23.518L101.665 23.428ZM109.022 27.244V18.01C109.022 15.454 111.128 14.086 113.666 14.086C116.204 14.086 118.31 15.454 118.31 18.01V27.244C118.31 29.8 116.204 31.168 113.666 31.168C111.128 31.168 109.022 29.8 109.022 27.244ZM112.622 18.01V27.244C112.622 27.82 113.09 28.288 113.666 28.288C114.242 28.288 114.71 27.82 114.71 27.244V18.01C114.71 17.434 114.242 16.966 113.666 16.966C113.09 16.966 112.622 17.434 112.622 18.01ZM135.674 17.596H130.058C130.346 18.64 131.858 20.116 135.854 20.062V23.05C131.894 23.05 129.32 21.916 128.024 20.26C126.71 21.916 124.154 23.05 120.194 23.05V20.062C124.154 20.116 125.738 18.64 125.972 17.596H120.374V14.536H135.674V17.596ZM119.744 26.776V23.752H136.304V26.776H130.058V31.168H125.99V26.776H119.744ZM146.042 17.974V15.526H150.146V14.266H154.124V26.542H150.146V21.196H146.042V18.748H150.146V17.974H146.042ZM138.104 25.228V14.446H142.064V22.042L149.516 21.772V24.76L138.104 25.228ZM154.394 28.036V30.988H138.86V25.984H142.874V28.036H154.394Z" fill="black"/>
<path d="M173.453 30.988V14.266H177.503V30.988H173.453ZM161.411 18.046V14.806H172.031V17.506C172.031 25.372 167.567 29.62 161.321 30.628V27.19C165.533 26.128 168.287 23.23 168.287 18.046H161.411ZM193.109 17.884L192.767 21.988H195.251V24.886H179.591V21.988H182.003L181.679 17.884H185.297L185.549 21.988H189.221L189.491 17.884H193.109ZM179.141 30.718V27.442H195.701V30.718H179.141ZM179.771 17.434V14.536H195.071V17.434H179.771ZM197.141 30.718V27.55H213.701V30.718H197.141ZM213.251 22.06V25.03H197.771V18.208H212.999V21.034H201.785V22.06H213.251ZM197.771 17.452V14.536H213.071V17.452H197.771ZM216.257 30.988V23.536H220.217V24.544H227.021V23.536H230.981V30.988H227.021V30.52L216.257 30.988ZM215.321 22.906V19.648C217.769 18.928 218.723 17.128 218.723 14.824V14.356H222.647V14.824C222.647 17.128 223.601 18.928 226.049 19.648V22.906C223.547 22.384 221.837 21.304 220.685 19.792C219.533 21.304 217.787 22.384 215.321 22.906ZM227.021 23.176V14.266H230.981V15.31H232.673V18.028H230.981V19.252H232.673V21.97H230.981V23.176H227.021ZM220.217 27.1V28.144L227.021 27.892V27.1H220.217Z" fill="white"/>
<rect x="102.5" y="37" width="125" height="34" rx="17" fill="black"/>
<path d="M118.52 61.312V46.437H122.107V50.075H124.096V46.437H127.615V61.312H124.096V60.7L118.52 61.312ZM129.4 61.822V46.029H133.14V51.758H134.908V55.005H133.14V61.822H129.4ZM122.107 52.948V58.014L124.096 57.81V52.948H122.107ZM135.775 48.868V46.284H150.225V52.132H139.498V52.982H150.395V55.668H135.775V49.65H146.502V48.868H135.775ZM135.18 61.567V58.541H141.079V56.178H144.921V58.541H150.82V61.567H135.18ZM152.52 49.599V46.539H161.785V49.089C161.785 56.501 158.351 60.547 152.435 61.482V58.235C156.311 57.215 158.266 54.512 158.249 49.599H152.52ZM163.06 61.822V46.029H166.8V51.758H168.908V55.005H166.8V61.822H163.06ZM180.808 61.822V46.029H184.633V61.822H180.808ZM169.435 49.599V46.539H179.465V49.089C179.465 56.518 175.249 60.53 169.35 61.482V58.235C173.328 57.232 175.929 54.495 175.929 49.599H169.435Z" fill="#F4BF0D"/>
<rect x="195.5" y="40.5" width="27" height="27" rx="13.5" fill="#F4BF0D"/>
<path d="M205.031 55.329V53.184H208.58V57.019C208.58 59.008 206.955 59.723 204.966 59.723C202.977 59.723 201.287 59.008 201.287 57.019V50.22C201.287 48.231 202.912 47.516 204.901 47.516C206.89 47.516 208.515 48.231 208.515 50.22V51.559H205.785V50.649C205.785 50.142 205.408 49.869 204.901 49.869C204.394 49.869 204.017 50.142 204.017 50.649V56.59C204.017 57.097 204.459 57.37 204.966 57.37C205.473 57.37 205.915 57.097 205.915 56.59V55.329H205.031ZM209.488 57.019V50.22C209.488 48.231 211.113 47.516 213.102 47.516C215.091 47.516 216.716 48.231 216.716 50.22V57.019C216.716 59.008 215.091 59.723 213.102 59.723C211.113 59.723 209.488 59.008 209.488 57.019ZM212.192 50.649V56.59C212.192 57.097 212.595 57.37 213.102 57.37C213.609 57.37 214.012 57.097 214.012 56.59V50.649C214.012 50.142 213.609 49.869 213.102 49.869C212.595 49.869 212.192 50.142 212.192 50.649Z" fill="black"/>
</svg>
