<svg width="70" height="22" viewBox="0 0 70 22" fill="none" xmlns="http://www.w3.org/2000/svg">
<rect x="0.5" y="0.5" width="69" height="21" rx="10.5" stroke="white" stroke-opacity="0.45"/>
<path d="M17.275 6.39365V7.22652H11.0678V6.39365H13.6079V5.42818H14.7184V6.39365H17.275ZM10.7239 11.3867C11.5899 11.3867 12.5803 11.3826 13.6079 11.3494V10.6782C12.3897 10.5456 11.6189 9.98619 11.6272 9.14917C11.6189 8.17956 12.6341 7.57044 14.1756 7.57873C15.6921 7.57044 16.7198 8.17956 16.7281 9.14917C16.7198 9.99033 15.9325 10.5539 14.7184 10.6782V11.308C15.6507 11.2624 16.5913 11.1878 17.4698 11.0718L17.5526 11.8425C15.2736 12.2196 12.7626 12.2569 10.8814 12.2569L10.7239 11.3867ZM12.2322 13.8895V13.0152H19.3924V15.9945H18.2736V13.8895H12.2322ZM12.688 9.14917C12.688 9.63812 13.2723 9.94475 14.1756 9.93646C15.0623 9.94475 15.659 9.63812 15.659 9.14917C15.659 8.63536 15.0623 8.33287 14.1756 8.34116C13.2723 8.33287 12.688 8.63536 12.688 9.14917ZM18.2736 12.5511V5.51934H19.3924V12.5511H18.2736ZM30.6378 10.558V11.4572H21.0536V10.558H30.6378ZM22.1143 13.5041V12.6008H29.461V16.0318H28.363V13.5041H22.1143ZM22.2469 9.49724V5.88398H29.4569V6.77901H23.3574V8.59807H29.5522V9.49724H22.2469ZM43.0519 5.49448V16.0152H41.9331V5.49448H43.0519ZM34.7148 9.96547C34.7148 7.71547 35.8461 6.28591 37.4289 6.28177C38.9952 6.28591 40.1389 7.71547 40.1389 9.96547C40.1389 12.2279 38.9952 13.6575 37.4289 13.6575C35.8461 13.6575 34.7148 12.2279 34.7148 9.96547ZM35.788 9.96547C35.788 11.6312 36.4593 12.6588 37.4289 12.6588C38.3985 12.6588 39.0615 11.6312 39.0615 9.96547C39.0615 8.31215 38.3985 7.28453 37.4289 7.27624C36.4593 7.28453 35.788 8.31215 35.788 9.96547ZM49.7227 6.12845V9.18646H46.2627V10.645C48.0901 10.6409 49.0846 10.5994 50.2614 10.3798L50.3691 11.2873C49.0887 11.5028 48.0114 11.5359 45.9188 11.5401H45.1605V8.34116H48.6163V7.01519H45.1398V6.12845H49.7227ZM46.3456 13.3923V12.4931H53.4768V16.0069H52.3663V13.3923H46.3456ZM50.3898 10.1188V9.21961H52.3663V7.92265H50.3898V7.03177H52.3663V5.50276H53.4768V11.9586H52.3663V10.1188H50.3898Z" fill="#AEAEAE"/>
<path fill-rule="evenodd" clip-rule="evenodd" d="M59.9302 6.71024C59.5971 6.37718 59.0571 6.37718 58.7241 6.71024C58.391 7.0433 58.391 7.5833 58.7241 7.91637L61.7965 10.9888L58.7241 14.0613C58.3848 14.4005 58.3848 14.9505 58.7241 15.2897C59.0633 15.629 59.6133 15.629 59.9525 15.2897L63.6169 11.6254C63.9561 11.2862 63.9561 10.7362 63.6169 10.3969L59.9302 6.71024Z" fill="white"/>
</svg>
