<svg width="70" height="22" viewBox="0 0 70 22" fill="none" xmlns="http://www.w3.org/2000/svg">
<rect width="70" height="22" rx="11" fill="#0C7BD9"/>
<path d="M17.4238 7.32422H11.0605V6.10547H13.3926V5.29688H15.0684V6.10547H17.4238V7.32422ZM10.7441 11.2383C11.7285 11.2383 12.6113 11.2285 13.3926 11.209V10.6934C12.8027 10.5996 12.3398 10.4199 12.0039 10.1543C11.668 9.88477 11.502 9.55078 11.5059 9.15234C11.5059 8.82422 11.6172 8.53711 11.8398 8.29102C12.0664 8.04102 12.3867 7.84961 12.8008 7.7168C13.2188 7.58008 13.7012 7.51172 14.248 7.51172C14.7793 7.51172 15.25 7.58008 15.6602 7.7168C16.0703 7.84961 16.3906 8.04102 16.6211 8.29102C16.8516 8.53711 16.9668 8.82422 16.9668 9.15234C16.9629 9.55078 16.791 9.88477 16.4512 10.1543C16.1113 10.4238 15.6504 10.6035 15.0684 10.6934V11.1445C15.9355 11.1016 16.7363 11.0352 17.4707 10.9453L17.5996 12.0703C16.5879 12.2461 15.543 12.3613 14.4648 12.416C13.3867 12.4707 12.2168 12.5 10.9551 12.5039L10.7441 11.2383ZM12.2324 13.0781H19.7793V16.125H18.0684V14.3672H12.2324V13.0781ZM13.1348 9.15234C13.1309 9.3125 13.2227 9.43359 13.4102 9.51562C13.5977 9.59375 13.8633 9.63281 14.207 9.63281C14.5586 9.63281 14.8359 9.59375 15.0391 9.51562C15.2422 9.4375 15.3457 9.31641 15.3496 9.15234C15.3457 8.97266 15.2461 8.83984 15.0508 8.75391C14.8555 8.66797 14.5879 8.625 14.248 8.625C13.8887 8.625 13.6113 8.66797 13.416 8.75391C13.2246 8.83984 13.1309 8.97266 13.1348 9.15234ZM18.0684 5.39062H19.7793V12.6797H18.0684V5.39062ZM30.9004 11.7539H21.0684V10.4062H30.9004V11.7539ZM22.1582 12.5391H29.7168V16.125H28.0527V13.8867H22.1582V12.5391ZM22.2402 5.71875H29.7402V7.03125H23.9277V8.30859H29.8457V9.64453H22.2402V5.71875ZM43.1582 16.1484H41.459V5.36719H43.1582V16.1484ZM34.4043 9.94922C34.4043 9.17969 34.5273 8.50391 34.7734 7.92188C35.0234 7.33984 35.3672 6.89258 35.8047 6.58008C36.2422 6.26367 36.7363 6.10547 37.2871 6.10547C37.8301 6.10547 38.3184 6.26367 38.752 6.58008C39.1855 6.89258 39.5254 7.33984 39.7715 7.92188C40.0215 8.50391 40.1465 9.17969 40.1465 9.94922C40.1465 10.7305 40.0215 11.4141 39.7715 12C39.5254 12.5859 39.1855 13.0371 38.752 13.3535C38.3184 13.6699 37.8301 13.8281 37.2871 13.8281C36.7363 13.8281 36.2422 13.6699 35.8047 13.3535C35.3672 13.0371 35.0234 12.5859 34.7734 12C34.5273 11.4141 34.4043 10.7305 34.4043 9.94922ZM36.0449 9.94922C36.041 10.7109 36.1504 11.293 36.373 11.6953C36.5957 12.0938 36.9004 12.293 37.2871 12.293C37.6621 12.293 37.959 12.0938 38.1777 11.6953C38.4004 11.293 38.5137 10.7109 38.5176 9.94922C38.5176 9.44922 38.4648 9.02539 38.3594 8.67773C38.2578 8.32617 38.1152 8.0625 37.9316 7.88672C37.748 7.71094 37.5332 7.625 37.2871 7.62891C37.0332 7.625 36.8125 7.71094 36.625 7.88672C36.4375 8.0625 36.293 8.32617 36.1914 8.67773C36.0898 9.02539 36.041 9.44922 36.0449 9.94922ZM49.6738 9.44531H46.5684V10.4297C47.334 10.4258 47.9707 10.4062 48.4785 10.3711C48.9863 10.3359 49.4902 10.2695 49.9902 10.1719L50.1426 11.5195C49.5684 11.6211 48.9707 11.6875 48.3496 11.7188C47.7285 11.75 46.8535 11.7695 45.7246 11.7773H44.9043V8.21484H47.9863V7.30078H44.8926V5.98828H49.6738V9.44531ZM46.1348 12.4453H53.5996V16.125H51.9238V13.793H46.1348V12.4453ZM50.2598 9.14062H51.9238V8.16797H50.2598V6.83203H51.9238V5.37891H53.5996V12.0117H51.9238V10.4648H50.2598V9.14062Z" fill="white"/>
<path fill-rule="evenodd" clip-rule="evenodd" d="M59.9302 6.71024C59.5971 6.37718 59.0571 6.37718 58.7241 6.71024C58.391 7.0433 58.391 7.5833 58.7241 7.91637L61.7965 10.9888L58.7241 14.0613C58.3848 14.4005 58.3848 14.9505 58.7241 15.2897C59.0633 15.629 59.6133 15.629 59.9525 15.2897L63.6169 11.6254C63.9561 11.2862 63.9561 10.7362 63.6169 10.3969L59.9302 6.71024Z" fill="white"/>
</svg>
