<svg width="70" height="22" viewBox="0 0 70 22" fill="none" xmlns="http://www.w3.org/2000/svg">
<rect width="70" height="22" rx="11" fill="#F4BF0D"/>
<path d="M19.6973 7.25391C19.6973 7.84375 19.6895 8.36133 19.6738 8.80664C19.6621 9.25195 19.627 9.76953 19.5684 10.3594C19.5137 10.9453 19.4238 11.582 19.2988 12.2695L17.6348 12.1289C17.7793 11.3164 17.875 10.5703 17.9219 9.89062C17.9727 9.20703 17.998 8.51758 17.998 7.82227V7.58203H11.6465V6.24609H19.6973V7.25391ZM10.6973 13.5117H12.6777V10.1719H14.3535V13.5117H15.3613V10.1719H17.0254V13.5117H20.5059V14.8711H10.6973V13.5117ZM29.7285 8.82422H31.0293V10.207H29.7285V13.7578H28.041V5.36719H29.7285V8.82422ZM20.9277 11.4844C21.8809 11.4844 22.7207 11.4727 23.4473 11.4492V10.8984C22.8691 10.8086 22.416 10.625 22.0879 10.3477C21.7598 10.0703 21.5957 9.72656 21.5957 9.31641C21.5957 8.96484 21.7051 8.66211 21.9238 8.4082C22.1465 8.1543 22.459 7.96094 22.8613 7.82812C23.2637 7.69531 23.7324 7.62891 24.2676 7.62891C24.8027 7.62891 25.2715 7.69531 25.6738 7.82812C26.0762 7.96094 26.3867 8.1543 26.6055 8.4082C26.8281 8.66211 26.9395 8.96484 26.9395 9.31641C26.9395 9.71875 26.7773 10.0586 26.4531 10.3359C26.1328 10.6133 25.6895 10.7988 25.123 10.8926V11.373C26.0449 11.3145 26.8691 11.2344 27.5957 11.1328L27.7129 12.2812C26.752 12.4648 25.7617 12.5879 24.7422 12.6504C23.7266 12.7129 22.5625 12.7539 21.25 12.7734H21.1035L20.9277 11.4844ZM21.209 6.1875H23.4473V5.33203H25.123V6.1875H27.3379V7.38281H21.209V6.1875ZM22.4043 13.207H24.1035V14.6016H30.0918V15.9492H22.4043V13.207ZM23.2129 9.30469C23.2129 9.48047 23.3008 9.61328 23.4766 9.70312C23.6562 9.79297 23.9199 9.83984 24.2676 9.84375C24.6113 9.83984 24.873 9.79297 25.0527 9.70312C25.2324 9.61328 25.3223 9.48438 25.3223 9.31641C25.3223 9.11719 25.2344 8.97266 25.0586 8.88281C24.8828 8.78906 24.6191 8.74219 24.2676 8.74219C23.5645 8.74219 23.2129 8.92969 23.2129 9.30469ZM43.416 16.125H41.8105V10.8047H40.9668V15.6094H39.3965V5.53125H40.9668V9.45703H41.8105V5.36719H43.416V16.125ZM34.5215 6.52734H36.209V12.082C37.1504 12.0469 38.0293 11.9492 38.8457 11.7891L39.0098 13.2422C37.8379 13.4453 36.668 13.5469 35.5 13.5469H35.2715H34.5215V6.52734ZM53.5996 16.125H51.9238V13.5H46.1699V12.1758H53.5996V16.125ZM44.623 8.58984C44.6191 8.08594 44.7422 7.63086 44.9922 7.22461C45.2461 6.81836 45.5938 6.50195 46.0352 6.27539C46.4766 6.04492 46.9668 5.92969 47.5059 5.92969C47.9277 5.92969 48.3203 6.00391 48.6836 6.15234C49.0508 6.30078 49.3672 6.50781 49.6328 6.77344H51.9238V5.36719H53.5996V11.7422H51.9238V10.4297H49.6328C49.3672 10.6992 49.0508 10.9102 48.6836 11.0625C48.3203 11.2109 47.9277 11.2852 47.5059 11.2852C46.9668 11.2852 46.4766 11.1699 46.0352 10.9395C45.5938 10.7051 45.2461 10.3828 44.9922 9.97266C44.7422 9.5625 44.6191 9.10156 44.623 8.58984ZM46.2168 8.58984C46.2168 8.99219 46.334 9.30469 46.5684 9.52734C46.8066 9.74609 47.1191 9.85547 47.5059 9.85547C47.7441 9.85547 47.957 9.80664 48.1445 9.70898C48.3359 9.61133 48.4863 9.4668 48.5957 9.27539C48.7051 9.08398 48.7598 8.85547 48.7598 8.58984C48.7598 8.33594 48.7051 8.11719 48.5957 7.93359C48.4863 7.74609 48.3379 7.60352 48.1504 7.50586C47.9629 7.4082 47.752 7.35938 47.5176 7.35938C47.127 7.35938 46.8125 7.4668 46.5742 7.68164C46.3359 7.89648 46.2168 8.19922 46.2168 8.58984ZM51.9238 9.09375V8.12109H50.3242C50.3516 8.29688 50.3652 8.45312 50.3652 8.58984C50.3652 8.75 50.3496 8.91797 50.3184 9.09375H51.9238Z" fill="black"/>
<path fill-rule="evenodd" clip-rule="evenodd" d="M59.9302 6.71024C59.5971 6.37718 59.0571 6.37718 58.7241 6.71024C58.391 7.0433 58.391 7.5833 58.7241 7.91637L61.7965 10.9888L58.7241 14.0613C58.3848 14.4005 58.3848 14.9505 58.7241 15.2897C59.0633 15.629 59.6133 15.629 59.9525 15.2897L63.6169 11.6254C63.9561 11.2862 63.9561 10.7362 63.6169 10.3969L59.9302 6.71024Z" fill="#181818"/>
</svg>
