<svg width="70" height="22" viewBox="0 0 70 22" fill="none" xmlns="http://www.w3.org/2000/svg">
<rect x="0.5" y="0.5" width="69" height="21" rx="10.5" stroke="white" stroke-opacity="0.45"/>
<path d="M19.2101 6.50552V7.62431C19.2018 8.95028 19.2018 10.3301 18.8289 12.3398L17.735 12.2238C18.0996 10.3218 18.0996 8.91713 18.0996 7.62431V7.40884H11.6645V6.50552H19.2101ZM10.6825 14.5773V13.6575H12.9408V10.2514H14.0513V13.6575H15.5637V10.2514H16.6576V13.6575H20.2543V14.5773H10.6825ZM29.3119 5.49448V9.09116H30.8077V10.0235H29.3119V13.703H28.2014V5.49448H29.3119ZM20.979 11.6644C21.787 11.6644 22.7359 11.6561 23.7262 11.6229V10.8936C22.5287 10.7569 21.7663 10.1809 21.7746 9.31492C21.7663 8.29558 22.7649 7.68646 24.269 7.69475C25.7773 7.68646 26.7635 8.29558 26.7718 9.31492C26.7635 10.1768 26.0218 10.7486 24.8367 10.8936V11.5732C25.7773 11.5193 26.7262 11.4323 27.6047 11.2956L27.6917 12.0829C25.4583 12.5014 22.9306 12.5345 21.1033 12.5511L20.979 11.6644ZM21.2483 7.29282V6.46823H23.7262V5.46133H24.8367V6.46823H27.3063V7.29282H21.2483ZM22.5204 15.779V13.1519H23.6392V14.8674H29.6889V15.779H22.5204ZM22.8353 9.31492C22.8312 9.82873 23.3782 10.1478 24.269 10.1478C25.1599 10.1478 25.7069 9.82873 25.7069 9.31492C25.7069 8.7721 25.1599 8.45718 24.269 8.45718C23.3782 8.45718 22.8312 8.7721 22.8353 9.31492ZM43.3461 5.49448V15.9945H42.2687V10.6202H40.9303V15.4558H39.8861V5.70994H40.9303V9.69613H42.2687V5.49448H43.3461ZM34.8433 13.326V6.73343H35.9579V12.3481C36.9276 12.3315 37.9842 12.2569 39.1734 12.0249L39.2977 12.9945C37.8557 13.2555 36.6541 13.326 35.5229 13.326H34.8433ZM53.4768 12.232V15.9945H52.3663V13.1146H46.358V12.232H53.4768ZM44.8788 8.6105C44.8705 7.13121 46.0473 6.07459 47.626 6.08287C48.5169 6.07873 49.2835 6.42265 49.7724 6.99448H52.3663V5.49448H53.4768V11.6851H52.3663V10.239H49.7765C49.2835 10.8149 48.521 11.163 47.626 11.1588C46.0473 11.163 44.8705 10.1105 44.8788 8.6105ZM45.9354 8.6105C45.9354 9.57597 46.6398 10.2141 47.626 10.2141C48.5749 10.2141 49.2959 9.57597 49.2959 8.6105C49.2959 7.67403 48.5749 7.02348 47.626 7.02348C46.6398 7.02348 45.9354 7.67403 45.9354 8.6105ZM50.2614 9.33149H52.3663V7.90608H50.2614C50.3235 8.12569 50.3608 8.36188 50.3608 8.6105C50.3608 8.86326 50.3235 9.10773 50.2614 9.33149Z" fill="#AEAEAE"/>
<path fill-rule="evenodd" clip-rule="evenodd" d="M59.9302 6.71024C59.5971 6.37718 59.0571 6.37718 58.7241 6.71024C58.391 7.0433 58.391 7.5833 58.7241 7.91637L61.7965 10.9888L58.7241 14.0613C58.3848 14.4005 58.3848 14.9505 58.7241 15.2897C59.0633 15.629 59.6133 15.629 59.9525 15.2897L63.6169 11.6254C63.9561 11.2862 63.9561 10.7362 63.6169 10.3969L59.9302 6.71024Z" fill="white"/>
</svg>
