<svg width="165" height="85" viewBox="0 0 165 85" fill="none" xmlns="http://www.w3.org/2000/svg">
<rect width="165" height="85" fill="#DBE515"/>
<path d="M60.6008 25.436V22.876L61.6568 22.796C62.1368 22.748 62.6648 22.38 62.6648 21.868V20.46C62.6648 19.948 62.2488 19.532 61.7368 19.532C61.2248 19.532 60.8088 19.948 60.8088 20.46V21.628H57.6088V20.62C57.6088 18.348 59.4808 17.132 61.7368 17.132C63.9928 17.132 65.8648 18.348 65.8648 20.62V21.708C65.8648 22.924 65.3848 23.676 64.6168 24.14C65.4648 24.604 66.0248 25.372 66.0248 26.604V28.828C66.0248 31.1 63.9928 32.316 61.7368 32.316C59.4808 32.316 57.4488 31.1 57.4488 28.828V27.084H60.8088V28.828C60.8088 29.34 61.2248 29.756 61.7368 29.756C62.2488 29.756 62.6648 29.34 62.6648 28.828V26.444C62.6648 25.932 62.0888 25.516 61.5768 25.516L60.6008 25.436ZM67.14 28.828V20.62C67.14 18.348 69.012 17.132 71.268 17.132C73.524 17.132 75.396 18.348 75.396 20.62V28.828C75.396 31.1 73.524 32.316 71.268 32.316C69.012 32.316 67.14 31.1 67.14 28.828ZM70.34 20.62V28.828C70.34 29.34 70.756 29.756 71.268 29.756C71.78 29.756 72.196 29.34 72.196 28.828V20.62C72.196 20.108 71.78 19.692 71.268 19.692C70.756 19.692 70.34 20.108 70.34 20.62ZM90.8313 20.252H85.8393C86.0953 21.18 87.4393 22.492 90.9913 22.444V25.1C87.4713 25.1 85.1833 24.092 84.0312 22.62C82.8633 24.092 80.5913 25.1 77.0713 25.1V22.444C80.5913 22.492 81.9993 21.18 82.2073 20.252H77.2313V17.532H90.8313V20.252ZM76.6713 28.412V25.724H91.3913V28.412H85.8393V32.316H82.2233V28.412H76.6713ZM100.047 20.588V18.412H103.695V17.292H107.231V28.204H103.695V23.452H100.047V21.276H103.695V20.588H100.047ZM92.9913 27.036V17.452H96.5113V24.204L103.135 23.964V26.62L92.9913 27.036ZM107.471 29.532V32.156H93.6633V27.708H97.2313V29.532H107.471Z" fill="#011C33"/>
<path d="M49.3816 45.892V43.188H59.2696L59.3816 41.412H49.2216V38.532H62.9816L62.3096 49.636H58.8536L59.0936 45.892H49.3816ZM48.7416 52.916V50.036H53.1736V46.676H56.6296V50.036H63.4616V52.916H48.7416ZM75.6856 49.108V38.292H79.2856V49.108H75.6856ZM79.5256 50.532V53.156H65.7336V48.068H69.3016V50.532H79.5256ZM65.0616 43.636V41.94C65.0616 39.588 67.0936 38.292 69.5896 38.292C72.0696 38.292 74.1016 39.588 74.1016 41.94V43.636C74.1016 45.94 72.0696 47.236 69.5896 47.236C67.0936 47.236 65.0616 45.94 65.0616 43.636ZM68.5176 41.748V43.828C68.5176 44.388 68.9656 44.788 69.5896 44.788C70.1816 44.788 70.6616 44.388 70.6616 43.828V41.748C70.6616 41.188 70.1816 40.74 69.5896 40.74C68.9656 40.74 68.5176 41.188 68.5176 41.748ZM94.8184 42.948V40.532H96.5624V38.292H100.098V49.428H96.5624V46.612H94.8184V44.196H96.5624V42.948H94.8184ZM100.338 50.532V53.156H86.6904V48.388H90.2584V50.532H100.338ZM91.9864 47.46H88.1624C86.9304 47.46 85.8584 46.228 85.8584 44.692C85.8584 43.156 86.9304 41.908 88.1624 41.908H91.9864C93.2184 41.908 94.2904 43.156 94.2904 44.692C94.2904 46.228 93.2184 47.46 91.9864 47.46ZM85.6984 41.444V39.124H88.3384V37.972H91.7784V39.124H94.4184V41.444H85.6984ZM88.6904 44.692C88.6904 44.932 88.8664 45.22 89.1224 45.22H91.0904C91.3464 45.22 91.5064 44.932 91.5064 44.692C91.5064 44.388 91.3464 44.148 91.0904 44.148H89.1224C88.8664 44.148 88.6904 44.388 88.6904 44.692ZM101.698 41.364V39.092H104.69V37.972H108.338V39.092H111.33V41.364H110.45C110.578 41.668 110.674 41.972 110.674 42.308C110.674 43.54 109.826 44.356 108.546 44.356H108.13V45.188L111.698 44.996V47.364L101.538 47.892V45.524L104.882 45.348V44.356H104.482C103.202 44.356 102.37 43.54 102.37 42.308C102.37 41.988 102.434 41.668 102.578 41.364H101.698ZM102.21 50.74C102.21 49.348 103.362 48.228 104.786 48.228H113.362C114.786 48.228 115.938 49.348 115.938 50.74C115.938 52.1 114.786 53.236 113.362 53.236H104.786C103.362 53.236 102.21 52.1 102.21 50.74ZM112.098 47.908V38.292H115.618V41.476H117.282V44.372H115.618V47.908H112.098ZM105.458 50.708C105.458 50.916 105.618 51.06 105.826 51.06H112.29C112.498 51.06 112.658 50.916 112.658 50.708C112.658 50.516 112.498 50.372 112.29 50.372H105.826C105.618 50.372 105.458 50.516 105.458 50.708ZM104.946 41.764C104.946 42.02 105.17 42.244 105.474 42.244H107.554C107.858 42.244 108.082 42.02 108.082 41.764C108.082 41.46 107.858 41.252 107.554 41.252H105.474C105.17 41.252 104.946 41.46 104.946 41.764Z" fill="#215F95"/>
</svg>
