<svg width="170" height="24" viewBox="0 0 170 24" fill="none" xmlns="http://www.w3.org/2000/svg">
<path d="M0.168063 4.576V1.048H11.8321V4.576L5.32806 22.744H0.768063L7.39206 4.576H0.168063ZM34.5533 13.12H29.9933V6.76H27.8093V3.352H29.9933V0.735999H34.5533V13.12ZM23.5133 8.224H17.4173C15.2093 8.224 13.6253 6.592 13.6253 4.6C13.6253 2.608 15.2093 0.975999 17.4173 0.975999H23.5133C25.7213 0.975999 27.3293 2.608 27.3293 4.6C27.3293 6.592 25.7213 8.224 23.5133 8.224ZM22.5053 3.808H18.4973C18.0173 3.808 17.6093 4.192 17.6093 4.648C17.6093 5.104 18.0173 5.488 18.4973 5.488H22.5053C22.9613 5.488 23.3933 5.104 23.3933 4.648C23.3933 4.192 22.9613 3.808 22.5053 3.808ZM18.9533 19.432V20.416H34.8173V22.96H14.5853V17.176H30.1613V16.264H14.5853V13.768H17.9453L18.3053 11.896H12.9053V8.944H29.2493V11.896H22.5533L22.1933 13.768H34.5533V19.432H18.9533ZM65.7486 22.96H61.0926V0.735999H65.7486V22.96ZM51.3486 22.552C47.6526 22.552 44.7006 20.152 44.7006 16.672V6.952C44.7006 3.448 47.6526 1.072 51.3486 1.072C55.0686 1.072 58.0686 3.448 58.0686 6.952V16.672C58.0686 20.152 55.0686 22.552 51.3486 22.552ZM51.4206 18.856C52.7646 18.856 53.7246 17.968 53.7246 16.888V6.712C53.7246 5.704 52.7646 4.72 51.4206 4.72C50.0526 4.72 49.1166 5.704 49.1166 6.712V16.888C49.1166 17.968 50.0526 18.856 51.4206 18.856ZM81.1566 9.496H78.9246V14.152H68.7006V0.999999H72.4206V3.904H75.3006V0.999999H78.9246V5.776H81.1566V0.735999H84.9006V17.2H81.1566V9.496ZM86.1726 0.735999H90.0126V17.2H86.1726V0.735999ZM72.4206 10.576H75.3006V7.504H72.4206V10.576ZM74.3406 15.52V19.36H90.3726V22.96H69.7326V15.52H74.3406ZM113.149 4.672H93.1326V1.12H113.149V4.672ZM113.389 14.968H93.1326V6.016H113.053V9.472H97.7646V11.344H113.389V14.968ZM114.157 22.552H92.1486V18.712H114.157V22.552Z" fill="#0564B5"/>
<path d="M136.52 8.776V10.792H145.352V14.2H123.344V10.792H132.128V8.776H124.328V0.783998H144.344V8.776H136.52ZM139.952 3.712H128.744V5.848H139.952V3.712ZM139.856 18.688H124.208V15.616H144.344V23.2H139.856V18.688ZM160.52 10.456V12.16H169.352V15.184H147.344V12.16H156.128V10.456H148.328V4.336H163.808V3.424H148.328V0.783998H168.344V6.76H152.816V7.696H168.464V10.456H160.52ZM163.856 19.24H148.328V16.36H168.344V23.2H163.856V19.24Z" fill="#0F2762"/>
</svg>
