<svg width="265" height="45" viewBox="0 0 265 45" fill="none" xmlns="http://www.w3.org/2000/svg">
<rect x="90.5" width="84" height="22" rx="11" fill="black"/>
<path d="M101.22 13.848V8.988C101.22 7.224 102.744 6.024 104.604 6.024C106.476 6.024 108.012 7.224 108.012 8.988V13.848C108.012 15.612 106.476 16.812 104.604 16.812C102.744 16.812 101.22 15.612 101.22 13.848ZM109.188 16.992V5.844H111.888V16.992H109.188ZM103.776 8.868V13.968C103.776 14.388 104.124 14.784 104.64 14.784C105.156 14.784 105.516 14.388 105.516 13.968V8.868C105.516 8.472 105.156 8.04 104.64 8.04C104.124 8.04 103.776 8.472 103.776 8.868ZM113.22 12.648V5.964H115.308V7.308H116.4V5.964H118.404V8.304H119.304V5.844H121.404V14.112H119.304V10.344H118.404V12.648H113.22ZM124.2 15.024V16.992H113.724V13.248H116.4V15.024H124.2ZM121.872 14.112V5.844H124.02V14.112H121.872ZM115.308 9.276V10.68H116.4V9.276H115.308ZM124.98 16.812V14.7H136.02V16.812H124.98ZM135.72 11.04V13.02H125.4V8.472H135.552V10.356H128.076V11.04H135.72ZM125.4 7.968V6.024H135.6V7.968H125.4ZM148.786 11.82V5.844H151.486V11.82H148.786ZM141.322 13.416V12.06H151.486V15.12H143.974V15.576H151.666V16.992H141.322V13.848H148.834V13.416H141.322ZM140.818 9.012V8.46C140.818 6.696 142.342 5.844 144.214 5.844C146.074 5.844 147.598 6.696 147.598 8.46V9.012C147.598 10.752 146.074 11.592 144.214 11.592C142.342 11.592 140.818 10.752 140.818 9.012ZM143.41 8.256V9.216C143.41 9.636 143.746 9.936 144.214 9.936C144.658 9.936 145.018 9.636 145.018 9.216V8.256C145.018 7.836 144.658 7.5 144.214 7.5C143.746 7.5 143.41 7.836 143.41 8.256ZM159.118 10.044V8.232H160.846V5.844H163.498V12.468H160.846V10.044H159.118ZM152.818 7.932V6.024H159.73V7.932H157.462C157.474 9.54 158.47 10.32 159.85 10.416V12.372C158.278 12.336 157.054 11.856 156.274 10.776C155.47 11.856 154.246 12.336 152.698 12.372V10.416C154.09 10.32 155.086 9.54 155.086 7.932H152.818ZM153.202 14.88C153.202 13.596 154.234 12.708 155.53 12.708H161.266C162.586 12.708 163.618 13.596 163.618 14.88C163.618 16.128 162.586 17.052 161.266 17.052H155.53C154.234 17.052 153.202 16.128 153.202 14.88ZM156.31 15.264H160.474C160.81 15.264 160.978 15.108 160.978 14.88C160.978 14.616 160.81 14.484 160.474 14.484H156.31C156.022 14.484 155.854 14.616 155.854 14.88C155.854 15.108 156.022 15.264 156.31 15.264Z" fill="#CDCDCD"/>
<path d="M4.738 35.305V34.785C4.738 34.369 4.53 34.031 4.114 34.031C3.698 34.031 3.49 34.369 3.49 34.785V35.734H0.89V34.785C0.89 32.939 2.281 31.951 4.114 31.951C5.947 31.951 7.468 32.939 7.468 34.785V35.305C7.468 36.917 6.818 37.723 5.427 39.218C4.023 40.726 3.62 41.012 3.62 41.649V41.883H7.468V43.963H0.76V41.649C0.76 40.7 0.851 39.985 3.126 37.983C4.517 36.774 4.738 36.137 4.738 35.305ZM8.24363 41.454V34.785C8.24363 32.939 9.76463 31.951 11.5976 31.951C13.4306 31.951 14.9516 32.939 14.9516 34.785V41.454C14.9516 43.3 13.4306 44.288 11.5976 44.288C9.76463 44.288 8.24363 43.3 8.24363 41.454ZM10.8436 34.785V41.454C10.8436 41.87 11.1816 42.208 11.5976 42.208C12.0136 42.208 12.3516 41.87 12.3516 41.454V34.785C12.3516 34.369 12.0136 34.031 11.5976 34.031C11.1816 34.031 10.8436 34.369 10.8436 34.785ZM19.7058 35.305V34.785C19.7058 34.369 19.4978 34.031 19.0818 34.031C18.6658 34.031 18.4578 34.369 18.4578 34.785V35.734H15.8578V34.785C15.8578 32.939 17.2488 31.951 19.0818 31.951C20.9148 31.951 22.4358 32.939 22.4358 34.785V35.305C22.4358 36.917 21.7858 37.723 20.3948 39.218C18.9908 40.726 18.5878 41.012 18.5878 41.649V41.883H22.4358V43.963H15.7278V41.649C15.7278 40.7 15.8188 39.985 18.0938 37.983C19.4848 36.774 19.7058 36.137 19.7058 35.305ZM25.5384 32.211H29.3474V40.18H30.2574V42.39H29.3474V44.028H26.8904V42.39H22.8214V40.18L25.5384 32.211ZM26.8774 40.18V35.071L25.2654 40.18H26.8774ZM36.7708 34.759V32.991H39.7348V32.081H42.6078V40.947H39.7348V37.086H36.7708V35.318H39.7348V34.759H36.7708ZM31.0378 39.998V32.211H33.8978V37.697L39.2798 37.502V39.66L31.0378 39.998ZM42.8028 42.026V44.158H31.5838V40.544H34.4828V42.026H42.8028ZM50.1063 38.698V36.618L50.9643 36.553C51.3543 36.514 51.7833 36.215 51.7833 35.799V34.655C51.7833 34.239 51.4453 33.901 51.0293 33.901C50.6133 33.901 50.2753 34.239 50.2753 34.655V35.604H47.6753V34.785C47.6753 32.939 49.1963 31.951 51.0293 31.951C52.8623 31.951 54.3833 32.939 54.3833 34.785V35.669C54.3833 36.657 53.9933 37.268 53.3693 37.645C54.0583 38.022 54.5133 38.646 54.5133 39.647V41.454C54.5133 43.3 52.8623 44.288 51.0293 44.288C49.1963 44.288 47.5453 43.3 47.5453 41.454V40.037H50.2753V41.454C50.2753 41.87 50.6133 42.208 51.0293 42.208C51.4453 42.208 51.7833 41.87 51.7833 41.454V39.517C51.7833 39.101 51.3153 38.763 50.8993 38.763L50.1063 38.698ZM55.4194 38.204V36.488H64.0644V38.204H60.7234L60.5544 39.14H67.2364V42.247H58.9554V42.728H67.3664V44.158H56.2254V40.986H64.5064V40.544H56.2254V39.14H57.9284L58.0974 38.204H55.4194ZM55.6794 34.2C55.6794 33.108 56.5244 32.211 57.7334 32.211H61.0614C62.2574 32.211 63.1284 33.108 63.1284 34.2C63.1284 35.292 62.2574 36.176 61.0614 36.176H57.7334C56.5244 36.176 55.6794 35.292 55.6794 34.2ZM63.3364 35.435V33.42H64.3764V32.081H67.2364V38.815H64.3764V35.435H63.3364ZM58.1234 34.226C58.1234 34.434 58.2794 34.616 58.4484 34.616H60.3854C60.5544 34.616 60.7104 34.434 60.7104 34.226C60.7104 34.018 60.5544 33.836 60.3854 33.836H58.4484C58.2794 33.836 58.1234 34.018 58.1234 34.226ZM75.9829 44.028H73.2529V35.487H71.9269V33.537C72.6549 33.537 73.4609 32.9 73.4609 32.211H75.9829V44.028ZM79.3538 32.211H83.1628V40.18H84.0728V42.39H83.1628V44.028H80.7058V42.39H76.6368V40.18L79.3538 32.211ZM80.6928 40.18V35.071L79.0808 40.18H80.6928ZM93.4852 38.555V32.081H96.4102V38.555H93.4852ZM85.3992 40.284V38.815H96.4102V42.13H88.2722V42.624H96.6052V44.158H85.3992V40.752H93.5372V40.284H85.3992ZM84.8532 35.513V34.915C84.8532 33.004 86.5042 32.081 88.5322 32.081C90.5472 32.081 92.1982 33.004 92.1982 34.915V35.513C92.1982 37.398 90.5472 38.308 88.5322 38.308C86.5042 38.308 84.8532 37.398 84.8532 35.513ZM87.6612 34.694V35.734C87.6612 36.189 88.0252 36.514 88.5322 36.514C89.0132 36.514 89.4032 36.189 89.4032 35.734V34.694C89.4032 34.239 89.0132 33.875 88.5322 33.875C88.0252 33.875 87.6612 34.239 87.6612 34.694ZM98.6332 34.187C98.6332 31.834 100.284 31.613 102.208 31.613V33.563C101.545 33.563 101.103 33.758 101.103 34.343V41.857C101.103 42.442 101.545 42.637 102.208 42.637V44.587C100.284 44.587 98.6332 44.366 98.6332 42.013V34.187ZM103.571 36.462V32.081H114.621V36.462H110.461V37.463H115.076V39.478H103.116V37.463H107.718V36.462H103.571ZM103.506 41.948V40.167H114.621V44.288H111.813V41.948H103.506ZM106.314 33.771V34.772H111.878V33.771H106.314ZM119.561 34.187V42.013C119.561 44.366 117.91 44.587 115.986 44.587V42.637C116.649 42.637 117.091 42.442 117.091 41.857V34.343C117.091 33.758 116.649 33.563 115.986 33.563V31.613C117.91 31.613 119.561 31.834 119.561 34.187ZM127.226 39.504H125.536C125.874 37.138 127.018 36.319 128.058 36.319C128.838 36.319 129.085 36.423 130.021 36.878C130.84 37.281 131.256 37.528 131.711 37.619C132.244 37.71 132.465 37.463 132.608 36.41H134.298C134.025 38.906 133.011 39.582 131.854 39.582C131.035 39.582 130.502 39.426 129.683 39.023C129.02 38.698 128.565 38.386 128.11 38.425C127.72 38.464 127.434 38.516 127.226 39.504ZM142.952 35.305V34.785C142.952 34.369 142.744 34.031 142.328 34.031C141.912 34.031 141.704 34.369 141.704 34.785V35.734H139.104V34.785C139.104 32.939 140.495 31.951 142.328 31.951C144.161 31.951 145.682 32.939 145.682 34.785V35.305C145.682 36.917 145.032 37.723 143.641 39.218C142.237 40.726 141.834 41.012 141.834 41.649V41.883H145.682V43.963H138.974V41.649C138.974 40.7 139.065 39.985 141.34 37.983C142.731 36.774 142.952 36.137 142.952 35.305ZM146.458 41.454V34.785C146.458 32.939 147.979 31.951 149.812 31.951C151.645 31.951 153.166 32.939 153.166 34.785V41.454C153.166 43.3 151.645 44.288 149.812 44.288C147.979 44.288 146.458 43.3 146.458 41.454ZM149.058 34.785V41.454C149.058 41.87 149.396 42.208 149.812 42.208C150.228 42.208 150.566 41.87 150.566 41.454V34.785C150.566 34.369 150.228 34.031 149.812 34.031C149.396 34.031 149.058 34.369 149.058 34.785ZM157.92 35.305V34.785C157.92 34.369 157.712 34.031 157.296 34.031C156.88 34.031 156.672 34.369 156.672 34.785V35.734H154.072V34.785C154.072 32.939 155.463 31.951 157.296 31.951C159.129 31.951 160.65 32.939 160.65 34.785V35.305C160.65 36.917 160 37.723 158.609 39.218C157.205 40.726 156.802 41.012 156.802 41.649V41.883H160.65V43.963H153.942V41.649C153.942 40.7 154.033 39.985 156.308 37.983C157.699 36.774 157.92 36.137 157.92 35.305ZM163.752 32.211H167.561V40.18H168.471V42.39H167.561V44.028H165.104V42.39H161.035V40.18L163.752 32.211ZM165.091 40.18V35.071L163.479 40.18H165.091ZM174.985 34.759V32.991H177.949V32.081H180.822V40.947H177.949V37.086H174.985V35.318H177.949V34.759H174.985ZM169.252 39.998V32.211H172.112V37.697L177.494 37.502V39.66L169.252 39.998ZM181.017 42.026V44.158H169.798V40.544H172.697V42.026H181.017ZM189.555 44.028H186.825V35.487H185.499V33.537C186.227 33.537 187.033 32.9 187.033 32.211H189.555V44.028ZM194.265 44.028H191.535V35.487H190.209V33.537C190.937 33.537 191.743 32.9 191.743 32.211H194.265V44.028ZM195.309 38.204V36.488H203.954V38.204H200.613L200.444 39.14H207.126V42.247H198.845V42.728H207.256V44.158H196.115V40.986H204.396V40.544H196.115V39.14H197.818L197.987 38.204H195.309ZM195.569 34.2C195.569 33.108 196.414 32.211 197.623 32.211H200.951C202.147 32.211 203.018 33.108 203.018 34.2C203.018 35.292 202.147 36.176 200.951 36.176H197.623C196.414 36.176 195.569 35.292 195.569 34.2ZM203.226 35.435V33.42H204.266V32.081H207.126V38.815H204.266V35.435H203.226ZM198.013 34.226C198.013 34.434 198.169 34.616 198.338 34.616H200.275C200.444 34.616 200.6 34.434 200.6 34.226C200.6 34.018 200.444 33.836 200.275 33.836H198.338C198.169 33.836 198.013 34.018 198.013 34.226ZM214.638 38.698V36.618L215.496 36.553C215.886 36.514 216.315 36.215 216.315 35.799V34.655C216.315 34.239 215.977 33.901 215.561 33.901C215.145 33.901 214.807 34.239 214.807 34.655V35.604H212.207V34.785C212.207 32.939 213.728 31.951 215.561 31.951C217.394 31.951 218.915 32.939 218.915 34.785V35.669C218.915 36.657 218.525 37.268 217.901 37.645C218.59 38.022 219.045 38.646 219.045 39.647V41.454C219.045 43.3 217.394 44.288 215.561 44.288C213.728 44.288 212.077 43.3 212.077 41.454V40.037H214.807V41.454C214.807 41.87 215.145 42.208 215.561 42.208C215.977 42.208 216.315 41.87 216.315 41.454V39.517C216.315 39.101 215.847 38.763 215.431 38.763L214.638 38.698ZM219.951 41.454V34.785C219.951 32.939 221.472 31.951 223.305 31.951C225.138 31.951 226.659 32.939 226.659 34.785V41.454C226.659 43.3 225.138 44.288 223.305 44.288C221.472 44.288 219.951 43.3 219.951 41.454ZM222.551 34.785V41.454C222.551 41.87 222.889 42.208 223.305 42.208C223.721 42.208 224.059 41.87 224.059 41.454V34.785C224.059 34.369 223.721 34.031 223.305 34.031C222.889 34.031 222.551 34.369 222.551 34.785ZM236.587 38.555V32.081H239.512V38.555H236.587ZM228.501 40.284V38.815H239.512V42.13H231.374V42.624H239.707V44.158H228.501V40.752H236.639V40.284H228.501ZM227.955 35.513V34.915C227.955 33.004 229.606 32.081 231.634 32.081C233.649 32.081 235.3 33.004 235.3 34.915V35.513C235.3 37.398 233.649 38.308 231.634 38.308C229.606 38.308 227.955 37.398 227.955 35.513ZM230.763 34.694V35.734C230.763 36.189 231.127 36.514 231.634 36.514C232.115 36.514 232.505 36.189 232.505 35.734V34.694C232.505 34.239 232.115 33.875 231.634 33.875C231.127 33.875 230.763 34.239 230.763 34.694ZM241.735 31.613H245.31V33.953H244.218V42.247H245.31V44.587H241.735V31.613ZM257.852 37.71V39.855H246.672V34.928H257.67V36.969H249.571V37.71H257.852ZM246.217 43.963V41.675H250.728V40.219H253.666V41.675H258.177V43.963H246.217ZM246.672 34.382V32.276H257.722V34.382H246.672ZM259.087 31.613H262.662V44.574H259.087V42.234H260.179V33.953H259.087V31.613Z" fill="white"/>
</svg>
