<svg width="265" height="134" viewBox="0 0 265 134" fill="none" xmlns="http://www.w3.org/2000/svg">
<path d="M66.4801 31.644H64.2961V27.612H61.6921V25.61H64.2961V23.846H66.4801V31.644ZM69.5461 31.644H67.3061V23.846H69.5461V31.644ZM63.5541 30.678L57.1281 31.378V24H59.5921V28.914L63.5541 28.494V30.678ZM69.5461 36.95H66.7741V34.094H57.5901V32.05H69.5461V36.95ZM71.2121 28.9V26.898C74.0961 26.884 75.8601 25.582 75.8601 24.182V23.72H78.5621V24.182C78.5621 25.582 80.3261 26.926 83.1961 26.94V28.9C80.1721 28.886 78.1841 27.962 77.1901 26.702C76.2101 27.962 74.1941 28.886 71.2121 28.9ZM83.6301 31.826H70.7921V29.726H83.6301V31.826ZM83.2521 36.81H71.3661V32.568H73.9981V34.78H83.2521V36.81ZM97.3641 36.81H94.6621V23.846H97.3641V36.81ZM89.2581 32.106C87.1021 32.106 85.3381 31 85.3381 28.704V27.332C85.3381 25.036 87.1021 23.86 89.2581 23.86C91.4281 23.86 93.2061 25.036 93.2061 27.332V28.704C93.2061 31 91.4281 32.106 89.2581 32.106ZM89.2581 30.034C90.0561 30.034 90.6861 29.572 90.6861 28.816V27.192C90.6861 26.436 90.0561 25.946 89.2581 25.946C88.4881 25.946 87.8721 26.436 87.8721 27.192V28.816C87.8721 29.572 88.4881 30.034 89.2581 30.034ZM94.2141 35.942L84.8341 36.516V34.234L94.2141 33.66V35.942ZM114.833 36.81H112.173V23.846H114.833V28.662H116.695V31.056H114.833V36.81ZM111.501 35.76L103.367 36.362V24.294H110.871V26.45H106.027V33.912L111.501 33.478V35.76ZM120.979 31.056C118.949 31.056 117.283 30.02 117.283 27.976V26.94C117.283 24.91 118.949 23.846 120.979 23.846C123.009 23.846 124.675 24.91 124.675 26.94V27.976C124.675 30.02 123.009 31.056 120.979 31.056ZM129.155 31.434H126.495V23.846H129.155V24.98H130.583V26.912H129.155V28.018H130.583V29.95H129.155V31.434ZM121.007 29.194C121.721 29.194 122.267 28.802 122.267 28.13V26.772C122.267 26.1 121.721 25.708 121.007 25.708C120.279 25.708 119.747 26.1 119.747 26.772V28.13C119.747 28.802 120.279 29.194 121.007 29.194ZM126.719 36.88H120.447C118.935 36.88 117.731 35.788 117.731 34.332C117.731 32.848 118.935 31.798 120.447 31.798H126.719C128.259 31.798 129.463 32.848 129.463 34.332C129.463 35.788 128.259 36.88 126.719 36.88ZM121.203 34.934H125.949C126.453 34.934 126.803 34.752 126.803 34.332C126.803 33.884 126.453 33.73 125.949 33.73H121.203C120.755 33.73 120.405 33.884 120.405 34.332C120.405 34.752 120.755 34.934 121.203 34.934ZM139.319 26.52H131.129V24.644H133.831V23.552H136.603V24.644H139.319V26.52ZM143.155 33.422H140.495V23.846H143.155V27.122H144.695V29.404H143.155V33.422ZM131.311 29.418C131.311 28.06 132.277 26.996 133.397 26.996H137.051C138.185 26.996 139.151 28.06 139.151 29.418C139.151 30.79 138.185 31.84 137.051 31.84H133.397C132.277 31.84 131.311 30.79 131.311 29.418ZM134.195 30.02H136.295C136.701 30.02 136.925 29.726 136.925 29.418C136.925 29.082 136.701 28.802 136.295 28.802H134.195C133.803 28.802 133.565 29.082 133.565 29.418C133.565 29.726 133.803 30.02 134.195 30.02ZM143.435 36.81H131.913V32.54H134.601V34.71H143.435V36.81ZM155.431 28.802H156.747V23.846H158.931V36.81H156.747V31.084H154.969C153.989 34.416 151.945 35.942 149.369 36.502V34.122C152.617 33.1 153.303 29.614 153.303 26.562H149.439V24.294H155.599V25.946C155.599 26.996 155.543 27.934 155.431 28.802ZM159.701 36.81V23.846H161.941V36.81H159.701ZM167.415 30.678C165.259 30.678 163.509 29.642 163.509 27.64V26.926C163.509 24.896 165.259 23.846 167.415 23.846C169.557 23.846 171.307 24.896 171.307 26.926V27.64C171.307 29.642 169.557 30.678 167.415 30.678ZM175.787 30.958H173.071V23.846H175.787V30.958ZM167.415 28.886C168.129 28.886 168.703 28.494 168.703 27.878V26.674C168.703 26.058 168.129 25.638 167.415 25.638C166.673 25.638 166.127 26.058 166.127 26.674V27.878C166.127 28.494 166.673 28.886 167.415 28.886ZM173.099 36.432L164.111 36.81V31.364H175.787V36.81H173.099V36.432ZM166.799 33.296V34.752L173.099 34.514V33.296H166.799ZM183.473 28.802H184.775V23.846H186.959V36.81H184.775V31.084H183.473V33.786C183.473 35.41 182.115 36.572 180.491 36.572C178.867 36.572 177.509 35.41 177.509 33.786V26.814C177.509 25.19 178.867 24.042 180.491 24.042C182.115 24.042 183.473 25.19 183.473 26.814V28.802ZM187.701 36.81V23.846H189.941V36.81H187.701ZM181.345 33.716V26.884C181.345 26.464 180.953 26.17 180.533 26.17C180.113 26.17 179.707 26.464 179.707 26.884V33.716C179.707 34.136 180.113 34.444 180.533 34.444C180.953 34.444 181.345 34.136 181.345 33.716ZM201.099 30.454H198.355V28.172H201.099V23.846H203.759V36.81H201.099V30.454ZM191.313 36.348V33.366C192.811 32.386 194.183 30.86 194.211 26.898V24.14H196.843V26.898C196.871 30.86 198.243 32.386 199.741 33.366V36.348C197.977 35.466 196.395 34.136 195.527 32.246C194.659 34.136 193.063 35.466 191.313 36.348ZM53.0269 47.776H50.3109V40.846H53.0269V47.776ZM49.5269 47.132L40.7629 47.706V43.422H45.9009V42.736H40.7629V41.07H48.4629V44.976H43.3249V45.802L49.5269 45.396V47.132ZM53.2509 53.81H41.3509V50.254H50.3529V49.68H41.3509V48.182H53.0269V51.626H44.0249V52.242H53.2509V53.81ZM64.1989 53.81H62.0149V47.538H60.5029V45.27H62.0149V40.846H64.1989V53.81ZM67.1809 53.81H64.9409V40.846H67.1809V53.81ZM61.3989 52.634L54.7489 53.362V45.97H57.6189L57.8849 43.506H54.7489V41.294H60.4889L59.8169 48.084H57.1429V50.842L61.3989 50.366V52.634ZM81.0269 53.81H78.3109V40.846H81.0269V53.81ZM72.6269 53.572C70.4709 53.572 68.7489 52.172 68.7489 50.142V44.472C68.7489 42.428 70.4709 41.042 72.6269 41.042C74.7969 41.042 76.5469 42.428 76.5469 44.472V50.142C76.5469 52.172 74.7969 53.572 72.6269 53.572ZM72.6689 51.416C73.4529 51.416 74.0129 50.898 74.0129 50.268V44.332C74.0129 43.744 73.4529 43.17 72.6689 43.17C71.8709 43.17 71.3249 43.744 71.3249 44.332V50.268C71.3249 50.898 71.8709 51.416 72.6689 51.416ZM99.2241 53.81H96.5081V40.846H99.2241V53.81ZM90.8241 53.572C88.6681 53.572 86.9461 52.172 86.9461 50.142V44.472C86.9461 42.428 88.6681 41.042 90.8241 41.042C92.9941 41.042 94.7441 42.428 94.7441 44.472V50.142C94.7441 52.172 92.9941 53.572 90.8241 53.572ZM90.8661 51.416C91.6501 51.416 92.2101 50.898 92.2101 50.268V44.332C92.2101 43.744 91.6501 43.17 90.8661 43.17C90.0681 43.17 89.5221 43.744 89.5221 44.332V50.268C89.5221 50.898 90.0681 51.416 90.8661 51.416ZM108.212 45.956H106.91V48.672H100.946V41H103.116V42.694H104.796V41H106.91V43.786H108.212V40.846H110.396V50.45H108.212V45.956ZM111.138 40.846H113.378V50.45H111.138V40.846ZM103.116 46.586H104.796V44.794H103.116V46.586ZM104.236 49.47V51.71H113.588V53.81H101.548V49.47H104.236ZM126.874 43.142H115.198V41.07H126.874V43.142ZM127.014 49.148H115.198V43.926H126.818V45.942H117.9V47.034H127.014V49.148ZM127.462 53.572H114.624V51.332H127.462V53.572ZM140.51 53.81H137.85V40.846H140.51V45.662H142.33V48.056H140.51V53.81ZM128.876 53.502V51.08C132.208 50.226 133.93 47.874 133.916 43.562H128.946V41.294H136.45V43.198C136.45 49.358 133.664 52.704 128.876 53.502ZM159.393 50.478H156.691V40.846H159.393V50.478ZM146.975 48.574V46.362C148.613 46.222 149.985 45.284 150.013 43.506V43.226H147.115V41.084H155.361V43.226H152.463V43.506C152.491 45.298 153.877 46.222 155.501 46.362V48.574C153.639 48.49 152.071 47.776 151.231 46.46C150.391 47.776 148.823 48.49 146.975 48.574ZM159.617 53.81H147.787V49.176H150.531V51.71H159.617V53.81ZM167.723 43.408H160.947V41.644H163.201V40.552H165.483V41.644H167.723V43.408ZM170.453 48.798H168.255V40.846H170.453V43.674H171.335V40.846H173.575V48.798H171.335V45.83H170.453V48.798ZM161.115 46.068C161.115 44.836 162.011 43.856 163.089 43.856H165.609C166.701 43.856 167.583 44.836 167.583 46.068C167.583 47.3 166.701 48.28 165.609 48.28H163.089C162.011 48.28 161.115 47.3 161.115 46.068ZM163.593 46.572H165.091C165.427 46.572 165.623 46.32 165.623 46.068C165.623 45.788 165.427 45.55 165.091 45.55H163.593C163.257 45.55 163.061 45.788 163.061 46.068C163.061 46.32 163.257 46.572 163.593 46.572ZM161.535 51.486C161.535 50.114 162.599 49.12 164.083 49.12H171.139C172.651 49.12 173.715 50.114 173.715 51.486C173.715 52.872 172.651 53.88 171.139 53.88H164.083C162.599 53.88 161.535 52.872 161.535 51.486ZM164.923 52.032H170.299C170.775 52.032 171.055 51.85 171.055 51.486C171.055 51.136 170.775 50.94 170.299 50.94H164.923C164.503 50.94 164.209 51.136 164.209 51.486C164.209 51.85 164.503 52.032 164.923 52.032ZM184.691 48.49V40.846H187.393V48.49H184.691ZM180.505 46.32L184.243 46.152V47.944L174.793 48.378V46.586L178.097 46.446V45.312H175.381V41.07H183.347V42.764H177.957V43.562H183.487V45.312H180.505V46.32ZM178.391 49.498H184.775V48.798H187.393V53.81H184.775V53.39L175.773 53.81V48.798H178.391V49.498ZM178.391 51.976L184.775 51.724V51.15H178.391V51.976ZM201.379 53.81H198.663V40.846H201.379V53.81ZM197.893 52.76L189.241 53.362V41.224H192.013V50.842L197.893 50.436V52.76ZM214.665 53.81H212.005V40.846H214.665V45.662H216.527V48.056H214.665V53.81ZM211.333 52.76L203.199 53.362V41.294H210.703V43.45H205.859V50.912L211.333 50.478V52.76ZM219.313 53.376H216.961V51.01H219.313V53.376Z" fill="white"/>
<path d="M21.5007 82.408H20.3007V71.464H21.5007V82.408ZM14.5887 82.084C12.7647 82.084 11.4087 80.944 11.4087 79.264V74.392C11.4087 72.712 12.7647 71.572 14.5887 71.572C16.4127 71.572 17.7687 72.712 17.7687 74.392V79.264C17.7687 80.944 16.4127 82.084 14.5887 82.084ZM14.5887 81.076C15.7527 81.076 16.5687 80.392 16.5687 79.324V74.332C16.5687 73.288 15.7527 72.58 14.5887 72.58C13.4247 72.58 12.6087 73.288 12.6087 74.332V79.324C12.6087 80.392 13.4247 81.076 14.5887 81.076ZM32.3127 75.208H29.4687V77.668H23.4807V71.656H24.6807V73.54H28.2687V71.656H29.4687V74.2H32.3127V71.464H33.5127V79.6H32.3127V75.208ZM24.6807 76.66H28.2687V74.548H24.6807V76.66ZM25.2567 78.628V81.4H33.7287V82.408H24.0567V78.628H25.2567ZM48.5343 76.972H47.3343V71.464H48.5343V73.588H50.2143V74.596H48.5343V76.972ZM45.6663 76.156L39.1503 76.636V71.716H44.8143V72.724H40.3503V75.532L45.6663 75.148V76.156ZM48.7743 82.408H39.6543V79.456H47.3343V78.532H39.6543V77.524H48.5343V80.416H40.8543V81.4H48.7743V82.408ZM64.696 82.408H63.496V71.464H64.696V82.408ZM57.784 82.084C55.96 82.084 54.604 80.944 54.604 79.264V74.392C54.604 72.712 55.96 71.572 57.784 71.572C59.608 71.572 60.964 72.712 60.964 74.392V79.264C60.964 80.944 59.608 82.084 57.784 82.084ZM57.784 81.076C58.948 81.076 59.764 80.392 59.764 79.324V74.332C59.764 73.288 58.948 72.58 57.784 72.58C56.62 72.58 55.804 73.288 55.804 74.332V79.324C55.804 80.392 56.62 81.076 57.784 81.076ZM73.276 75.292H71.5V77.788H66.604V71.656H67.804V73.612H70.3V71.656H71.5V74.284H73.276V71.464H74.476V79.54H73.276V75.292ZM75.628 71.464H76.828V79.54H75.628V71.464ZM67.804 76.78H70.3V74.62H67.804V76.78ZM68.38 78.808V81.4H77.008V82.408H67.18V78.808H68.38ZM88.372 72.76H78.964V71.752H88.372V72.76ZM88.492 78.292H78.964V74.164H88.324V75.172H80.164V77.284H88.492V78.292ZM89.116 82.084H78.22V81.076H89.116V82.084ZM100.636 82.408H99.436V71.464H100.636V82.408ZM94.336 78.256C92.524 78.256 91.024 77.368 91.024 75.568V74.272C91.024 72.472 92.524 71.56 94.336 71.56C96.136 71.56 97.648 72.472 97.648 74.272V75.568C97.648 77.368 96.136 78.256 94.336 78.256ZM94.336 77.248C95.524 77.248 96.448 76.624 96.448 75.58V74.26C96.448 73.192 95.524 72.568 94.336 72.568C93.16 72.568 92.224 73.192 92.224 74.26V75.58C92.224 76.624 93.16 77.248 94.336 77.248ZM98.836 81.292L90.364 81.844V80.836L98.836 80.284V81.292ZM106.286 76.888V75.88C108.662 75.808 110.522 74.068 110.582 72.832H106.406V71.824H116.126V72.832H111.938C112.022 74.068 113.87 75.808 116.246 75.88V76.888C113.858 76.816 111.842 75.508 111.266 73.96C110.69 75.508 108.674 76.816 106.286 76.888ZM111.866 82.528H110.666V78.964H105.818V77.956H116.714V78.964H111.866V82.528ZM121.406 77.908C119.642 77.908 118.202 77.032 118.202 75.316V74.044C118.202 72.34 119.642 71.452 121.406 71.452C123.17 71.452 124.61 72.34 124.61 74.044V75.316C124.61 77.032 123.17 77.908 121.406 77.908ZM128.306 79.372H127.106V71.464H128.306V79.372ZM121.418 76.9C122.546 76.9 123.41 76.348 123.41 75.268V74.104C123.41 73.024 122.546 72.46 121.418 72.46C120.266 72.46 119.402 73.024 119.402 74.104V75.268C119.402 76.348 120.266 76.9 121.418 76.9ZM128.522 82.408H118.85V78.748H120.05V81.4H128.522V82.408ZM138.746 72.628H130.574V71.62H140.03L139.718 75.544H138.518L138.746 72.628ZM140.714 77.248H129.818V76.24H134.066V74.02H135.266V76.24H140.714V77.248ZM130.382 80.38C130.382 79.312 131.114 78.34 132.338 78.34H138.194C139.418 78.34 140.15 79.312 140.15 80.38C140.15 81.472 139.418 82.432 138.194 82.432H132.338C131.114 82.432 130.382 81.472 130.382 80.38ZM132.566 81.424H137.942C138.53 81.424 138.95 80.98 138.95 80.368C138.95 79.78 138.53 79.348 137.942 79.348H132.566C131.99 79.348 131.582 79.78 131.582 80.368C131.582 80.98 131.99 81.424 132.566 81.424ZM150.074 75.808H144.458C143.33 75.808 142.442 74.932 142.442 73.684C142.442 72.436 143.33 71.56 144.458 71.56H150.074C151.19 71.56 152.09 72.436 152.09 73.684C152.09 74.932 151.19 75.808 150.074 75.808ZM144.626 74.8H149.906C150.458 74.8 150.89 74.38 150.89 73.672C150.89 72.976 150.458 72.568 149.906 72.568H144.626C144.062 72.568 143.642 72.976 143.642 73.672C143.642 74.38 144.062 74.8 144.626 74.8ZM152.714 78.076H141.818V77.068H152.714V78.076ZM152.15 82.408H142.562V78.904H143.762V81.4H152.15V82.408ZM166.691 76.084V71.464H167.891V82.408H166.691V77.092H163.871V79.264C163.871 80.944 162.575 82.084 160.835 82.084C159.095 82.084 157.799 80.944 157.799 79.264V74.392C157.799 72.712 159.095 71.572 160.835 71.572C162.575 71.572 163.871 72.712 163.871 74.392V76.084H166.691ZM162.671 79.324V74.332C162.671 73.288 161.915 72.58 160.835 72.58C159.755 72.58 158.999 73.288 158.999 74.332V79.324C158.999 80.392 159.755 81.076 160.835 81.076C161.915 81.076 162.671 80.392 162.671 79.324ZM179.951 79.588H178.751V75.208H176.243V74.2H178.751V71.464H179.951V79.588ZM172.787 77.728L169.787 78.124V71.716H172.787V72.724H170.987V76.948L172.787 76.708V77.728ZM177.479 77.764L173.183 78.244V71.716H176.879V72.724H174.383V77.092L177.479 76.744V77.764ZM180.167 82.408H170.447V79.012H171.647V81.4H180.167V82.408ZM189.981 76.072H191.961V71.464H193.161V82.408H191.961V77.08H189.765C189.009 79.948 187.413 81.436 185.277 82.024V80.956C188.073 80.02 189.057 77.152 189.045 72.976H185.337V71.968H190.245V72.736C190.245 73.996 190.149 75.1 189.981 76.072ZM194.421 82.408V71.464H195.621V82.408H194.421ZM200.601 77.188C198.837 77.188 197.397 76.36 197.397 74.716V73.924C197.397 72.292 198.837 71.452 200.601 71.452C202.365 71.452 203.805 72.292 203.805 73.924V74.716C203.805 76.36 202.365 77.188 200.601 77.188ZM207.501 77.44H206.301V71.464H207.501V77.44ZM200.613 76.18C201.741 76.18 202.605 75.676 202.605 74.668V73.984C202.605 72.976 201.741 72.46 200.613 72.46C199.461 72.46 198.597 72.976 198.597 73.984V74.668C198.597 75.676 199.461 76.18 200.613 76.18ZM206.301 82.048L197.973 82.408V77.992H207.501V82.408H206.301V82.048ZM199.173 79V81.352L206.301 81.04V79H199.173ZM212.601 77.02C210.837 77.02 209.397 76.192 209.397 74.548V73.924C209.397 72.292 210.837 71.452 212.601 71.452C214.365 71.452 215.805 72.292 215.805 73.924V74.548C215.805 76.192 214.365 77.02 212.601 77.02ZM219.501 77.2H218.301V71.464H219.501V77.2ZM212.613 76.012C213.741 76.012 214.605 75.508 214.605 74.5V73.984C214.605 72.976 213.741 72.46 212.613 72.46C211.461 72.46 210.597 72.976 210.597 73.984V74.5C210.597 75.508 211.461 76.012 212.613 76.012ZM219.717 82.408H209.973V79.576H218.301V78.76H209.973V77.752H219.501V80.536H211.173V81.4H219.717V82.408ZM231.045 82.408H229.845V71.464H231.045V75.952H232.605V76.96H231.045V82.408ZM221.145 81.544V80.2C223.173 79.084 223.689 76.96 223.689 72.976H221.265V71.968H224.889V72.88C224.889 77.824 224.157 80.092 221.145 81.544ZM224.613 82.144V80.8C226.437 79.6 227.205 77.98 227.205 72.976H225.405V71.968H228.405V72.88C228.405 78.724 227.337 80.656 224.613 82.144ZM240.381 77.8H236.541C234.777 77.8 233.529 76.468 233.529 74.752C233.529 73.024 234.777 71.692 236.541 71.692H240.381C242.145 71.692 243.393 73.024 243.393 74.752C243.393 76.468 242.145 77.8 240.381 77.8ZM236.673 76.792H240.249C241.377 76.792 242.193 75.952 242.193 74.752C242.193 73.552 241.377 72.7 240.249 72.7H236.673C235.557 72.7 234.729 73.552 234.729 74.752C234.729 75.952 235.557 76.792 236.673 76.792ZM243.909 82.084H233.013V81.076H235.749V78.34H236.949V81.076H239.997V78.34H241.197V81.076H243.909V82.084ZM249.741 74.284V73.804C249.741 72.856 249.141 72.352 248.049 72.352C246.909 72.352 246.321 72.88 246.321 73.828V74.668H245.121V73.66C245.121 72.052 246.309 71.296 248.049 71.296C249.717 71.296 250.941 72.052 250.941 73.66V74.344C250.941 76.012 248.613 76.288 248.589 77.908L248.565 79.408H247.425V77.872C247.425 76 249.741 75.472 249.741 74.284ZM248.661 82.18H247.353V80.86H248.661V82.18ZM16.143 98.408H14.943V87.464H16.143V92.036H17.667V87.464H18.867V98.408H17.667V93.044H16.143V98.408ZM12.531 97.352L8.64303 97.904V87.968H13.731V97.904H12.531V97.352ZM9.84303 88.976V96.716L12.531 96.332V88.976H9.84303ZM30.735 93.584H29.535V90.092H28.071V89.084H29.535V87.464H30.735V93.584ZM25.791 91.028H22.803C21.735 91.028 20.907 90.272 20.907 89.312C20.907 88.352 21.735 87.608 22.803 87.608H25.791C26.859 87.608 27.687 88.352 27.687 89.312C27.687 90.272 26.859 91.028 25.791 91.028ZM25.623 88.616H22.983C22.503 88.616 22.107 88.928 22.107 89.324C22.107 89.708 22.503 90.02 22.983 90.02H25.623C26.091 90.02 26.487 89.708 26.487 89.324C26.487 88.928 26.091 88.616 25.623 88.616ZM22.491 96.668V97.4H30.915V98.408H21.291V95.708H29.535V95.012H21.291V94.004H23.307L23.547 92.744H20.187V91.736H28.935V92.744H24.771L24.531 94.004H30.735V96.668H22.491ZM46.3327 98.408H45.1327V87.464H46.3327V98.408ZM39.4207 98.084C37.5967 98.084 36.2407 96.944 36.2407 95.264V90.392C36.2407 88.712 37.5967 87.572 39.4207 87.572C41.2447 87.572 42.6007 88.712 42.6007 90.392V95.264C42.6007 96.944 41.2447 98.084 39.4207 98.084ZM39.4207 97.076C40.5847 97.076 41.4007 96.392 41.4007 95.324V90.332C41.4007 89.288 40.5847 88.58 39.4207 88.58C38.2567 88.58 37.4407 89.288 37.4407 90.332V95.324C37.4407 96.392 38.2567 97.076 39.4207 97.076ZM57.1327 92.084V87.464H58.3327V98.408H57.1327V93.092H54.3127V95.264C54.3127 96.944 53.0167 98.084 51.2767 98.084C49.5367 98.084 48.2407 96.944 48.2407 95.264V90.392C48.2407 88.712 49.5367 87.572 51.2767 87.572C53.0167 87.572 54.3127 88.712 54.3127 90.392V92.084H57.1327ZM53.1127 95.324V90.332C53.1127 89.288 52.3567 88.58 51.2767 88.58C50.1967 88.58 49.4407 89.288 49.4407 90.332V95.324C49.4407 96.392 50.1967 97.076 51.2767 97.076C52.3567 97.076 53.1127 96.392 53.1127 95.324ZM70.2607 98.408H69.0607V87.464H70.2607V98.408ZM59.9527 97.868V96.572C61.2127 95.96 63.1207 94.208 63.1207 91.352V89.048H60.2647V88.04H67.1767V89.048H64.3207V91.352C64.3207 94.208 66.2287 95.96 67.4887 96.572V97.868C65.9887 97.28 64.2487 95.696 63.7207 93.86C63.1927 95.696 61.4527 97.28 59.9527 97.868ZM82.0687 91.424H72.6007V87.488H73.8007V90.416H82.0687V91.424ZM82.7527 93.824H71.8567V92.816H82.7527V93.824ZM82.1887 98.408H72.6007V94.76H73.8007V97.4H82.1887V98.408ZM97.9423 93.116H96.7423V87.464H97.9423V93.116ZM94.9063 92.552L87.9103 93.008V89.732H92.7703V88.724H87.9103V87.716H93.9703V90.692H89.1103V91.916L94.9063 91.544V92.552ZM98.1583 98.408H88.4143V95.528H96.7423V94.676H88.4143V93.668H97.9423V96.488H89.6143V97.4H98.1583V98.408ZM107.698 98.408H106.498V92.864H104.77V91.856H106.498V87.464H107.698V98.408ZM110.062 98.408H108.862V87.464H110.062V98.408ZM105.298 97.268L99.8383 97.904V92.156H102.874L103.198 88.976H99.8383V87.968H104.506L103.978 93.164H101.038V96.752L105.298 96.248V97.268ZM121.93 98.408H120.73V87.464H121.93V98.408ZM115.018 98.084C113.194 98.084 111.838 96.944 111.838 95.264V90.392C111.838 88.712 113.194 87.572 115.018 87.572C116.842 87.572 118.198 88.712 118.198 90.392V95.264C118.198 96.944 116.842 98.084 115.018 98.084ZM115.018 97.076C116.182 97.076 116.998 96.392 116.998 95.324V90.332C116.998 89.288 116.182 88.58 115.018 88.58C113.854 88.58 113.038 89.288 113.038 90.332V95.324C113.038 96.392 113.854 97.076 115.018 97.076ZM137.528 98.408H136.328V87.464H137.528V98.408ZM130.616 98.084C128.792 98.084 127.436 96.944 127.436 95.264V90.392C127.436 88.712 128.792 87.572 130.616 87.572C132.44 87.572 133.796 88.712 133.796 90.392V95.264C133.796 96.944 132.44 98.084 130.616 98.084ZM130.616 97.076C131.78 97.076 132.596 96.392 132.596 95.324V90.332C132.596 89.288 131.78 88.58 130.616 88.58C129.452 88.58 128.636 89.288 128.636 90.332V95.324C128.636 96.392 129.452 97.076 130.616 97.076ZM146.108 91.292H144.332V93.788H139.436V87.656H140.636V89.612H143.132V87.656H144.332V90.284H146.108V87.464H147.308V95.54H146.108V91.292ZM148.46 87.464H149.66V95.54H148.46V87.464ZM140.636 92.78H143.132V90.62H140.636V92.78ZM141.212 94.808V97.4H149.84V98.408H140.012V94.808H141.212ZM161.204 88.76H151.796V87.752H161.204V88.76ZM161.324 94.292H151.796V90.164H161.156V91.172H152.996V93.284H161.324V94.292ZM161.948 98.084H151.052V97.076H161.948V98.084ZM172.698 91.364V92.792H177.546V93.8H166.65V92.792H171.498V91.364H167.394V87.62H176.802V91.364H172.698ZM175.602 88.628H168.594V90.356H175.602V88.628ZM175.602 95.84H167.334V94.832H176.802V98.528H175.602V95.84ZM184.698 92.144V93.308H189.546V94.316H178.65V93.308H183.498V92.144H179.394V89.348H187.602V88.628H179.394V87.62H188.802V90.356H180.594V91.136H188.862V92.144H184.698ZM187.602 96.272H179.358V95.264H188.802V98.528H187.602V96.272ZM198.906 91.088H193.29C192.162 91.088 191.274 90.356 191.274 89.324C191.274 88.292 192.162 87.56 193.29 87.56H198.906C200.022 87.56 200.922 88.292 200.922 89.324C200.922 90.356 200.022 91.088 198.906 91.088ZM193.458 90.08H198.738C199.29 90.08 199.722 89.792 199.722 89.312C199.722 88.844 199.29 88.568 198.738 88.568H193.458C192.894 88.568 192.474 88.844 192.474 89.312C192.474 89.792 192.894 90.08 193.458 90.08ZM201.546 92.996H190.65V91.988H201.546V92.996ZM200.982 98.408H191.394V95.648H199.602V94.916H191.394V93.908H200.802V96.608H192.594V97.4H200.982V98.408ZM210.939 93.044L214.503 92.84V93.848L206.247 94.328V93.32L209.739 93.116V91.94H209.055C207.963 91.94 207.219 91.244 207.219 90.236C207.219 89.708 207.387 89.276 207.543 89.108H206.691V88.1H209.739V87.176H210.939V88.1H213.987V89.108H213.135C213.279 89.276 213.471 89.708 213.471 90.236C213.471 91.244 212.679 91.94 211.587 91.94H210.939V93.044ZM216.303 87.464V90.44H217.839V91.448H216.303V94.76H215.103V87.464H216.303ZM208.431 90.008C208.431 90.584 208.779 90.932 209.331 90.932H211.359C211.923 90.932 212.271 90.584 212.271 90.008C212.271 89.54 211.911 89.108 211.347 89.108H209.343C208.779 89.108 208.431 89.54 208.431 90.008ZM215.103 96.248H207.087V95.24H216.303V98.528H215.103V96.248ZM221.835 93.908C220.071 93.908 218.631 93.032 218.631 91.316V90.044C218.631 88.34 220.071 87.452 221.835 87.452C223.599 87.452 225.039 88.34 225.039 90.044V91.316C225.039 93.032 223.599 93.908 221.835 93.908ZM228.735 95.372H227.535V87.464H228.735V95.372ZM221.847 92.9C222.975 92.9 223.839 92.348 223.839 91.268V90.104C223.839 89.024 222.975 88.46 221.847 88.46C220.695 88.46 219.831 89.024 219.831 90.104V91.268C219.831 92.348 220.695 92.9 221.847 92.9ZM228.951 98.408H219.279V94.748H220.479V97.4H228.951V98.408ZM236.943 90.116H230.439V89.108H233.091V87.296H234.291V89.108H236.943V90.116ZM240.231 98.408H239.031V87.464H240.231V92.024H241.839V93.032H240.231V98.408ZM233.691 98.084C231.963 98.084 230.631 97.064 230.631 95.396V93.608C230.631 91.94 231.963 90.92 233.691 90.92C235.419 90.92 236.751 91.94 236.751 93.608V95.396C236.751 97.064 235.419 98.084 233.691 98.084ZM233.691 97.076C234.711 97.076 235.551 96.452 235.551 95.324V93.68C235.551 92.552 234.711 91.928 233.691 91.928C232.671 91.928 231.831 92.552 231.831 93.68V95.324C231.831 96.452 232.671 97.076 233.691 97.076ZM251.919 95.564H250.719L251.187 88.76H242.931V87.752H252.459L251.919 95.564ZM253.143 98.084H242.247V97.076H246.411V92.18H247.611V97.076H253.143V98.084ZM10.4718 109.8H9.27181V103.464H10.4718V105.948H12.1518V106.956H10.4718V109.8ZM0.883813 109.452V108.444C3.89581 108.324 5.82781 107.196 5.82781 104.724H0.943813V103.716H7.03981V104.388C7.03981 108.024 4.31581 109.332 0.883813 109.452ZM10.4718 114.528H9.27181V111.36H1.32781V110.352H10.4718V114.528ZM21.1255 108.072H23.1055V103.464H24.3055V114.408H23.1055V109.08H20.9095C20.1535 111.948 18.5575 113.436 16.4215 114.024V112.956C19.2175 112.02 20.2015 109.152 20.1895 104.976H16.4815V103.968H21.3895V104.736C21.3895 105.996 21.2935 107.1 21.1255 108.072ZM25.5655 114.408V103.464H26.7655V114.408H25.5655ZM31.7455 109.188C29.9815 109.188 28.5415 108.36 28.5415 106.716V105.924C28.5415 104.292 29.9815 103.452 31.7455 103.452C33.5095 103.452 34.9495 104.292 34.9495 105.924V106.716C34.9495 108.36 33.5095 109.188 31.7455 109.188ZM38.6455 109.44H37.4455V103.464H38.6455V109.44ZM31.7575 108.18C32.8855 108.18 33.7495 107.676 33.7495 106.668V105.984C33.7495 104.976 32.8855 104.46 31.7575 104.46C30.6055 104.46 29.7415 104.976 29.7415 105.984V106.668C29.7415 107.676 30.6055 108.18 31.7575 108.18ZM37.4455 114.048L29.1175 114.408V109.992H38.6455V114.408H37.4455V114.048ZM30.3175 111V113.352L37.4455 113.04V111H30.3175ZM45.4615 108.072H47.2135V103.464H48.4135V114.408H47.2135V109.08H45.4615V111.684C45.4615 113.112 44.4055 114.084 43.0015 114.084C41.5975 114.084 40.5415 113.112 40.5415 111.684V105.972C40.5415 104.544 41.5975 103.572 43.0015 103.572C44.4055 103.572 45.4615 104.544 45.4615 105.972V108.072ZM49.5655 114.408V103.464H50.7655V114.408H49.5655ZM44.2615 111.684V105.972C44.2615 105.144 43.7335 104.58 43.0015 104.58C42.2695 104.58 41.7415 105.144 41.7415 105.972V111.684C41.7415 112.536 42.2695 113.076 43.0015 113.076C43.7335 113.076 44.2615 112.536 44.2615 111.684ZM61.3615 108.528H58.5415V107.52H61.3615V103.464H62.5615V114.408H61.3615V108.528ZM52.2535 113.868V112.572C53.5255 111.804 55.3615 109.956 55.3615 107.112V103.776H56.5615V107.112C56.5615 109.956 58.3855 111.804 59.6575 112.572V113.868C58.1695 113.112 56.4535 111.408 55.9615 109.536C55.4575 111.408 53.7415 113.112 52.2535 113.868ZM68.3071 107.892V106.884C70.6111 106.836 72.5791 105.912 72.5791 104.832V104.7H68.4991V103.692H77.9071V104.7H73.8271V104.832C73.8271 105.912 75.7951 106.836 78.0991 106.884V107.892C75.7111 107.832 73.7671 107.076 73.2031 105.996C72.6391 107.076 70.6951 107.832 68.3071 107.892ZM72.6271 109.872H67.7551V108.864H78.6511V109.872H73.8271V112.116H72.6271V109.872ZM78.0871 114.408H68.4991V110.796H69.6991V113.4H78.0871V114.408ZM90.1591 114.408H88.9591V103.464H90.1591V114.408ZM85.2151 113.328L80.2111 113.904V103.932H81.4111V107.112H85.2151V103.932H86.4151V113.904H85.2151V113.328ZM81.4111 108.12V112.752L85.2151 112.308V108.12H81.4111ZM99.0751 105.444H91.8751V104.436H94.8751V103.176H96.0751V104.436H99.0751V105.444ZM101.811 111.576H100.611V103.464H101.811V106.644H103.347V107.652H101.811V111.576ZM92.1391 108.168C92.1391 106.908 93.0631 106.104 94.1431 106.104H96.8071C97.8871 106.104 98.8111 106.908 98.8111 108.168C98.8111 109.428 97.8871 110.232 96.8071 110.232H94.1431C93.0631 110.232 92.1391 109.428 92.1391 108.168ZM94.5391 109.224H96.4111C97.1911 109.224 97.6111 108.756 97.6111 108.168C97.6111 107.58 97.1911 107.112 96.4111 107.112H94.5391C93.7591 107.112 93.3391 107.58 93.3391 108.168C93.3391 108.756 93.7591 109.224 94.5391 109.224ZM102.051 114.408H92.7151V110.94H93.9151V113.4H102.051V114.408ZM117.505 104.628H108.097V103.62H117.505V104.628ZM117.625 108.192H108.097V105.144H117.445V106.152H109.297V107.184H117.625V108.192ZM118.249 110.148H107.353V109.14H118.249V110.148ZM116.305 112.128H108.037V111.12H117.505V114.528H116.305V112.128ZM128.641 107.724H125.797V108.768H119.809V103.656H121.009V105.132H124.597V103.656H125.797V104.676H128.641V103.464H129.841V109.2H128.641V107.724ZM128.641 106.716V105.684H125.797V106.716H128.641ZM121.009 107.76H124.597V106.14H121.009V107.76ZM121.513 112.536V113.4H130.057V114.408H120.313V111.576H128.641V110.76H120.313V109.752H129.841V112.536H121.513ZM138.673 105.444H131.473V104.436H134.473V103.176H135.673V104.436H138.673V105.444ZM141.409 111.576H140.209V103.464H141.409V106.644H142.945V107.652H141.409V111.576ZM131.737 108.168C131.737 106.908 132.661 106.104 133.741 106.104H136.405C137.485 106.104 138.409 106.908 138.409 108.168C138.409 109.428 137.485 110.232 136.405 110.232H133.741C132.661 110.232 131.737 109.428 131.737 108.168ZM134.137 109.224H136.009C136.789 109.224 137.209 108.756 137.209 108.168C137.209 107.58 136.789 107.112 136.009 107.112H134.137C133.357 107.112 132.937 107.58 132.937 108.168C132.937 108.756 133.357 109.224 134.137 109.224ZM141.649 114.408H132.313V110.94H133.513V113.4H141.649V114.408ZM156.166 106.824H153.262V105.816H156.166V103.464H157.366V111.564H156.166V106.824ZM147.142 110.004V108.9C148.534 108.42 149.926 107.16 149.926 105.48V103.596H151.126V105.48C151.126 107.16 152.518 108.42 153.91 108.9V110.004C152.446 109.572 150.934 108.492 150.526 107.184C150.118 108.492 148.582 109.572 147.142 110.004ZM157.582 114.408H148.054V110.868H149.254V113.4H157.582V114.408ZM159.694 103.62H169.102V106.956H159.694V103.62ZM160.894 105.948H167.902V104.628H160.894V105.948ZM169.846 107.712V108.72H164.998V109.908H169.102V112.608H160.894V113.4H169.282V114.408H159.694V111.648H167.902V110.916H159.694V109.908H163.798V108.72H158.95V107.712H169.846ZM181.222 109.572H171.694V103.752H181.102V104.76H172.894V108.564H181.222V109.572ZM181.846 114.084H170.95V113.076H175.798V110.22H176.998V113.076H181.846V114.084ZM191.42 109.068L195.164 108.852V109.86L186.476 110.364V109.356L190.22 109.14V107.94H189.416C188.324 107.94 187.58 107.244 187.58 106.236C187.58 105.708 187.748 105.276 187.904 105.108H187.052V104.1H190.22V103.176H191.42V104.1H194.588V105.108H193.736C193.88 105.276 194.072 105.708 194.072 106.236C194.072 107.244 193.28 107.94 192.188 107.94H191.42V109.068ZM195.764 110.76V103.464H196.964V110.76H195.764ZM188.792 106.008C188.792 106.584 189.14 106.932 189.692 106.932H191.96C192.524 106.932 192.872 106.584 192.872 106.008C192.872 105.54 192.512 105.108 191.948 105.108H189.704C189.14 105.108 188.792 105.54 188.792 106.008ZM195.764 112.248H187.532V111.24H196.964V114.528H195.764V112.248ZM208.76 107.412H199.292V103.62H208.7V104.58H200.492V106.452H208.76V107.412ZM209.444 109.704H198.548V108.696H209.444V109.704ZM208.7 114.528H207.5V111.852H199.256V110.844H208.7V114.528ZM216.164 106.116H210.74V105.108H212.852V103.296H214.052V105.108H216.164V106.116ZM218.444 114.408H217.244V103.464H218.444V108.036H219.956V103.464H221.156V114.408H219.956V109.044H218.444V114.408ZM210.932 111.756V109.248C210.932 107.808 212.024 106.92 213.452 106.92C214.88 106.92 215.972 107.808 215.972 109.248V111.756C215.972 113.196 214.88 114.084 213.452 114.084C212.024 114.084 210.932 113.196 210.932 111.756ZM213.452 113.076C214.172 113.076 214.772 112.584 214.772 111.684V109.32C214.772 108.42 214.172 107.928 213.452 107.928C212.732 107.928 212.132 108.42 212.132 109.32V111.684C212.132 112.584 212.732 113.076 213.452 113.076ZM236.298 109.812H226.89V103.692H228.09V105.564H235.098V103.692H236.298V109.812ZM228.09 106.572V108.804H235.098V106.572H228.09ZM237.042 114.084H226.146V113.076H230.994V110.46H232.194V113.076H237.042V114.084ZM245.118 108.576H242.982V107.568H245.118V103.464H246.318V114.408H245.118V108.576ZM248.754 114.408H247.554V103.464H248.754V114.408ZM238.266 113.868V112.488C239.346 111.6 240.402 109.884 240.402 107.28V103.776H241.602V107.28C241.602 109.884 242.658 111.6 243.738 112.488V113.868C242.586 113.16 241.362 111.696 241.002 109.98C240.642 111.696 239.418 113.16 238.266 113.868ZM257.514 109.8H253.674C251.91 109.8 250.662 108.468 250.662 106.752C250.662 105.024 251.91 103.692 253.674 103.692H257.514C259.278 103.692 260.526 105.024 260.526 106.752C260.526 108.468 259.278 109.8 257.514 109.8ZM253.806 108.792H257.382C258.51 108.792 259.326 107.952 259.326 106.752C259.326 105.552 258.51 104.7 257.382 104.7H253.806C252.69 104.7 251.862 105.552 251.862 106.752C251.862 107.952 252.69 108.792 253.806 108.792ZM261.042 114.084H250.146V113.076H252.882V110.34H254.082V113.076H257.13V110.34H258.33V113.076H261.042V114.084ZM262.782 111.384L262.674 108.024V103.344H263.922V108.024L263.814 111.384H262.782ZM263.946 114.18H262.638V112.86H263.946V114.18Z" fill="#1A619F"/>
</svg>
