<svg width="283" height="41" viewBox="0 0 283 41" fill="none" xmlns="http://www.w3.org/2000/svg">
<path d="M12.1098 14.3V17.92L0.209766 18.72V1.34H11.2098V4.74H4.60977V14.86L12.1098 14.3ZM12.6098 19.32V0.74H17.0098V7.48H19.4898V11.3H17.0098V19.32H12.6098ZM20.5098 19.32V12.46H37.5098V19.32H33.2698V18.8L20.5098 19.32ZM24.7298 15.1V16.3L33.2698 16.02V15.1H24.7298ZM19.8098 11.36V8.32H38.2098V11.36H19.8098ZM20.3098 4.06C20.3098 2.2 21.8098 0.64 23.6498 0.64H34.3498C36.1898 0.64 37.7098 2.2 37.7098 4.06C37.7098 5.9 36.1898 7.42 34.3498 7.42H23.6498C21.8098 7.42 20.3098 5.9 20.3098 4.06ZM24.5298 4.08C24.5298 4.38 24.7298 4.6 24.9898 4.6H33.1098C33.3698 4.6 33.5698 4.38 33.5698 4.08C33.5698 3.78 33.3698 3.54 33.1098 3.54H24.9898C24.7298 3.54 24.5298 3.78 24.5298 4.08ZM47.0459 13.3V10.92H63.4059V16.1H51.4459V16.86H63.8059V19.32H47.0459V14H59.0059V13.3H47.0459ZM58.5059 6.28V9.4L46.2059 10.2V1.04H57.0859V4.14H50.6059V6.84L58.5059 6.28ZM59.0059 10.44V0.74H63.4059V3.62H65.4859V7.04H63.4059V10.44H59.0059ZM72.202 14.08V5.98C72.202 3.04 74.742 1.04 77.842 1.04C80.962 1.04 83.522 3.04 83.522 5.98V14.08C83.522 17.02 80.962 19.02 77.842 19.02C74.742 19.02 72.202 17.02 72.202 14.08ZM85.482 19.32V0.74H89.982V19.32H85.482ZM76.462 5.78V14.28C76.462 14.98 77.042 15.64 77.902 15.64C78.762 15.64 79.362 14.98 79.362 14.28V5.78C79.362 5.12 78.762 4.4 77.902 4.4C77.042 4.4 76.462 5.12 76.462 5.78ZM92.202 14.08V5.98C92.202 3.04 94.602 1.04 97.542 1.04C100.502 1.04 102.902 3.04 102.902 5.98V7.68H105.582V0.74H109.982V19.32H105.582V11.3H102.902V14.08C102.902 17.02 100.502 19.02 97.542 19.02C94.602 19.02 92.202 17.02 92.202 14.08ZM96.222 5.74V14.32C96.222 15.02 96.782 15.64 97.582 15.64C98.382 15.64 98.962 15.02 98.962 14.32V5.74C98.962 5.08 98.382 4.4 97.582 4.4C96.782 4.4 96.222 5.08 96.222 5.74ZM113.042 13.2V10.92H129.982V16.1H117.442V16.82H130.282V19.32H113.042V13.92H125.562V13.2H113.042ZM112.202 4.02V1.04H124.142V4.02H120.202C120.462 6.1 122.202 6.98 124.342 7.14V10.2C121.602 10.14 119.462 9.32 118.162 7.64C116.862 9.32 114.742 10.14 112.002 10.2V7.14C114.162 6.98 115.822 6.1 116.142 4.02H112.202ZM125.482 10.42V0.74H129.982V10.42H125.482ZM281.694 8V11.5H264.494V1.04H281.494V4.48H268.954V8H281.694ZM263.794 19.02V15.42H270.734V12.1H275.254V15.42H282.194V19.02H263.794ZM55.9031 31.22V22.04H66.5831V31.22H55.9031ZM68.7031 31.54V21.74H73.1031V24.68H75.1831V28.2H73.1031V31.54H68.7031ZM64.2831 37.34V40.32H56.5431V32.46H60.6831V37.34H64.2831ZM71.6631 40.42H66.8231C65.6231 40.42 64.6031 39.28 64.6031 37.92C64.6031 36.56 65.6231 35.42 66.8231 35.42H71.6631C72.8831 35.42 73.9031 36.56 73.9031 37.92C73.9031 39.28 72.8831 40.42 71.6631 40.42ZM64.4431 35.02V32.8H67.3231V31.94H71.1231V32.8H73.9431V35.02H64.4431ZM60.1231 25.24V28.22H62.4431V25.24H60.1231ZM67.7631 37.92C67.7631 38.18 67.9431 38.38 68.3231 38.38H70.1631C70.5431 38.38 70.7231 38.18 70.7231 37.92C70.7231 37.66 70.5431 37.46 70.1631 37.46H68.3231C67.9431 37.46 67.7631 37.66 67.7631 37.92ZM75.9031 35.08V26.98C75.9031 24.04 78.4431 22.04 81.5431 22.04C84.6631 22.04 87.2231 24.04 87.2231 26.98V35.08C87.2231 38.02 84.6631 40.02 81.5431 40.02C78.4431 40.02 75.9031 38.02 75.9031 35.08ZM89.1831 40.32V21.74H93.6831V40.32H89.1831ZM80.1631 26.78V35.28C80.1631 35.98 80.7431 36.64 81.6031 36.64C82.4631 36.64 83.0631 35.98 83.0631 35.28V26.78C83.0631 26.12 82.4631 25.4 81.6031 25.4C80.7431 25.4 80.1631 26.12 80.1631 26.78ZM115.179 40.32V21.74H119.679V40.32H115.179ZM101.799 25.94V22.34H113.599V25.34C113.599 34.08 108.639 38.8 101.699 39.92V36.1C106.379 34.92 109.439 31.7 109.439 25.94H101.799ZM131.539 40.32V21.74H135.099V28.56H136.179V21.74H139.899V40.32H136.179V32.18H135.099V40.32H131.539ZM131.039 35.38V38.92L121.899 39.72V22.34H130.439V25.74H125.699V35.86L131.039 35.38ZM151.839 40.32V21.74H155.339V28.56H156.319V21.74H159.899V40.32H156.319V32.18H155.339V40.32H151.839ZM141.899 36.08V31.4C141.899 29.1 143.999 27.44 146.319 27.44C148.659 27.44 150.759 29.1 150.759 31.4V36.08C150.759 38.38 148.659 40.04 146.319 40.04C143.999 40.04 141.899 38.38 141.899 36.08ZM141.699 26.94V23.74H144.419V21.54H148.219V23.74H150.939V26.94H141.699ZM145.299 31.58V35.88C145.299 36.42 145.779 36.88 146.359 36.88C146.939 36.88 147.399 36.42 147.399 35.88V31.58C147.399 31.02 146.939 30.58 146.359 30.58C145.779 30.58 145.299 31.02 145.299 31.58ZM185.195 25.44H178.955C179.275 26.6 180.955 28.24 185.395 28.18V31.5C180.995 31.5 178.135 30.24 176.695 28.4C175.235 30.24 172.395 31.5 167.995 31.5V28.18C172.395 28.24 174.155 26.6 174.415 25.44H168.195V22.04H185.195V25.44ZM167.495 35.64V32.28H185.895V35.64H178.955V40.52H174.435V35.64H167.495ZM187.695 39.72V35.4C190.135 33.5 190.575 31.28 190.515 25.46V22.14H194.215V25.74C194.215 31.36 194.615 33.52 197.035 35.4V39.72C194.895 38.5 193.375 37.2 192.355 35.14C191.335 37.2 189.835 38.5 187.695 39.72ZM195.295 31.64V28.04H198.035V21.74H201.535V40.32H198.035V31.64H195.295ZM202.315 40.32V21.74H205.895V40.32H202.315ZM220.355 32.6H213.015C210.075 32.6 207.995 30.22 207.995 27.28C207.995 24.32 210.075 21.94 213.015 21.94H220.355C223.315 21.94 225.395 24.32 225.395 27.28C225.395 30.22 223.315 32.6 220.355 32.6ZM207.495 40.02V36.42H210.775V33.28H214.835V36.42H218.635V33.28H222.695V36.42H225.895V40.02H207.495ZM212.495 27.28C212.495 28.4 213.235 29.22 214.335 29.22H219.075C220.175 29.22 220.915 28.4 220.915 27.28C220.915 26.18 220.175 25.36 219.075 25.36H214.335C213.235 25.36 212.495 26.18 212.495 27.28ZM227.895 29.54V21.74H232.095V29.54L231.895 35.14H228.095L227.895 29.54ZM228.095 40.32V36.56H231.895V40.32H228.095Z" fill="white"/>
<path d="M151.478 10.76V0.74H155.978V10.76H151.478ZM138.198 3.58V1.04H149.498V6.76H142.418V7.74L150.998 7.18V9.84L138.198 10.66V4.4H145.278V3.58H138.198ZM139.038 13.5V11.26H155.978V16.22H143.458V16.96H156.278V19.32H139.038V14.18H151.558V13.5H139.038ZM158.198 4.84V1.34H166.558L165.558 11.28H162.098V14.76L167.838 14.1V17.7L158.198 18.72V7.96H161.998L162.318 4.84H158.198ZM166.418 10.44V6.84H168.338V0.74H171.838V19.32H168.338V10.44H166.418ZM172.618 19.32V0.74H176.198V19.32H172.618ZM178.198 14.08V5.98C178.198 3.04 180.738 1.04 183.838 1.04C186.958 1.04 189.518 3.04 189.518 5.98V14.08C189.518 17.02 186.958 19.02 183.838 19.02C180.738 19.02 178.198 17.02 178.198 14.08ZM191.478 19.32V0.74H195.978V19.32H191.478ZM182.458 5.78V14.28C182.458 14.98 183.038 15.64 183.898 15.64C184.758 15.64 185.358 14.98 185.358 14.28V5.78C185.358 5.12 184.758 4.4 183.898 4.4C183.038 4.4 182.458 5.12 182.458 5.78ZM204.194 14.08V5.98C204.194 3.04 206.734 1.04 209.834 1.04C212.954 1.04 215.514 3.04 215.514 5.98V14.08C215.514 17.02 212.954 19.02 209.834 19.02C206.734 19.02 204.194 17.02 204.194 14.08ZM217.474 19.32V0.74H221.974V19.32H217.474ZM208.454 5.78V14.28C208.454 14.98 209.034 15.64 209.894 15.64C210.754 15.64 211.354 14.98 211.354 14.28V5.78C211.354 5.12 210.754 4.4 209.894 4.4C209.034 4.4 208.454 5.12 208.454 5.78ZM224.194 12.08V0.94H227.674V3.18H229.494V0.94H232.834V4.84H234.334V0.74H237.834V14.52H234.334V8.24H232.834V12.08H224.194ZM242.494 16.04V19.32H225.034V13.08H229.494V16.04H242.494ZM238.614 14.52V0.74H242.194V14.52H238.614ZM227.674 6.46V8.8H229.494V6.46H227.674ZM243.794 19.02V15.5H262.194V19.02H243.794ZM261.694 9.4V12.7H244.494V5.12H261.414V8.26H248.954V9.4H261.694ZM244.494 4.28V1.04H261.494V4.28H244.494Z" fill="#A5D912"/>
</svg>
