<svg xmlns="http://www.w3.org/2000/svg" width="1000.379" height="354.51099" viewBox="0 0 264.68361 93.797701"><path d="M136.777 29.982C136.777 11.21 126.875 0 106.795 0H30.017C9.902 0 0 11.209 0 29.982v33.833C0 82.59 9.902 93.798 30.017 93.798h76.778c20.08 0 29.982-11.21 29.982-29.983zm0 0" style="fill:#e20177"/><path d="M68.32 84.411c-9.077 0-16.332-5.467-18.602-13.444L37.1 31.736c-.825-2.408-1.926-3.576-3.439-3.576-1.685 0-2.647 1.17-2.647 3.576v38.681H15.438V28.022c0-9.146 7.874-15.438 18.086-15.438 8.974 0 15.472 5.158 17.467 11.415l14.028 43.84c.482 1.581 1.72 2.407 3.3 2.407 1.617 0 2.855-.826 3.336-2.408L85.683 24c1.995-6.257 8.493-11.415 17.467-11.415 10.212 0 18.086 6.292 18.086 15.438v42.395H105.66V31.736c0-2.408-.963-3.576-2.647-3.576-1.513 0-2.613 1.17-3.439 3.576L86.956 70.967c-2.27 7.977-9.525 13.444-18.636 13.444" style="fill:#fff"/><path d="M236.936 15.266v39.713c0 10.109 6.12 16.676 15.576 16.676h11.931V60.584h-11.071c-3.61-.2-4.47-2.303-4.539-4.917V32.974h15.85V22.968h-15.85v-7.702zM165.281 26.338c-3.61 0-4.47 2.268-4.504 4.882v40.332H148.88v-39.61c0-10.143 6.12-16.676 15.542-16.676h6.017c9.455 0 15.575 6.533 15.575 16.676v39.61h-11.896V31.22c-.035-2.613-.86-4.882-4.539-4.882zM205.579 39.678V31.22c.035-2.613.86-4.917 4.504-4.917h2.75c3.645 0 4.47 2.303 4.505 4.917l-.07 8.458zm23.655-7.736c0-10.109-6.12-16.676-15.575-16.676h-4.401c-9.456 0-15.576 6.567-15.576 16.676v23.037c0 10.109 6.12 16.676 15.541 16.676h17.845V60.584h-16.985c-3.68-.2-4.504-2.373-4.504-5.055v-4.573h18.223c1.581 0 5.432-.274 5.432-4.332zm0 0" style="fill:#e20177"/></svg>