<svg width="93" height="86" viewBox="0 0 93 86" fill="none" xmlns="http://www.w3.org/2000/svg">
<path d="M40.0928 9.29114C42.8431 4.9654 49.1569 4.9654 51.9072 9.29113L70.3386 38.2811C73.3015 42.9413 69.9537 49.0368 64.4314 49.0368H27.5686C22.0462 49.0368 18.6985 42.9413 21.6614 38.2811L40.0928 9.29114Z" fill="#FF3C00"/>
<path d="M48.5693 13.9544L47.8947 34.5422H43.7127L43.0382 13.9544H48.5693ZM48.8728 40.123C48.8728 40.9624 48.5918 41.677 48.0297 42.2669C47.4675 42.8794 46.7256 43.1857 45.8037 43.1857C44.8819 43.1857 44.1399 42.8794 43.5778 42.2669C43.0157 41.677 42.7346 40.9624 42.7346 40.123C42.7346 39.2836 43.0157 38.569 43.5778 37.9792C44.1399 37.3666 44.8819 37.0604 45.8037 37.0604C46.7256 37.0604 47.4675 37.3666 48.0297 37.9792C48.5918 38.569 48.8728 39.2836 48.8728 40.123Z" fill="white"/>
<path d="M6.463 73.617C3.726 73.617 1.495 71.386 1.495 68.649C1.495 65.912 3.726 63.681 6.463 63.681H16.537C19.274 63.681 21.505 65.912 21.505 68.649C21.505 71.386 19.274 73.617 16.537 73.617H6.463ZM13.616 84.933V79.252H9.867L8.579 84.933H3.496L4.784 79.252H0.92V75.112H22.08V79.252H18.584V84.933H13.616ZM7.498 69.753H15.502C16.123 69.753 16.583 69.293 16.583 68.672C16.583 68.051 16.123 67.591 15.502 67.591H7.498C6.877 67.591 6.44 68.097 6.44 68.672C6.44 69.293 6.877 69.753 7.498 69.753ZM24.61 71.455V69.27C24.61 65.406 27.531 63.451 31.096 63.451C34.684 63.451 37.605 65.406 37.605 69.27V71.455C37.605 75.296 34.684 77.159 31.096 77.159C27.531 77.159 24.61 75.296 24.61 71.455ZM39.652 84.818V63.451H44.827V84.818H39.652ZM23.92 84.473V80.333L39.077 79.413V83.553L23.92 84.473ZM29.394 68.994V71.685C29.394 72.766 30.153 73.41 31.096 73.41C32.085 73.41 32.867 72.766 32.867 71.685V68.994C32.867 67.913 32.085 67.2 31.096 67.2C30.153 67.2 29.394 67.913 29.394 68.994ZM47.15 84.128V78.7C49.611 77.044 51.52 74.767 51.52 68.028V63.911H56.511V68.028C56.511 74.767 58.42 77.044 60.881 78.7V84.128C57.96 82.909 55.591 80.747 54.004 77.734C52.44 80.747 50.025 82.909 47.15 84.128ZM62.1 84.818V63.451H67.16V71.202H69.552V75.595H67.16V84.818H62.1ZM71.116 80.885C71.116 78.493 72.979 76.814 75.463 76.814H86.227C88.734 76.814 90.62 78.493 90.62 80.885C90.62 83.185 88.734 84.933 86.227 84.933H75.463C72.979 84.933 71.116 83.185 71.116 80.885ZM79.994 75.733H73.692C71.921 75.733 70.38 74.054 70.38 72.076C70.38 70.075 71.921 68.396 73.692 68.396H79.994C81.765 68.396 83.306 70.075 83.306 72.076C83.306 74.054 81.765 75.733 79.994 75.733ZM85.1 76.354V63.451H90.16V67.476H92.552V71.501H90.16V76.354H85.1ZM70.15 67.752V64.647H74.175V62.991H79.465V64.647H83.49V67.752H70.15ZM77.073 81.575H84.594C85.238 81.575 85.56 81.322 85.56 80.862C85.56 80.402 85.238 80.149 84.594 80.149H77.073C76.521 80.149 76.199 80.402 76.199 80.862C76.199 81.322 76.521 81.575 77.073 81.575ZM74.52 72.076C74.52 72.375 74.727 72.697 75.095 72.697H78.683C79.051 72.697 79.258 72.375 79.258 72.076C79.258 71.731 79.051 71.432 78.683 71.432H75.095C74.727 71.432 74.52 71.731 74.52 72.076Z" fill="white"/>
</svg>
