<svg width="39" height="40" viewBox="0 0 39 40" fill="none" xmlns="http://www.w3.org/2000/svg">
<rect x="0.5" y="1" width="38" height="38" stroke="#D9D9D9"/>
<path fill-rule="evenodd" clip-rule="evenodd" d="M29.4999 12.4657C30.1808 11.7849 30.1808 10.6809 29.4999 10C28.819 9.31911 27.715 9.31911 27.0341 10L19.4999 17.5342L11.9658 10.0001C11.2849 9.31918 10.1809 9.31918 9.50004 10.0001C8.81915 10.681 8.81915 11.7849 9.50004 12.4658L17.0342 20L9.49999 27.5342C8.81909 28.2151 8.81909 29.319 9.49999 29.9999C10.1809 30.6808 11.2848 30.6808 11.9657 29.9999L19.4999 22.4657L27.0342 30C27.7151 30.6809 28.819 30.6809 29.4999 30C30.1808 29.3191 30.1808 28.2151 29.4999 27.5342L21.9657 20L29.4999 12.4657Z" fill="#D9D9D9"/>
</svg>
