<svg width="291" height="56" viewBox="0 0 291 56" fill="none" xmlns="http://www.w3.org/2000/svg">
<path d="M58.2614 32.728V30.168H72.1334V35.816H68.4534V32.728H58.2614ZM57.7334 29.528V20.952H60.9494V26.456L65.2854 25.992V28.728L57.7334 29.528ZM62.9814 25.192V22.696H65.8454V20.792H68.6454V29.768H65.8454V25.192H62.9814ZM69.2694 29.768V20.792H72.1334V29.768H69.2694ZM73.8134 26.6V24.104C77.2214 24.104 78.9814 22.568 78.9814 21.032V20.632H82.5814V21.032C82.5814 22.568 84.3414 24.152 87.7334 24.152V26.6C84.1334 26.6 81.9894 25.56 80.7574 24.152C79.5254 25.56 77.3334 26.6 73.8134 26.6ZM87.8134 33.128V35.656H73.9734V30.792H77.4454V33.128H87.8134ZM73.4134 30.04V27.4H88.1334V30.04H73.4134ZM97.6854 35.656V20.792H100.485V26.248H101.269V20.792H104.133V35.656H101.269V29.144H100.485V35.656H97.6854ZM89.8934 28.904V26.168H93.8614C93.9414 25.48 93.9734 24.84 93.9734 24.152H89.6534V21.272H97.0294V23.352C97.0294 31.464 94.0214 34.264 89.5734 35.336V32.36C91.4774 31.8 92.5814 30.52 93.2214 28.904H89.8934ZM105.573 35.176V31.4C107.285 30.248 108.741 28.664 108.741 23.976V21.112H112.277V23.976C112.277 28.664 113.733 30.248 115.445 31.4V35.176C113.397 34.152 111.653 32.792 110.501 30.632C109.349 32.792 107.621 34.152 105.573 35.176ZM116.357 35.656V20.792H119.957V35.656H116.357ZM126.53 33.192C126.53 31.784 127.73 30.632 129.218 30.632H137.906C139.378 30.632 140.61 31.784 140.61 33.192C140.61 34.6 139.378 35.736 137.906 35.736H129.218C127.73 35.736 126.53 34.6 126.53 33.192ZM140.37 23.72H135.426C135.762 24.44 137.202 25.048 140.53 25V27.176C136.898 27.176 134.722 26.6 133.57 25.432C132.418 26.6 130.242 27.176 126.61 27.176V25C129.922 25.048 131.362 24.44 131.698 23.72H126.77V21.512H131.778V20.472H135.394V21.512H140.37V23.72ZM126.21 30.152V27.928H131.874V26.584H135.25V27.928H140.93V30.152H126.21ZM129.746 33.144C129.746 33.336 129.906 33.528 130.114 33.528H136.946C137.154 33.528 137.314 33.336 137.314 33.144C137.314 32.952 137.154 32.76 136.946 32.76H130.114C129.906 32.76 129.746 32.952 129.746 33.144ZM149.999 28.936V26.376L151.055 26.296C151.535 26.248 152.063 25.88 152.063 25.368V23.96C152.063 23.448 151.647 23.032 151.135 23.032C150.623 23.032 150.207 23.448 150.207 23.96V25.128H147.007V24.12C147.007 21.848 148.879 20.632 151.135 20.632C153.391 20.632 155.263 21.848 155.263 24.12V25.208C155.263 26.424 154.783 27.176 154.015 27.64C154.863 28.104 155.423 28.872 155.423 30.104V32.328C155.423 34.6 153.391 35.816 151.135 35.816C148.879 35.816 146.847 34.6 146.847 32.328V30.584H150.207V32.328C150.207 32.84 150.623 33.256 151.135 33.256C151.647 33.256 152.063 32.84 152.063 32.328V29.944C152.063 29.432 151.487 29.016 150.975 29.016L149.999 28.936ZM156.538 32.328V24.12C156.538 21.848 158.41 20.632 160.666 20.632C162.922 20.632 164.794 21.848 164.794 24.12V32.328C164.794 34.6 162.922 35.816 160.666 35.816C158.41 35.816 156.538 34.6 156.538 32.328ZM159.738 24.12V32.328C159.738 32.84 160.154 33.256 160.666 33.256C161.178 33.256 161.594 32.84 161.594 32.328V24.12C161.594 23.608 161.178 23.192 160.666 23.192C160.154 23.192 159.738 23.608 159.738 24.12ZM166.39 25.544V24.376C166.39 22.024 168.31 20.792 170.662 20.792C172.678 20.792 174.39 21.704 174.822 23.464H177.11V20.792H180.63V29.544H177.11V26.2H174.87C174.534 28.12 172.774 29.096 170.662 29.096C168.31 29.096 166.39 27.896 166.39 25.544ZM166.902 32.584V29.944H180.63V35.736H176.95V32.584H166.902ZM169.606 24.12V25.784C169.606 26.408 170.07 26.792 170.694 26.792C171.318 26.792 171.798 26.408 171.798 25.784V24.12C171.798 23.496 171.318 23.096 170.694 23.096C170.07 23.096 169.606 23.496 169.606 24.12ZM187.187 31.464V24.984C187.187 22.632 189.219 21.032 191.699 21.032C194.195 21.032 196.243 22.632 196.243 24.984V31.464C196.243 33.816 194.195 35.416 191.699 35.416C189.219 35.416 187.187 33.816 187.187 31.464ZM197.811 35.656V20.792H201.411V35.656H197.811ZM190.595 24.824V31.624C190.595 32.184 191.059 32.712 191.747 32.712C192.435 32.712 192.915 32.184 192.915 31.624V24.824C192.915 24.296 192.435 23.72 191.747 23.72C191.059 23.72 190.595 24.296 190.595 24.824ZM203.187 29.864V20.952H205.971V22.744H207.427V20.952H210.099V24.072H211.299V20.792H214.099V31.816H211.299V26.792H210.099V29.864H203.187ZM217.827 33.032V35.656H203.859V30.664H207.427V33.032H217.827ZM214.723 31.816V20.792H217.587V31.816H214.723ZM205.971 25.368V27.24H207.427V25.368H205.971ZM218.867 35.416V32.6H233.587V35.416H218.867ZM233.187 27.72V30.36H219.427V24.296H232.963V26.808H222.995V27.72H233.187ZM219.427 23.624V21.032H233.027V23.624H219.427Z" fill="#909090"/>
</svg>
