<svg width="289" height="56" viewBox="0 0 289 56" fill="none" xmlns="http://www.w3.org/2000/svg">
<rect x="2" y="1.5" width="285" height="53" rx="26.5" stroke="white" stroke-opacity="0.4" stroke-width="3"/>
<path d="M57.2614 32.728V30.168H71.1334V35.816H67.4534V32.728H57.2614ZM56.7334 29.528V20.952H59.9494V26.456L64.2854 25.992V28.728L56.7334 29.528ZM61.9814 25.192V22.696H64.8454V20.792H67.6454V29.768H64.8454V25.192H61.9814ZM68.2694 29.768V20.792H71.1334V29.768H68.2694ZM72.8134 26.6V24.104C76.2214 24.104 77.9814 22.568 77.9814 21.032V20.632H81.5814V21.032C81.5814 22.568 83.3414 24.152 86.7334 24.152V26.6C83.1334 26.6 80.9894 25.56 79.7574 24.152C78.5254 25.56 76.3334 26.6 72.8134 26.6ZM86.8134 33.128V35.656H72.9734V30.792H76.4454V33.128H86.8134ZM72.4134 30.04V27.4H87.1334V30.04H72.4134ZM96.6854 35.656V20.792H99.4854V26.248H100.269V20.792H103.133V35.656H100.269V29.144H99.4854V35.656H96.6854ZM88.8934 28.904V26.168H92.8614C92.9414 25.48 92.9734 24.84 92.9734 24.152H88.6534V21.272H96.0294V23.352C96.0294 31.464 93.0214 34.264 88.5734 35.336V32.36C90.4774 31.8 91.5814 30.52 92.2214 28.904H88.8934ZM104.573 35.176V31.4C106.285 30.248 107.741 28.664 107.741 23.976V21.112H111.277V23.976C111.277 28.664 112.733 30.248 114.445 31.4V35.176C112.397 34.152 110.653 32.792 109.501 30.632C108.349 32.792 106.621 34.152 104.573 35.176ZM115.357 35.656V20.792H118.957V35.656H115.357ZM125.53 33.192C125.53 31.784 126.73 30.632 128.218 30.632H136.906C138.378 30.632 139.61 31.784 139.61 33.192C139.61 34.6 138.378 35.736 136.906 35.736H128.218C126.73 35.736 125.53 34.6 125.53 33.192ZM139.37 23.72H134.426C134.762 24.44 136.202 25.048 139.53 25V27.176C135.898 27.176 133.722 26.6 132.57 25.432C131.418 26.6 129.242 27.176 125.61 27.176V25C128.922 25.048 130.362 24.44 130.698 23.72H125.77V21.512H130.778V20.472H134.394V21.512H139.37V23.72ZM125.21 30.152V27.928H130.874V26.584H134.25V27.928H139.93V30.152H125.21ZM128.746 33.144C128.746 33.336 128.906 33.528 129.114 33.528H135.946C136.154 33.528 136.314 33.336 136.314 33.144C136.314 32.952 136.154 32.76 135.946 32.76H129.114C128.906 32.76 128.746 32.952 128.746 33.144ZM148.999 28.936V26.376L150.055 26.296C150.535 26.248 151.063 25.88 151.063 25.368V23.96C151.063 23.448 150.647 23.032 150.135 23.032C149.623 23.032 149.207 23.448 149.207 23.96V25.128H146.007V24.12C146.007 21.848 147.879 20.632 150.135 20.632C152.391 20.632 154.263 21.848 154.263 24.12V25.208C154.263 26.424 153.783 27.176 153.015 27.64C153.863 28.104 154.423 28.872 154.423 30.104V32.328C154.423 34.6 152.391 35.816 150.135 35.816C147.879 35.816 145.847 34.6 145.847 32.328V30.584H149.207V32.328C149.207 32.84 149.623 33.256 150.135 33.256C150.647 33.256 151.063 32.84 151.063 32.328V29.944C151.063 29.432 150.487 29.016 149.975 29.016L148.999 28.936ZM155.538 32.328V24.12C155.538 21.848 157.41 20.632 159.666 20.632C161.922 20.632 163.794 21.848 163.794 24.12V32.328C163.794 34.6 161.922 35.816 159.666 35.816C157.41 35.816 155.538 34.6 155.538 32.328ZM158.738 24.12V32.328C158.738 32.84 159.154 33.256 159.666 33.256C160.178 33.256 160.594 32.84 160.594 32.328V24.12C160.594 23.608 160.178 23.192 159.666 23.192C159.154 23.192 158.738 23.608 158.738 24.12ZM165.39 25.544V24.376C165.39 22.024 167.31 20.792 169.662 20.792C171.678 20.792 173.39 21.704 173.822 23.464H176.11V20.792H179.63V29.544H176.11V26.2H173.87C173.534 28.12 171.774 29.096 169.662 29.096C167.31 29.096 165.39 27.896 165.39 25.544ZM165.902 32.584V29.944H179.63V35.736H175.95V32.584H165.902ZM168.606 24.12V25.784C168.606 26.408 169.07 26.792 169.694 26.792C170.318 26.792 170.798 26.408 170.798 25.784V24.12C170.798 23.496 170.318 23.096 169.694 23.096C169.07 23.096 168.606 23.496 168.606 24.12ZM186.187 31.464V24.984C186.187 22.632 188.219 21.032 190.699 21.032C193.195 21.032 195.243 22.632 195.243 24.984V31.464C195.243 33.816 193.195 35.416 190.699 35.416C188.219 35.416 186.187 33.816 186.187 31.464ZM196.811 35.656V20.792H200.411V35.656H196.811ZM189.595 24.824V31.624C189.595 32.184 190.059 32.712 190.747 32.712C191.435 32.712 191.915 32.184 191.915 31.624V24.824C191.915 24.296 191.435 23.72 190.747 23.72C190.059 23.72 189.595 24.296 189.595 24.824ZM202.187 29.864V20.952H204.971V22.744H206.427V20.952H209.099V24.072H210.299V20.792H213.099V31.816H210.299V26.792H209.099V29.864H202.187ZM216.827 33.032V35.656H202.859V30.664H206.427V33.032H216.827ZM213.723 31.816V20.792H216.587V31.816H213.723ZM204.971 25.368V27.24H206.427V25.368H204.971ZM217.867 35.416V32.6H232.587V35.416H217.867ZM232.187 27.72V30.36H218.427V24.296H231.963V26.808H221.995V27.72H232.187ZM218.427 23.624V21.032H232.027V23.624H218.427Z" fill="white"/>
</svg>
