<svg width="217" height="56" viewBox="0 0 217 56" fill="none" xmlns="http://www.w3.org/2000/svg">
<path d="M62.6448 30.248H66.0848V32.408C66.0848 34.856 64.0848 35.736 61.6368 35.736C59.1888 35.736 57.1088 34.856 57.1088 32.408V24.04C57.1088 21.592 59.1088 20.712 61.5568 20.712C64.0048 20.712 66.0048 21.592 66.0048 24.04V25.688H62.6448V24.568C62.6448 23.944 62.1808 23.608 61.5568 23.608C60.9328 23.608 60.4688 23.944 60.4688 24.568V31.88C60.4688 32.504 60.9328 32.84 61.5568 32.84C62.1808 32.84 62.6448 32.504 62.6448 31.88V30.248ZM67.0463 32.408V24.04C67.0463 21.592 69.0463 20.712 71.4943 20.712C73.9423 20.712 75.9423 21.592 75.9423 24.04V32.408C75.9423 34.856 73.9423 35.736 71.4943 35.736C69.0463 35.736 67.0463 34.856 67.0463 32.408ZM70.3743 24.568V31.88C70.3743 32.504 70.8703 32.84 71.4943 32.84C72.1183 32.84 72.6143 32.504 72.6143 31.88V24.568C72.6143 23.944 72.1183 23.608 71.4943 23.608C70.8703 23.608 70.3743 23.944 70.3743 24.568ZM77.2181 35.416V21.032H81.5861L83.3941 30.296L85.2661 21.032H89.4901V35.416H86.2901V27.576L84.6421 35.416H82.1621L80.4181 27.576V35.416H77.2181ZM94.285 21.032V35.416H90.765V21.032H94.285ZM104.538 21.032V35.416H101.338L98.7619 28.136V35.416H95.5619V21.032H98.7619L101.338 28.376V21.032H104.538ZM110.42 30.328V27.688H114.788V32.408C114.788 34.856 112.788 35.736 110.34 35.736C107.892 35.736 105.812 34.856 105.812 32.408V24.04C105.812 21.592 107.812 20.712 110.26 20.712C112.708 20.712 114.708 21.592 114.708 24.04V25.688H111.348V24.568C111.348 23.944 110.884 23.608 110.26 23.608C109.636 23.608 109.172 23.944 109.172 24.568V31.88C109.172 32.504 109.716 32.84 110.34 32.84C110.964 32.84 111.508 32.504 111.508 31.88V30.328H110.42ZM123.903 24.488V25.144C123.903 25.64 124.191 25.928 125.439 26.36C129.47 27.816 129.47 28.856 129.47 31.544V32.408C129.47 34.856 127.391 35.736 124.943 35.736C122.495 35.736 120.495 34.856 120.495 32.408V30.248H123.935V31.88C123.935 32.504 124.399 32.84 125.023 32.84C125.647 32.84 126.111 32.504 126.111 31.88V31.544C126.111 29.736 126.031 29.656 123.167 28.552C120.943 27.704 120.543 26.28 120.543 25.144V24.04C120.543 21.592 122.543 20.712 124.991 20.712C127.439 20.712 129.439 21.592 129.439 24.04V25.576H126.079V24.568C126.079 23.944 125.615 23.608 124.991 23.608C124.367 23.608 123.903 23.864 123.903 24.488ZM130.578 32.408V24.04C130.578 21.592 132.578 20.712 135.026 20.712C137.474 20.712 139.474 21.592 139.474 24.04V32.408C139.474 34.856 137.474 35.736 135.026 35.736C132.578 35.736 130.578 34.856 130.578 32.408ZM133.906 24.568V31.88C133.906 32.504 134.402 32.84 135.026 32.84C135.65 32.84 136.146 32.504 136.146 31.88V24.568C136.146 23.944 135.65 23.608 135.026 23.608C134.402 23.608 133.906 23.944 133.906 24.568ZM140.749 32.408V24.04C140.749 21.592 142.749 20.712 145.197 20.712C147.645 20.712 149.645 21.592 149.645 24.04V32.408C149.645 34.856 147.645 35.736 145.197 35.736C142.749 35.736 140.749 34.856 140.749 32.408ZM144.077 24.568V31.88C144.077 32.504 144.573 32.84 145.197 32.84C145.821 32.84 146.317 32.504 146.317 31.88V24.568C146.317 23.944 145.821 23.608 145.197 23.608C144.573 23.608 144.077 23.944 144.077 24.568ZM159.897 21.032V35.416H156.697L154.121 28.136V35.416H150.921V21.032H154.121L156.697 28.376V21.032H159.897Z" fill="#636363"/>
</svg>
