<svg width="269" height="56" viewBox="0 0 269 56" fill="none" xmlns="http://www.w3.org/2000/svg">
<rect width="269" height="56" rx="28" fill="#006FCE"/>
<path d="M59.8039 28.936V26.376L60.8599 26.296C61.3399 26.248 61.8679 25.88 61.8679 25.368V23.96C61.8679 23.448 61.4519 23.032 60.9399 23.032C60.4279 23.032 60.0119 23.448 60.0119 23.96V25.128H56.8119V24.12C56.8119 21.848 58.6839 20.632 60.9399 20.632C63.1959 20.632 65.0679 21.848 65.0679 24.12V25.208C65.0679 26.424 64.5879 27.176 63.8199 27.64C64.6679 28.104 65.2279 28.872 65.2279 30.104V32.328C65.2279 34.6 63.1959 35.816 60.9399 35.816C58.6839 35.816 56.6519 34.6 56.6519 32.328V30.584H60.0119V32.328C60.0119 32.84 60.4279 33.256 60.9399 33.256C61.4519 33.256 61.8679 32.84 61.8679 32.328V29.944C61.8679 29.432 61.2919 29.016 60.7799 29.016L59.8039 28.936ZM66.3431 32.328V24.12C66.3431 21.848 68.2151 20.632 70.4711 20.632C72.7271 20.632 74.5991 21.848 74.5991 24.12V32.328C74.5991 34.6 72.7271 35.816 70.4711 35.816C68.2151 35.816 66.3431 34.6 66.3431 32.328ZM69.5431 24.12V32.328C69.5431 32.84 69.9591 33.256 70.4711 33.256C70.9831 33.256 71.3991 32.84 71.3991 32.328V24.12C71.3991 23.608 70.9831 23.192 70.4711 23.192C69.9591 23.192 69.5431 23.608 69.5431 24.12ZM90.0344 23.752H85.0424C85.2984 24.68 86.6424 25.992 90.1944 25.944V28.6C86.6744 28.6 84.3864 27.592 83.2344 26.12C82.0664 27.592 79.7944 28.6 76.2744 28.6V25.944C79.7944 25.992 81.2024 24.68 81.4104 23.752H76.4344V21.032H90.0344V23.752ZM75.8744 31.912V29.224H90.5944V31.912H85.0424V35.816H81.4264V31.912H75.8744ZM99.2504 24.088V21.912H102.898V20.792H106.434V31.704H102.898V26.952H99.2504V24.776H102.898V24.088H99.2504ZM92.1944 30.536V20.952H95.7144V27.704L102.338 27.464V30.12L92.1944 30.536ZM106.674 33.032V35.656H92.8664V31.208H96.4344V33.032H106.674ZM123.615 28.808V20.792H127.215V28.808H123.615ZM112.991 23.064V21.032H122.031V25.608H116.367V26.392L123.231 25.944V28.072L112.991 28.728V23.72H118.655V23.064H112.991ZM113.663 31V29.208H127.215V33.176H117.199V33.768H127.455V35.656H113.663V31.544H123.679V31H113.663ZM128.991 24.072V21.272H135.679L134.879 29.224H132.111V32.008L136.703 31.48V34.36L128.991 35.176V26.568H132.031L132.287 24.072H128.991ZM135.567 28.552V25.672H137.103V20.792H139.903V35.656H137.103V28.552H135.567ZM140.527 35.656V20.792H143.391V35.656H140.527ZM144.991 31.464V24.984C144.991 22.632 147.023 21.032 149.503 21.032C151.999 21.032 154.047 22.632 154.047 24.984V31.464C154.047 33.816 151.999 35.416 149.503 35.416C147.023 35.416 144.991 33.816 144.991 31.464ZM155.615 35.656V20.792H159.215V35.656H155.615ZM148.399 24.824V31.624C148.399 32.184 148.863 32.712 149.551 32.712C150.239 32.712 150.719 32.184 150.719 31.624V24.824C150.719 24.296 150.239 23.72 149.551 23.72C148.863 23.72 148.399 24.296 148.399 24.824ZM165.788 31.464V24.984C165.788 22.632 167.82 21.032 170.3 21.032C172.796 21.032 174.844 22.632 174.844 24.984V31.464C174.844 33.816 172.796 35.416 170.3 35.416C167.82 35.416 165.788 33.816 165.788 31.464ZM176.412 35.656V20.792H180.012V35.656H176.412ZM169.196 24.824V31.624C169.196 32.184 169.66 32.712 170.348 32.712C171.036 32.712 171.516 32.184 171.516 31.624V24.824C171.516 24.296 171.036 23.72 170.348 23.72C169.66 23.72 169.196 24.296 169.196 24.824ZM181.788 29.864V20.952H184.572V22.744H186.028V20.952H188.7V24.072H189.9V20.792H192.7V31.816H189.9V26.792H188.7V29.864H181.788ZM196.428 33.032V35.656H182.46V30.664H186.028V33.032H196.428ZM193.324 31.816V20.792H196.188V31.816H193.324ZM184.572 25.368V27.24H186.028V25.368H184.572ZM197.468 35.416V32.6H212.188V35.416H197.468ZM211.788 27.72V30.36H198.028V24.296H211.564V26.808H201.596V27.72H211.788ZM198.028 23.624V21.032H211.628V23.624H198.028Z" fill="white"/>
</svg>
