<svg width="267" height="56" viewBox="0 0 267 56" fill="none" xmlns="http://www.w3.org/2000/svg">
<rect x="1.5" y="1.5" width="264" height="53" rx="26.5" stroke="white" stroke-opacity="0.4" stroke-width="3"/>
<path d="M58.8039 28.936V26.376L59.8599 26.296C60.3399 26.248 60.8679 25.88 60.8679 25.368V23.96C60.8679 23.448 60.4519 23.032 59.9399 23.032C59.4279 23.032 59.0119 23.448 59.0119 23.96V25.128H55.8119V24.12C55.8119 21.848 57.6839 20.632 59.9399 20.632C62.1959 20.632 64.0679 21.848 64.0679 24.12V25.208C64.0679 26.424 63.5879 27.176 62.8199 27.64C63.6679 28.104 64.2279 28.872 64.2279 30.104V32.328C64.2279 34.6 62.1959 35.816 59.9399 35.816C57.6839 35.816 55.6519 34.6 55.6519 32.328V30.584H59.0119V32.328C59.0119 32.84 59.4279 33.256 59.9399 33.256C60.4519 33.256 60.8679 32.84 60.8679 32.328V29.944C60.8679 29.432 60.2919 29.016 59.7799 29.016L58.8039 28.936ZM65.3431 32.328V24.12C65.3431 21.848 67.2151 20.632 69.4711 20.632C71.7271 20.632 73.5991 21.848 73.5991 24.12V32.328C73.5991 34.6 71.7271 35.816 69.4711 35.816C67.2151 35.816 65.3431 34.6 65.3431 32.328ZM68.5431 24.12V32.328C68.5431 32.84 68.9591 33.256 69.4711 33.256C69.9831 33.256 70.3991 32.84 70.3991 32.328V24.12C70.3991 23.608 69.9831 23.192 69.4711 23.192C68.9591 23.192 68.5431 23.608 68.5431 24.12ZM89.0344 23.752H84.0424C84.2984 24.68 85.6424 25.992 89.1944 25.944V28.6C85.6744 28.6 83.3864 27.592 82.2344 26.12C81.0664 27.592 78.7944 28.6 75.2744 28.6V25.944C78.7944 25.992 80.2024 24.68 80.4104 23.752H75.4344V21.032H89.0344V23.752ZM74.8744 31.912V29.224H89.5944V31.912H84.0424V35.816H80.4264V31.912H74.8744ZM98.2504 24.088V21.912H101.898V20.792H105.434V31.704H101.898V26.952H98.2504V24.776H101.898V24.088H98.2504ZM91.1944 30.536V20.952H94.7144V27.704L101.338 27.464V30.12L91.1944 30.536ZM105.674 33.032V35.656H91.8664V31.208H95.4344V33.032H105.674ZM122.615 28.808V20.792H126.215V28.808H122.615ZM111.991 23.064V21.032H121.031V25.608H115.367V26.392L122.231 25.944V28.072L111.991 28.728V23.72H117.655V23.064H111.991ZM112.663 31V29.208H126.215V33.176H116.199V33.768H126.455V35.656H112.663V31.544H122.679V31H112.663ZM127.991 24.072V21.272H134.679L133.879 29.224H131.111V32.008L135.703 31.48V34.36L127.991 35.176V26.568H131.031L131.287 24.072H127.991ZM134.567 28.552V25.672H136.103V20.792H138.903V35.656H136.103V28.552H134.567ZM139.527 35.656V20.792H142.391V35.656H139.527ZM143.991 31.464V24.984C143.991 22.632 146.023 21.032 148.503 21.032C150.999 21.032 153.047 22.632 153.047 24.984V31.464C153.047 33.816 150.999 35.416 148.503 35.416C146.023 35.416 143.991 33.816 143.991 31.464ZM154.615 35.656V20.792H158.215V35.656H154.615ZM147.399 24.824V31.624C147.399 32.184 147.863 32.712 148.551 32.712C149.239 32.712 149.719 32.184 149.719 31.624V24.824C149.719 24.296 149.239 23.72 148.551 23.72C147.863 23.72 147.399 24.296 147.399 24.824ZM164.788 31.464V24.984C164.788 22.632 166.82 21.032 169.3 21.032C171.796 21.032 173.844 22.632 173.844 24.984V31.464C173.844 33.816 171.796 35.416 169.3 35.416C166.82 35.416 164.788 33.816 164.788 31.464ZM175.412 35.656V20.792H179.012V35.656H175.412ZM168.196 24.824V31.624C168.196 32.184 168.66 32.712 169.348 32.712C170.036 32.712 170.516 32.184 170.516 31.624V24.824C170.516 24.296 170.036 23.72 169.348 23.72C168.66 23.72 168.196 24.296 168.196 24.824ZM180.788 29.864V20.952H183.572V22.744H185.028V20.952H187.7V24.072H188.9V20.792H191.7V31.816H188.9V26.792H187.7V29.864H180.788ZM195.428 33.032V35.656H181.46V30.664H185.028V33.032H195.428ZM192.324 31.816V20.792H195.188V31.816H192.324ZM183.572 25.368V27.24H185.028V25.368H183.572ZM196.468 35.416V32.6H211.188V35.416H196.468ZM210.788 27.72V30.36H197.028V24.296H210.564V26.808H200.596V27.72H210.788ZM197.028 23.624V21.032H210.628V23.624H197.028Z" fill="white"/>
</svg>
