<svg width="658" height="34" viewBox="0 0 658 34" fill="none" xmlns="http://www.w3.org/2000/svg">
<rect x="0.5" width="657" height="34" rx="17" fill="black"/>
<path d="M21.88 21.792V12.477C21.88 9.096 24.801 6.796 28.366 6.796C31.954 6.796 34.898 9.096 34.898 12.477V21.792C34.898 25.173 31.954 27.473 28.366 27.473C24.801 27.473 21.88 25.173 21.88 21.792ZM37.152 27.818V6.451H42.327V27.818H37.152ZM26.779 12.247V22.022C26.779 22.827 27.446 23.586 28.435 23.586C29.424 23.586 30.114 22.827 30.114 22.022V12.247C30.114 11.488 29.424 10.66 28.435 10.66C27.446 10.66 26.779 11.488 26.779 12.247ZM44.88 19.492V6.681H48.882V9.257H50.975V6.681H54.816V11.166H56.541V6.451H60.566V22.298H56.541V15.076H54.816V19.492H44.88ZM65.925 24.046V27.818H45.846V20.642H50.975V24.046H65.925ZM61.463 22.298V6.451H65.58V22.298H61.463ZM48.882 13.029V15.72H50.975V13.029H48.882ZM67.42 27.473V23.425H88.58V27.473H67.42ZM88.005 16.41V20.205H68.225V11.488H87.683V15.099H73.354V16.41H88.005ZM68.225 10.522V6.796H87.775V10.522H68.225ZM113.048 17.905V6.451H118.223V17.905H113.048ZM98.7415 20.964V18.365H118.223V24.23H103.825V25.104H118.568V27.818H98.7415V21.792H113.14V20.964H98.7415ZM97.7755 12.523V11.465C97.7755 8.084 100.697 6.451 104.285 6.451C107.85 6.451 110.771 8.084 110.771 11.465V12.523C110.771 15.858 107.85 17.468 104.285 17.468C100.697 17.468 97.7755 15.858 97.7755 12.523ZM102.744 11.074V12.914C102.744 13.719 103.388 14.294 104.285 14.294C105.136 14.294 105.826 13.719 105.826 12.914V11.074C105.826 10.269 105.136 9.625 104.285 9.625C103.388 9.625 102.744 10.269 102.744 11.074ZM132.851 14.501V11.028H136.163V6.451H141.246V19.147H136.163V14.501H132.851ZM120.776 10.453V6.796H134.024V10.453H129.677C129.7 13.535 131.609 15.03 134.254 15.214V18.963C131.241 18.894 128.895 17.974 127.4 15.904C125.859 17.974 123.513 18.894 120.546 18.963V15.214C123.214 15.03 125.123 13.535 125.123 10.453H120.776ZM121.512 23.77C121.512 21.309 123.49 19.607 125.974 19.607H136.968C139.498 19.607 141.476 21.309 141.476 23.77C141.476 26.162 139.498 27.933 136.968 27.933H125.974C123.49 27.933 121.512 26.162 121.512 23.77ZM127.469 24.506H135.45C136.094 24.506 136.416 24.207 136.416 23.77C136.416 23.264 136.094 23.011 135.45 23.011H127.469C126.917 23.011 126.595 23.264 126.595 23.77C126.595 24.207 126.917 24.506 127.469 24.506Z" fill="#C4C4C4"/>
<path d="M177.476 12.155V11.235C177.476 10.499 177.108 9.901 176.372 9.901C175.636 9.901 175.268 10.499 175.268 11.235V12.914H170.668V11.235C170.668 7.969 173.129 6.221 176.372 6.221C179.615 6.221 182.306 7.969 182.306 11.235V12.155C182.306 15.007 181.156 16.433 178.695 19.078C176.211 21.746 175.498 22.252 175.498 23.379V23.793H182.306V27.473H170.438V23.379C170.438 21.7 170.599 20.435 174.624 16.893C177.085 14.754 177.476 13.627 177.476 12.155ZM183.678 23.034V11.235C183.678 7.969 186.369 6.221 189.612 6.221C192.855 6.221 195.546 7.969 195.546 11.235V23.034C195.546 26.3 192.855 28.048 189.612 28.048C186.369 28.048 183.678 26.3 183.678 23.034ZM188.278 11.235V23.034C188.278 23.77 188.876 24.368 189.612 24.368C190.348 24.368 190.946 23.77 190.946 23.034V11.235C190.946 10.499 190.348 9.901 189.612 9.901C188.876 9.901 188.278 10.499 188.278 11.235ZM203.957 12.155V11.235C203.957 10.499 203.589 9.901 202.853 9.901C202.117 9.901 201.749 10.499 201.749 11.235V12.914H197.149V11.235C197.149 7.969 199.61 6.221 202.853 6.221C206.096 6.221 208.787 7.969 208.787 11.235V12.155C208.787 15.007 207.637 16.433 205.176 19.078C202.692 21.746 201.979 22.252 201.979 23.379V23.793H208.787V27.473H196.919V23.379C196.919 21.7 197.08 20.435 201.105 16.893C203.566 14.754 203.957 13.627 203.957 12.155ZM214.276 6.681H221.015V20.78H222.625V24.69H221.015V27.588H216.668V24.69H209.469V20.78L214.276 6.681ZM216.645 20.78V11.741L213.793 20.78H216.645ZM234.149 11.189V8.061H239.393V6.451H244.476V22.137H239.393V15.306H234.149V12.178H239.393V11.189H234.149ZM224.006 20.458V6.681H229.066V16.387L238.588 16.042V19.86L224.006 20.458ZM244.821 24.046V27.818H224.972V21.424H230.101V24.046H244.821ZM257.742 18.158V14.478L259.26 14.363C259.95 14.294 260.709 13.765 260.709 13.029V11.005C260.709 10.269 260.111 9.671 259.375 9.671C258.639 9.671 258.041 10.269 258.041 11.005V12.684H253.441V11.235C253.441 7.969 256.132 6.221 259.375 6.221C262.618 6.221 265.309 7.969 265.309 11.235V12.799C265.309 14.547 264.619 15.628 263.515 16.295C264.734 16.962 265.539 18.066 265.539 19.837V23.034C265.539 26.3 262.618 28.048 259.375 28.048C256.132 28.048 253.211 26.3 253.211 23.034V20.527H258.041V23.034C258.041 23.77 258.639 24.368 259.375 24.368C260.111 24.368 260.709 23.77 260.709 23.034V19.607C260.709 18.871 259.881 18.273 259.145 18.273L257.742 18.158ZM267.143 17.284V14.248H282.438V17.284H276.527L276.228 18.94H288.05V24.437H273.399V25.288H288.28V27.818H268.569V22.206H283.22V21.424H268.569V18.94H271.582L271.881 17.284H267.143ZM267.603 10.2C267.603 8.268 269.098 6.681 271.237 6.681H277.125C279.241 6.681 280.782 8.268 280.782 10.2C280.782 12.132 279.241 13.696 277.125 13.696H271.237C269.098 13.696 267.603 12.132 267.603 10.2ZM281.15 12.385V8.82H282.99V6.451H288.05V18.365H282.99V12.385H281.15ZM271.927 10.246C271.927 10.614 272.203 10.936 272.502 10.936H275.929C276.228 10.936 276.504 10.614 276.504 10.246C276.504 9.878 276.228 9.556 275.929 9.556H272.502C272.203 9.556 271.927 9.878 271.927 10.246ZM303.524 27.588H298.694V12.477H296.348V9.027C297.636 9.027 299.062 7.9 299.062 6.681H303.524V27.588ZM309.488 6.681H316.227V20.78H317.837V24.69H316.227V27.588H311.88V24.69H304.681V20.78L309.488 6.681ZM311.857 20.78V11.741L309.005 20.78H311.857ZM334.49 17.905V6.451H339.665V17.905H334.49ZM320.184 20.964V18.365H339.665V24.23H325.267V25.104H340.01V27.818H320.184V21.792H334.582V20.964H320.184ZM319.218 12.523V11.465C319.218 8.084 322.139 6.451 325.727 6.451C329.292 6.451 332.213 8.084 332.213 11.465V12.523C332.213 15.858 329.292 17.468 325.727 17.468C322.139 17.468 319.218 15.858 319.218 12.523ZM324.186 11.074V12.914C324.186 13.719 324.83 14.294 325.727 14.294C326.578 14.294 327.268 13.719 327.268 12.914V11.074C327.268 10.269 326.578 9.625 325.727 9.625C324.83 9.625 324.186 10.269 324.186 11.074ZM343.598 10.177C343.598 6.014 346.519 5.623 349.923 5.623V9.073C348.75 9.073 347.968 9.418 347.968 10.453V23.747C347.968 24.782 348.75 25.127 349.923 25.127V28.577C346.519 28.577 343.598 28.186 343.598 24.023V10.177ZM352.333 14.202V6.451H371.883V14.202H364.523V15.973H372.688V19.538H351.528V15.973H359.67V14.202H352.333ZM352.218 23.908V20.757H371.883V28.048H366.915V23.908H352.218ZM357.186 9.441V11.212H367.03V9.441H357.186ZM380.623 10.177V24.023C380.623 28.186 377.702 28.577 374.298 28.577V25.127C375.471 25.127 376.253 24.782 376.253 23.747V10.453C376.253 9.418 375.471 9.073 374.298 9.073V5.623C377.702 5.623 380.623 6.014 380.623 10.177ZM394.184 19.584H391.194C391.792 15.398 393.816 13.949 395.656 13.949C397.036 13.949 397.473 14.133 399.129 14.938C400.578 15.651 401.314 16.088 402.119 16.249C403.062 16.41 403.453 15.973 403.706 14.11H406.696C406.213 18.526 404.419 19.722 402.372 19.722C400.923 19.722 399.98 19.446 398.531 18.733C397.358 18.158 396.553 17.606 395.748 17.675C395.058 17.744 394.552 17.836 394.184 19.584ZM422.008 12.155V11.235C422.008 10.499 421.64 9.901 420.904 9.901C420.168 9.901 419.8 10.499 419.8 11.235V12.914H415.2V11.235C415.2 7.969 417.661 6.221 420.904 6.221C424.147 6.221 426.838 7.969 426.838 11.235V12.155C426.838 15.007 425.688 16.433 423.227 19.078C420.743 21.746 420.03 22.252 420.03 23.379V23.793H426.838V27.473H414.97V23.379C414.97 21.7 415.131 20.435 419.156 16.893C421.617 14.754 422.008 13.627 422.008 12.155ZM428.21 23.034V11.235C428.21 7.969 430.901 6.221 434.144 6.221C437.387 6.221 440.078 7.969 440.078 11.235V23.034C440.078 26.3 437.387 28.048 434.144 28.048C430.901 28.048 428.21 26.3 428.21 23.034ZM432.81 11.235V23.034C432.81 23.77 433.408 24.368 434.144 24.368C434.88 24.368 435.478 23.77 435.478 23.034V11.235C435.478 10.499 434.88 9.901 434.144 9.901C433.408 9.901 432.81 10.499 432.81 11.235ZM448.489 12.155V11.235C448.489 10.499 448.121 9.901 447.385 9.901C446.649 9.901 446.281 10.499 446.281 11.235V12.914H441.681V11.235C441.681 7.969 444.142 6.221 447.385 6.221C450.628 6.221 453.319 7.969 453.319 11.235V12.155C453.319 15.007 452.169 16.433 449.708 19.078C447.224 21.746 446.511 22.252 446.511 23.379V23.793H453.319V27.473H441.451V23.379C441.451 21.7 441.612 20.435 445.637 16.893C448.098 14.754 448.489 13.627 448.489 12.155ZM458.808 6.681H465.547V20.78H467.157V24.69H465.547V27.588H461.2V24.69H454.001V20.78L458.808 6.681ZM461.177 20.78V11.741L458.325 20.78H461.177ZM478.681 11.189V8.061H483.925V6.451H489.008V22.137H483.925V15.306H478.681V12.178H483.925V11.189H478.681ZM468.538 20.458V6.681H473.598V16.387L483.12 16.042V19.86L468.538 20.458ZM489.353 24.046V27.818H469.504V21.424H474.633V24.046H489.353ZM504.46 27.588H499.63V12.477H497.284V9.027C498.572 9.027 499.998 7.9 499.998 6.681H504.46V27.588ZM512.793 27.588H507.963V12.477H505.617V9.027C506.905 9.027 508.331 7.9 508.331 6.681H512.793V27.588ZM514.64 17.284V14.248H529.935V17.284H524.024L523.725 18.94H535.547V24.437H520.896V25.288H535.777V27.818H516.066V22.206H530.717V21.424H516.066V18.94H519.079L519.378 17.284H514.64ZM515.1 10.2C515.1 8.268 516.595 6.681 518.734 6.681H524.622C526.738 6.681 528.279 8.268 528.279 10.2C528.279 12.132 526.738 13.696 524.622 13.696H518.734C516.595 13.696 515.1 12.132 515.1 10.2ZM528.647 12.385V8.82H530.487V6.451H535.547V18.365H530.487V12.385H528.647ZM519.424 10.246C519.424 10.614 519.7 10.936 519.999 10.936H523.426C523.725 10.936 524.001 10.614 524.001 10.246C524.001 9.878 523.725 9.556 523.426 9.556H519.999C519.7 9.556 519.424 9.878 519.424 10.246ZM548.836 18.158V14.478L550.354 14.363C551.044 14.294 551.803 13.765 551.803 13.029V11.005C551.803 10.269 551.205 9.671 550.469 9.671C549.733 9.671 549.135 10.269 549.135 11.005V12.684H544.535V11.235C544.535 7.969 547.226 6.221 550.469 6.221C553.712 6.221 556.403 7.969 556.403 11.235V12.799C556.403 14.547 555.713 15.628 554.609 16.295C555.828 16.962 556.633 18.066 556.633 19.837V23.034C556.633 26.3 553.712 28.048 550.469 28.048C547.226 28.048 544.305 26.3 544.305 23.034V20.527H549.135V23.034C549.135 23.77 549.733 24.368 550.469 24.368C551.205 24.368 551.803 23.77 551.803 23.034V19.607C551.803 18.871 550.975 18.273 550.239 18.273L548.836 18.158ZM558.236 23.034V11.235C558.236 7.969 560.927 6.221 564.17 6.221C567.413 6.221 570.104 7.969 570.104 11.235V23.034C570.104 26.3 567.413 28.048 564.17 28.048C560.927 28.048 558.236 26.3 558.236 23.034ZM562.836 11.235V23.034C562.836 23.77 563.434 24.368 564.17 24.368C564.906 24.368 565.504 23.77 565.504 23.034V11.235C565.504 10.499 564.906 9.901 564.17 9.901C563.434 9.901 562.836 10.499 562.836 11.235ZM587.67 17.905V6.451H592.845V17.905H587.67ZM573.364 20.964V18.365H592.845V24.23H578.447V25.104H593.19V27.818H573.364V21.792H587.762V20.964H573.364ZM572.398 12.523V11.465C572.398 8.084 575.319 6.451 578.907 6.451C582.472 6.451 585.393 8.084 585.393 11.465V12.523C585.393 15.858 582.472 17.468 578.907 17.468C575.319 17.468 572.398 15.858 572.398 12.523ZM577.366 11.074V12.914C577.366 13.719 578.01 14.294 578.907 14.294C579.758 14.294 580.448 13.719 580.448 12.914V11.074C580.448 10.269 579.758 9.625 578.907 9.625C578.01 9.625 577.366 10.269 577.366 11.074ZM596.778 10.177C596.778 6.014 599.699 5.623 603.103 5.623V9.073C601.93 9.073 601.148 9.418 601.148 10.453V23.747C601.148 24.782 601.93 25.127 603.103 25.127V28.577C599.699 28.577 596.778 28.186 596.778 24.023V10.177ZM625.293 16.41V20.205H605.513V11.488H624.971V15.099H610.642V16.41H625.293ZM604.708 27.473V23.425H612.689V20.849H617.887V23.425H625.868V27.473H604.708ZM605.513 10.522V6.796H625.063V10.522H605.513ZM633.803 10.177V24.023C633.803 28.186 630.882 28.577 627.478 28.577V25.127C628.651 25.127 629.433 24.782 629.433 23.747V10.453C629.433 9.418 628.651 9.073 627.478 9.073V5.623C630.882 5.623 633.803 6.014 633.803 10.177Z" fill="white"/>
</svg>
