<svg width="391" height="112" viewBox="0 0 391 112" fill="none" xmlns="http://www.w3.org/2000/svg">
<path d="M0 0H381C386.523 0 391 4.47715 391 10V102C391 107.523 386.523 112 381 112H0V0Z" fill="#006FCE"/>
<path d="M100.498 37.642V33.322L102.28 33.187C103.09 33.106 103.981 32.485 103.981 31.621V29.245C103.981 28.381 103.279 27.679 102.415 27.679C101.551 27.679 100.849 28.381 100.849 29.245V31.216H95.4487V29.515C95.4487 25.681 98.6077 23.629 102.415 23.629C106.222 23.629 109.381 25.681 109.381 29.515V31.351C109.381 33.403 108.571 34.672 107.275 35.455C108.706 36.238 109.651 37.534 109.651 39.613V43.366C109.651 47.2 106.222 49.252 102.415 49.252C98.6077 49.252 95.1787 47.2 95.1787 43.366V40.423H100.849V43.366C100.849 44.23 101.551 44.932 102.415 44.932C103.279 44.932 103.981 44.23 103.981 43.366V39.343C103.981 38.479 103.009 37.777 102.145 37.777L100.498 37.642ZM111.533 43.366V29.515C111.533 25.681 114.692 23.629 118.499 23.629C122.306 23.629 125.465 25.681 125.465 29.515V43.366C125.465 47.2 122.306 49.252 118.499 49.252C114.692 49.252 111.533 47.2 111.533 43.366ZM116.933 29.515V43.366C116.933 44.23 117.635 44.932 118.499 44.932C119.363 44.932 120.065 44.23 120.065 43.366V29.515C120.065 28.651 119.363 27.949 118.499 27.949C117.635 27.949 116.933 28.651 116.933 29.515ZM151.512 28.894H143.088C143.52 30.46 145.788 32.674 151.782 32.593V37.075C145.842 37.075 141.981 35.374 140.037 32.89C138.066 35.374 134.232 37.075 128.292 37.075V32.593C134.232 32.674 136.608 30.46 136.959 28.894H128.562V24.304H151.512V28.894ZM127.617 42.664V38.128H152.457V42.664H143.088V49.252H136.986V42.664H127.617ZM167.064 29.461V25.789H173.22V23.899H179.187V42.313H173.22V34.294H167.064V30.622H173.22V29.461H167.064ZM155.157 40.342V24.169H161.097V35.563L172.275 35.158V39.64L155.157 40.342ZM179.592 44.554V48.982H156.291V41.476H162.312V44.554H179.592Z" fill="#9DD2FF"/>
<path d="M208.179 48.982V23.899H214.254V48.982H208.179ZM190.116 29.569V24.709H206.046V28.759C206.046 40.558 199.35 46.93 189.981 48.442V43.285C196.299 41.692 200.43 37.345 200.43 29.569H190.116ZM237.663 29.326L237.15 35.482H240.876V39.829H217.386V35.482H221.004L220.518 29.326H225.945L226.323 35.482H231.831L232.236 29.326H237.663ZM216.711 48.577V43.663H241.551V48.577H216.711ZM217.656 28.651V24.304H240.606V28.651H217.656ZM243.711 48.577V43.825H268.551V48.577H243.711ZM267.876 35.59V40.045H244.656V29.812H267.498V34.051H250.677V35.59H267.876ZM244.656 28.678V24.304H267.606V28.678H244.656ZM272.385 48.982V37.804H278.325V39.316H288.531V37.804H294.471V48.982H288.531V48.28L272.385 48.982ZM270.981 36.859V31.972C274.653 30.892 276.084 28.192 276.084 24.736V24.034H281.97V24.736C281.97 28.192 283.401 30.892 287.073 31.972V36.859C283.32 36.076 280.755 34.456 279.027 32.188C277.299 34.456 274.68 36.076 270.981 36.859ZM288.531 37.264V23.899H294.471V25.465H297.009V29.542H294.471V31.378H297.009V35.455H294.471V37.264H288.531ZM278.325 43.15V44.716L288.531 44.338V43.15H278.325Z" fill="white"/>
<rect x="133" y="55.5" width="125" height="34" rx="17" fill="white"/>
<path d="M149.02 79.812V64.937H152.607V68.575H154.596V64.937H158.115V79.812H154.596V79.2L149.02 79.812ZM159.9 80.322V64.529H163.64V70.258H165.408V73.505H163.64V80.322H159.9ZM152.607 71.448V76.514L154.596 76.31V71.448H152.607ZM166.275 67.368V64.784H180.725V70.632H169.998V71.482H180.895V74.168H166.275V68.15H177.002V67.368H166.275ZM165.68 80.067V77.041H171.579V74.678H175.421V77.041H181.32V80.067H165.68ZM183.02 68.099V65.039H192.285V67.589C192.285 75.001 188.851 79.047 182.935 79.982V76.735C186.811 75.715 188.766 73.012 188.749 68.099H183.02ZM193.56 80.322V64.529H197.3V70.258H199.408V73.505H197.3V80.322H193.56ZM211.308 80.322V64.529H215.133V80.322H211.308ZM199.935 68.099V65.039H209.965V67.589C209.965 75.018 205.749 79.03 199.85 79.982V76.735C203.828 75.732 206.429 72.995 206.429 68.099H199.935Z" fill="black"/>
<rect x="226" y="59" width="27" height="27" rx="13.5" fill="black"/>
<path d="M235.531 73.829V71.684H239.08V75.519C239.08 77.508 237.455 78.223 235.466 78.223C233.477 78.223 231.787 77.508 231.787 75.519V68.72C231.787 66.731 233.412 66.016 235.401 66.016C237.39 66.016 239.015 66.731 239.015 68.72V70.059H236.285V69.149C236.285 68.642 235.908 68.369 235.401 68.369C234.894 68.369 234.517 68.642 234.517 69.149V75.09C234.517 75.597 234.959 75.87 235.466 75.87C235.973 75.87 236.415 75.597 236.415 75.09V73.829H235.531ZM239.988 75.519V68.72C239.988 66.731 241.613 66.016 243.602 66.016C245.591 66.016 247.216 66.731 247.216 68.72V75.519C247.216 77.508 245.591 78.223 243.602 78.223C241.613 78.223 239.988 77.508 239.988 75.519ZM242.692 69.149V75.09C242.692 75.597 243.095 75.87 243.602 75.87C244.109 75.87 244.512 75.597 244.512 75.09V69.149C244.512 68.642 244.109 68.369 243.602 68.369C243.095 68.369 242.692 68.642 242.692 69.149Z" fill="white"/>
</svg>
