<svg width="168" height="30" viewBox="0 0 168 30" fill="none" xmlns="http://www.w3.org/2000/svg">
<rect x="1.75" y="1.75" width="26.5" height="26.5" rx="13.25" fill="#F4BF0D" stroke="url(#paint0_linear_2072_19878)" stroke-width="1.5"/>
<path d="M16.5631 10.9577V10.3298C16.5631 9.46858 16.0069 9.05594 15.0919 9.05594C14.1411 9.05594 13.5849 9.54034 13.5849 10.4015V11.5677H10.3376V9.89917C10.3376 7.24388 12.3828 6.22124 15.0919 6.22124C17.7652 6.22124 19.8284 7.24388 19.8284 9.89917V10.9577C19.8284 13.5771 16.599 13.6309 16.5272 16.0709L16.4734 18.3674H13.5311V15.9633C13.5311 13.0927 16.5631 12.4468 16.5631 10.9577ZM16.5272 22.8526H13.5131V19.8565H16.5272V22.8526Z" fill="white"/>
<path d="M37.6039 11.78V8.6H50.0639L50.1239 7.1H37.4039V3.74H54.6039L54.1639 13.66H49.8839L49.9439 11.78H37.6039ZM36.8039 17.76V14.16H55.2039V17.76H48.2639V22.52H43.7439V17.76H36.8039ZM72.3239 6.96L72.0239 8.92H74.7039V11.74H68.1039V13.2H75.2039V16.22H56.8039V13.2H63.8839V11.74H57.3039V8.92H59.9039L59.6239 6.96H63.6439L63.8639 8.92H68.0639L68.3039 6.96H72.3239ZM74.8039 19.52V22.32H57.5039V16.9H61.8439V19.52H74.8039ZM57.5039 6.56V3.74H74.5039V6.56H57.5039ZM83 7.58V4.74H86.74V3.34H91.3V4.74H95.04V7.58H93.9C94.06 7.96 94.18 8.34 94.18 8.76C94.18 10.3 93.22 11.32 91.62 11.32H91.04V12.54L95.5 12.32V15.28L82.8 15.88V12.92L86.98 12.72V11.32H86.38C84.78 11.32 83.84 10.3 83.84 8.76C83.84 8.36 83.92 7.96 84.1 7.58H83ZM96 16.18V3.74H100.4V8.04H102.48V11.66H100.4V16.18H96ZM83.84 19.56V16.68H100.4V22.52H95.8V19.56H83.84ZM87.06 8.14C87.06 8.46 87.34 8.74 87.72 8.74H90.28C90.66 8.74 90.94 8.46 90.94 8.14C90.94 7.76 90.66 7.5 90.28 7.5H87.72C87.34 7.5 87.06 7.76 87.06 8.14ZM116.48 17.26V3.74H120.98V17.26H116.48ZM121.28 19.04V22.32H104.04V15.96H108.5V19.04H121.28ZM103.2 10.42V8.3C103.2 5.36 105.74 3.74 108.86 3.74C111.96 3.74 114.5 5.36 114.5 8.3V10.42C114.5 13.3 111.96 14.92 108.86 14.92C105.74 14.92 103.2 13.3 103.2 10.42ZM107.52 8.06V10.66C107.52 11.36 108.08 11.86 108.86 11.86C109.6 11.86 110.2 11.36 110.2 10.66V8.06C110.2 7.36 109.6 6.8 108.86 6.8C108.08 6.8 107.52 7.36 107.52 8.06ZM129.836 18.76C129.836 16.62 131.556 15.1 133.716 15.1H142.876C145.076 15.1 146.796 16.62 146.796 18.76C146.796 20.84 145.076 22.42 142.876 22.42H133.716C131.556 22.42 129.836 20.84 129.836 18.76ZM129.196 14.12V3.94H133.416V5.92H135.736V3.94H139.876V14.12H129.196ZM141.996 14.7V3.74H146.396V7.02H148.476V10.52H146.396V14.7H141.996ZM135.016 19.4H141.556C142.116 19.4 142.396 19.16 142.396 18.76C142.396 18.36 142.116 18.1 141.556 18.1H135.016C134.536 18.1 134.256 18.36 134.256 18.76C134.256 19.16 134.536 19.4 135.016 19.4ZM133.416 8.9V11.14H135.736V8.9H133.416ZM162.576 14.2V10.4H159.896V13.68H149.196V3.94H153.416V5.82H155.756V3.94H159.896V7H162.576V3.74H166.996V14.2H162.576ZM150.036 22.32V14.6H154.436V15.5H162.576V14.6H166.996V22.32H162.576V21.8L150.036 22.32ZM154.436 18.2V19.36L162.576 19.08V18.2H154.436ZM153.416 8.7V10.8H155.756V8.7H153.416Z" fill="#F4BF0D"/>
<rect x="36" y="26" width="132" height="3" fill="#F4BF0D"/>
<defs>
<linearGradient id="paint0_linear_2072_19878" x1="1" y1="1" x2="29" y2="29" gradientUnits="userSpaceOnUse">
<stop stop-color="white" stop-opacity="0.3"/>
<stop offset="1" stop-color="white" stop-opacity="0"/>
</linearGradient>
</defs>
</svg>
