<svg width="139" height="36" viewBox="0 0 139 36" fill="none" xmlns="http://www.w3.org/2000/svg">
<rect x="0.5" y="0.5" width="138" height="35" rx="17.5" stroke="#5A6C7B"/>
<path d="M39.3984 13.7656H30.9141V12.1406H34.0234V11.0625H36.2578V12.1406H39.3984V13.7656ZM30.4922 18.9844C31.8047 18.9844 32.9818 18.9714 34.0234 18.9453V18.2578C33.237 18.1328 32.6198 17.8932 32.1719 17.5391C31.724 17.1797 31.5026 16.7344 31.5078 16.2031C31.5078 15.7656 31.6562 15.3828 31.9531 15.0547C32.2552 14.7214 32.6823 14.4661 33.2344 14.2891C33.7917 14.1068 34.4349 14.0156 35.1641 14.0156C35.8724 14.0156 36.5 14.1068 37.0469 14.2891C37.5938 14.4661 38.0208 14.7214 38.3281 15.0547C38.6354 15.3828 38.7891 15.7656 38.7891 16.2031C38.7839 16.7344 38.5547 17.1797 38.1016 17.5391C37.6484 17.8984 37.0339 18.138 36.2578 18.2578V18.8594C37.4141 18.8021 38.4818 18.7135 39.4609 18.5938L39.6328 20.0938C38.2839 20.3281 36.8906 20.4818 35.4531 20.5547C34.0156 20.6276 32.4557 20.6667 30.7734 20.6719L30.4922 18.9844ZM32.4766 21.4375H42.5391V25.5H40.2578V23.1562H32.4766V21.4375ZM33.6797 16.2031C33.6745 16.4167 33.7969 16.5781 34.0469 16.6875C34.2969 16.7917 34.651 16.8438 35.1094 16.8438C35.5781 16.8438 35.9479 16.7917 36.2188 16.6875C36.4896 16.5833 36.6276 16.4219 36.6328 16.2031C36.6276 15.9635 36.4948 15.7865 36.2344 15.6719C35.974 15.5573 35.6172 15.5 35.1641 15.5C34.6849 15.5 34.3151 15.5573 34.0547 15.6719C33.7995 15.7865 33.6745 15.9635 33.6797 16.2031ZM40.2578 11.1875H42.5391V20.9062H40.2578V11.1875ZM57.3672 19.6719H44.2578V17.875H57.3672V19.6719ZM45.7109 20.7188H55.7891V25.5H53.5703V22.5156H45.7109V20.7188ZM45.8203 11.625H55.8203V13.375H48.0703V15.0781H55.9609V16.8594H45.8203V11.625ZM73.7109 25.5312H71.4453V11.1562H73.7109V25.5312ZM62.0391 17.2656C62.0391 16.2396 62.2031 15.3385 62.5312 14.5625C62.8646 13.7865 63.3229 13.1901 63.9062 12.7734C64.4896 12.3516 65.1484 12.1406 65.8828 12.1406C66.6068 12.1406 67.2578 12.3516 67.8359 12.7734C68.4141 13.1901 68.8672 13.7865 69.1953 14.5625C69.5286 15.3385 69.6953 16.2396 69.6953 17.2656C69.6953 18.3073 69.5286 19.2188 69.1953 20C68.8672 20.7812 68.4141 21.3828 67.8359 21.8047C67.2578 22.2266 66.6068 22.4375 65.8828 22.4375C65.1484 22.4375 64.4896 22.2266 63.9062 21.8047C63.3229 21.3828 62.8646 20.7812 62.5312 20C62.2031 19.2188 62.0391 18.3073 62.0391 17.2656ZM64.2266 17.2656C64.2214 18.2812 64.3672 19.0573 64.6641 19.5938C64.9609 20.125 65.3672 20.3906 65.8828 20.3906C66.3828 20.3906 66.7786 20.125 67.0703 19.5938C67.3672 19.0573 67.5182 18.2812 67.5234 17.2656C67.5234 16.599 67.4531 16.0339 67.3125 15.5703C67.1771 15.1016 66.987 14.75 66.7422 14.5156C66.4974 14.2812 66.2109 14.1667 65.8828 14.1719C65.5443 14.1667 65.25 14.2812 65 14.5156C64.75 14.75 64.5573 15.1016 64.4219 15.5703C64.2865 16.0339 64.2214 16.599 64.2266 17.2656ZM82.3984 16.5938H78.2578V17.9062C79.2786 17.901 80.1276 17.875 80.8047 17.8281C81.4818 17.7812 82.1536 17.6927 82.8203 17.5625L83.0234 19.3594C82.2578 19.4948 81.4609 19.5833 80.6328 19.625C79.8047 19.6667 78.638 19.6927 77.1328 19.7031H76.0391V14.9531H80.1484V13.7344H76.0234V11.9844H82.3984V16.5938ZM77.6797 20.5938H87.6328V25.5H85.3984V22.3906H77.6797V20.5938ZM83.1797 16.1875H85.3984V14.8906H83.1797V13.1094H85.3984V11.1719H87.6328V20.0156H85.3984V17.9531H83.1797V16.1875Z" fill="#BBBBBB"/>
<path fill-rule="evenodd" clip-rule="evenodd" d="M103.93 13.7102C103.597 13.3772 103.057 13.3772 102.724 13.7102C102.391 14.0433 102.391 14.5833 102.724 14.9164L105.797 17.9888L102.724 21.0613C102.385 21.4005 102.385 21.9505 102.724 22.2897C103.063 22.629 103.613 22.629 103.953 22.2897L107.617 18.6254C107.956 18.2862 107.956 17.7362 107.617 17.3969L103.93 13.7102Z" fill="white"/>
</svg>
