<svg width="139" height="36" viewBox="0 0 139 36" fill="none" xmlns="http://www.w3.org/2000/svg">
<rect width="139" height="36" rx="18" fill="#F4BF0D"/>
<path d="M42.4359 12.3315V13.674C42.4304 15.3978 42.4304 17.3978 41.9 20.3591L39.6845 20.1657C40.132 17.6188 40.1652 15.7017 40.1707 14.1105H31.7011V12.3315H42.4359ZM30.4359 23.8287V22.011H33.0657V17.5691H35.3088V22.011H36.6514V17.5691H38.8613V22.011H43.5077V23.8287H30.4359ZM55.8055 11.1547V15.768H57.5403V17.6077H55.8055V22.3425H53.5513V11.1547H55.8055ZM44.0707 19.3094C45.0707 19.3094 46.2198 19.3039 47.4242 19.2652V18.5304C45.9049 18.2818 44.9602 17.5193 44.9602 16.4199C44.9602 14.9889 46.3745 14.1657 48.5292 14.1713C50.6673 14.1657 52.0872 14.9889 52.0872 16.4199C52.0872 17.5083 51.1591 18.2652 49.6673 18.5193V19.1657C50.7834 19.0939 51.9049 18.989 52.9546 18.8398L53.1149 20.3702C50.1149 20.9558 46.7502 20.989 44.2972 21.0221L44.0707 19.3094ZM44.4519 13.8453V12.2431H47.4242V11.1105H49.6673V12.2431H52.6176V13.8453H44.4519ZM46.0375 25.2707V21.6077H48.3027V23.4696H56.2861V25.2707H46.0375ZM47.1204 16.4199C47.1093 16.8729 47.6066 17.116 48.5292 17.116C49.4353 17.116 49.927 16.8729 49.9325 16.4199C49.927 15.884 49.4353 15.6519 48.5292 15.6519C47.6066 15.6519 47.1093 15.884 47.1204 16.4199ZM74.057 11.1547V25.4972H71.9078V18.4088H70.7973V24.8177H68.6924V11.3812H70.7973V16.6077H71.9078V11.1547H74.057ZM62.2007 22.0663V12.6961H64.4493V20.105C65.5211 20.0718 66.6924 19.9669 67.9631 19.7238L68.1786 21.6575C66.2891 21.9834 64.6482 22.0773 63.1951 22.0663H62.2007ZM87.6365 20.2376V25.4972H85.3934V22.0055H77.7194V20.2376H87.6365ZM75.6586 15.4475C75.6476 13.3978 77.3271 11.9006 79.5039 11.9116C80.6476 11.9061 81.6476 12.326 82.3382 13.0276H85.3934V11.1547H87.6365V19.6519H85.3934V17.9116H82.3382C81.6476 18.6243 80.6476 19.0497 79.5039 19.0497C77.3271 19.0497 75.6476 17.5414 75.6586 15.4475ZM77.7912 15.4475C77.7857 16.5414 78.4984 17.1436 79.5039 17.1436C80.4487 17.1436 81.178 16.5414 81.189 15.4475C81.178 14.4033 80.4487 13.8066 79.5039 13.8066C78.4984 13.8066 77.7857 14.4033 77.7912 15.4475ZM83.2608 16.1215H85.3934V14.8343H83.2664C83.2995 15.0331 83.3216 15.2376 83.3216 15.4475C83.3216 15.6796 83.2995 15.9061 83.2608 16.1215Z" fill="black"/>
<path fill-rule="evenodd" clip-rule="evenodd" d="M103.93 13.7102C103.597 13.3772 103.057 13.3772 102.724 13.7102C102.391 14.0433 102.391 14.5833 102.724 14.9164L105.797 17.9888L102.724 21.0613C102.385 21.4005 102.385 21.9505 102.724 22.2897C103.063 22.629 103.613 22.629 103.953 22.2897L107.617 18.6254C107.956 18.2862 107.956 17.7362 107.617 17.3969L103.93 13.7102Z" fill="#181818"/>
</svg>
