<svg width="139" height="36" viewBox="0 0 139 36" fill="none" xmlns="http://www.w3.org/2000/svg">
<rect x="0.5" y="0.5" width="138" height="35" rx="17.5" stroke="#5A6C7B"/>
<path d="M42.4297 13.6719C42.4297 14.4583 42.4193 15.1484 42.3984 15.7422C42.3828 16.3359 42.3359 17.026 42.2578 17.8125C42.1849 18.5938 42.0651 19.4427 41.8984 20.3594L39.6797 20.1719C39.8724 19.0885 40 18.0938 40.0625 17.1875C40.1302 16.276 40.1641 15.3568 40.1641 14.4297V14.1094H31.6953V12.3281H42.4297V13.6719ZM30.4297 22.0156H33.0703V17.5625H35.3047V22.0156H36.6484V17.5625H38.8672V22.0156H43.5078V23.8281H30.4297V22.0156ZM55.8047 15.7656H57.5391V17.6094H55.8047V22.3438H53.5547V11.1562H55.8047V15.7656ZM44.0703 19.3125C45.3411 19.3125 46.4609 19.2969 47.4297 19.2656V18.5312C46.6589 18.4115 46.0547 18.1667 45.6172 17.7969C45.1797 17.4271 44.9609 16.9688 44.9609 16.4219C44.9609 15.9531 45.1068 15.5495 45.3984 15.2109C45.6953 14.8724 46.112 14.6146 46.6484 14.4375C47.1849 14.2604 47.8099 14.1719 48.5234 14.1719C49.237 14.1719 49.862 14.2604 50.3984 14.4375C50.9349 14.6146 51.349 14.8724 51.6406 15.2109C51.9375 15.5495 52.0859 15.9531 52.0859 16.4219C52.0859 16.9583 51.8698 17.4115 51.4375 17.7812C51.0104 18.151 50.4193 18.3984 49.6641 18.5234V19.1641C50.8932 19.0859 51.9922 18.9792 52.9609 18.8438L53.1172 20.375C51.8359 20.6198 50.5156 20.7839 49.1562 20.8672C47.8021 20.9505 46.25 21.0052 44.5 21.0312H44.3047L44.0703 19.3125ZM44.4453 12.25H47.4297V11.1094H49.6641V12.25H52.6172V13.8438H44.4453V12.25ZM46.0391 21.6094H48.3047V23.4688H56.2891V25.2656H46.0391V21.6094ZM47.1172 16.4062C47.1172 16.6406 47.2344 16.8177 47.4688 16.9375C47.7083 17.0573 48.0599 17.1198 48.5234 17.125C48.9818 17.1198 49.3307 17.0573 49.5703 16.9375C49.8099 16.8177 49.9297 16.6458 49.9297 16.4219C49.9297 16.1562 49.8125 15.9635 49.5781 15.8438C49.3438 15.7188 48.9922 15.6562 48.5234 15.6562C47.5859 15.6562 47.1172 15.9062 47.1172 16.4062ZM74.0547 25.5H71.9141V18.4062H70.7891V24.8125H68.6953V11.375H70.7891V16.6094H71.9141V11.1562H74.0547V25.5ZM62.1953 12.7031H64.4453V20.1094C65.7005 20.0625 66.8724 19.9323 67.9609 19.7188L68.1797 21.6562C66.6172 21.9271 65.0573 22.0625 63.5 22.0625H63.1953H62.1953V12.7031ZM87.6328 25.5H85.3984V22H77.7266V20.2344H87.6328V25.5ZM75.6641 15.4531C75.6589 14.7812 75.8229 14.1745 76.1562 13.6328C76.4948 13.0911 76.9583 12.6693 77.5469 12.3672C78.1354 12.0599 78.7891 11.9062 79.5078 11.9062C80.0703 11.9062 80.5938 12.0052 81.0781 12.2031C81.5677 12.401 81.9896 12.6771 82.3438 13.0312H85.3984V11.1562H87.6328V19.6562H85.3984V17.9062H82.3438C81.9896 18.2656 81.5677 18.5469 81.0781 18.75C80.5938 18.9479 80.0703 19.0469 79.5078 19.0469C78.7891 19.0469 78.1354 18.8932 77.5469 18.5859C76.9583 18.2734 76.4948 17.8438 76.1562 17.2969C75.8229 16.75 75.6589 16.1354 75.6641 15.4531ZM77.7891 15.4531C77.7891 15.9896 77.9453 16.4062 78.2578 16.7031C78.5755 16.9948 78.9922 17.1406 79.5078 17.1406C79.8255 17.1406 80.1094 17.0755 80.3594 16.9453C80.6146 16.8151 80.8151 16.6224 80.9609 16.3672C81.1068 16.112 81.1797 15.8073 81.1797 15.4531C81.1797 15.1146 81.1068 14.8229 80.9609 14.5781C80.8151 14.3281 80.6172 14.138 80.3672 14.0078C80.1172 13.8776 79.8359 13.8125 79.5234 13.8125C79.0026 13.8125 78.5833 13.9557 78.2656 14.2422C77.9479 14.5286 77.7891 14.9323 77.7891 15.4531ZM85.3984 16.125V14.8281H83.2656C83.3021 15.0625 83.3203 15.2708 83.3203 15.4531C83.3203 15.6667 83.2995 15.8906 83.2578 16.125H85.3984Z" fill="#BBBBBB"/>
<path fill-rule="evenodd" clip-rule="evenodd" d="M103.93 13.7102C103.597 13.3772 103.057 13.3772 102.724 13.7102C102.391 14.0433 102.391 14.5833 102.724 14.9164L105.797 17.9888L102.724 21.0613C102.385 21.4005 102.385 21.9505 102.724 22.2897C103.063 22.629 103.613 22.629 103.953 22.2897L107.617 18.6254C107.956 18.2862 107.956 17.7362 107.617 17.3969L103.93 13.7102Z" fill="white"/>
</svg>
