<svg width="139" height="36" viewBox="0 0 139 36" fill="none" xmlns="http://www.w3.org/2000/svg">
<rect width="139" height="36" rx="18" fill="#0C7BD9"/>
<path d="M39.4083 12.1436V13.7569H30.9055V12.1436H34.0215V11.0663H36.2646V12.1436H39.4083ZM30.4967 18.9834C31.5685 18.9834 32.7729 18.9779 34.0215 18.9448V18.2541C32.4691 18.0166 31.5022 17.2762 31.5133 16.1989C31.5022 14.8729 32.9497 14.011 35.1597 14.0166C37.2978 14.011 38.7784 14.8729 38.784 16.1989C38.7784 17.2762 37.7895 18.0166 36.2646 18.2541V18.8619C37.353 18.8011 38.4359 18.7182 39.4635 18.5912L39.6237 20.0884C36.6016 20.6188 33.2867 20.663 30.7784 20.663L30.4967 18.9834ZM32.4801 23.1492V21.4365H42.5409V25.4972H40.2536V23.1492H32.4801ZM33.679 16.1989C33.6735 16.6519 34.237 16.8564 35.1597 16.8453C36.0271 16.8564 36.6293 16.6519 36.6348 16.1989C36.6293 15.7127 36.0271 15.5028 35.1597 15.4972C34.237 15.5028 33.6735 15.7127 33.679 16.1989ZM40.2536 20.9061V11.1878H42.5409V20.9061H40.2536ZM57.3635 17.8674V19.6685H44.264V17.8674H57.3635ZM45.706 22.5083V20.7182H55.7944V25.4972H53.5789V22.5083H45.706ZM45.822 16.8619V11.6243H55.8165V13.3812H48.0651V15.0829H55.9546V16.8619H45.822ZM73.7145 11.1547V25.5359H71.4382V11.1547H73.7145ZM62.046 17.2652C62.0404 14.1271 63.6703 12.1326 65.8857 12.1381C68.0625 12.1326 69.6869 14.1271 69.6924 17.2652C69.6869 20.453 68.0625 22.4365 65.8857 22.4309C63.6703 22.4365 62.0404 20.453 62.046 17.2652ZM64.2228 17.2652C64.2117 19.3481 64.8747 20.3867 65.8857 20.3867C66.8581 20.3867 67.5156 19.3481 67.5211 17.2652C67.5156 15.2155 66.8581 14.1657 65.8857 14.1713C64.8747 14.1657 64.2117 15.2155 64.2228 17.2652ZM82.3934 11.9834V16.6022H78.2608V17.9116C80.2166 17.9006 81.4432 17.8287 82.8188 17.5691L83.0233 19.3591C81.3824 19.6464 79.863 19.6906 77.1338 19.6961H76.0343V14.9503H80.1393V13.7348H76.0177V11.9834H82.3934ZM77.6862 22.3867V20.5967H87.6365V25.4917H85.3934V22.3867H77.6862ZM83.178 17.9558V16.1823H85.3934V14.884H83.178V13.116H85.3934V11.1768H87.6365V20.0166H85.3934V17.9558H83.178Z" fill="white"/>
<path fill-rule="evenodd" clip-rule="evenodd" d="M103.93 13.7102C103.597 13.3772 103.057 13.3772 102.724 13.7102C102.391 14.0433 102.391 14.5833 102.724 14.9164L105.797 17.9888L102.724 21.0613C102.385 21.4005 102.385 21.9505 102.724 22.2897C103.063 22.629 103.613 22.629 103.953 22.2897L107.617 18.6254C107.956 18.2862 107.956 17.7362 107.617 17.3969L103.93 13.7102Z" fill="white"/>
</svg>
