<svg width="299" height="113" viewBox="0 0 299 113" fill="none" xmlns="http://www.w3.org/2000/svg">
<path d="M0 10.8282C0 5.3054 4.47715 0.828247 10 0.828247H299V112.828H10C4.47715 112.828 0 108.351 0 102.828V10.8282Z" fill="#DBE515"/>
<path d="M46.7818 45.7162V41.2362L48.6298 41.0962C49.4698 41.0122 50.3938 40.3682 50.3938 39.4722V37.0082C50.3938 36.1122 49.6658 35.3842 48.7698 35.3842C47.8738 35.3842 47.1458 36.1122 47.1458 37.0082V39.0522H41.5458V37.2882C41.5458 33.3122 44.8218 31.1842 48.7698 31.1842C52.7178 31.1842 55.9938 33.3122 55.9938 37.2882V39.1922C55.9938 41.3202 55.1538 42.6362 53.8098 43.4482C55.2938 44.2602 56.2738 45.6042 56.2738 47.7602V51.6522C56.2738 55.6282 52.7178 57.7562 48.7698 57.7562C44.8218 57.7562 41.2658 55.6282 41.2658 51.6522V48.6002H47.1458V51.6522C47.1458 52.5482 47.8738 53.2762 48.7698 53.2762C49.6658 53.2762 50.3938 52.5482 50.3938 51.6522V47.4802C50.3938 46.5842 49.3858 45.8562 48.4898 45.8562L46.7818 45.7162ZM58.2255 51.6522V37.2882C58.2255 33.3122 61.5015 31.1842 65.4495 31.1842C69.3975 31.1842 72.6735 33.3122 72.6735 37.2882V51.6522C72.6735 55.6282 69.3975 57.7562 65.4495 57.7562C61.5015 57.7562 58.2255 55.6282 58.2255 51.6522ZM63.8255 37.2882V51.6522C63.8255 52.5482 64.5535 53.2762 65.4495 53.2762C66.3455 53.2762 67.0735 52.5482 67.0735 51.6522V37.2882C67.0735 36.3922 66.3455 35.6642 65.4495 35.6642C64.5535 35.6642 63.8255 36.3922 63.8255 37.2882ZM99.6852 36.6442H90.9492C91.3972 38.2682 93.7492 40.5642 99.9652 40.4802V45.1282C93.8052 45.1282 89.8012 43.3642 87.7852 40.7882C85.7412 43.3642 81.7652 45.1282 75.6052 45.1282V40.4802C81.7652 40.5642 84.2292 38.2682 84.5932 36.6442H75.8852V31.8842H99.6852V36.6442ZM74.9052 50.9242V46.2202H100.665V50.9242H90.9492V57.7562H84.6212V50.9242H74.9052ZM115.813 37.2322V33.4242H122.197V31.4642H128.385V50.5602H122.197V42.2442H115.813V38.4362H122.197V37.2322H115.813ZM103.465 48.5162V31.7442H109.625V43.5602L121.217 43.1402V47.7882L103.465 48.5162ZM128.805 52.8842V57.4762H104.641V49.6922H110.885V52.8842H128.805Z" fill="#011C33"/>
<path d="M140.42 44.7642V40.0322H157.724L157.92 36.9242H140.14V31.8842H164.22L163.044 51.3162H156.996L157.416 44.7642H140.42ZM139.3 57.0562V52.0162H147.056V46.1362H153.104V52.0162H165.06V57.0562H139.3ZM186.452 50.3922V31.4642H192.752V50.3922H186.452ZM193.172 52.8842V57.4762H169.036V48.5722H175.28V52.8842H193.172ZM167.86 40.8162V37.8482C167.86 33.7322 171.416 31.4642 175.784 31.4642C180.124 31.4642 183.68 33.7322 183.68 37.8482V40.8162C183.68 44.8482 180.124 47.1162 175.784 47.1162C171.416 47.1162 167.86 44.8482 167.86 40.8162ZM173.908 37.5122V41.1522C173.908 42.1322 174.692 42.8322 175.784 42.8322C176.82 42.8322 177.66 42.1322 177.66 41.1522V37.5122C177.66 36.5322 176.82 35.7482 175.784 35.7482C174.692 35.7482 173.908 36.5322 173.908 37.5122ZM219.934 39.6122V35.3842H222.986V31.4642H229.174V50.9522H222.986V46.0242H219.934V41.7962H222.986V39.6122H219.934ZM229.594 52.8842V57.4762H205.71V49.1322H211.954V52.8842H229.594ZM214.978 47.5082H208.286C206.13 47.5082 204.254 45.3522 204.254 42.6642C204.254 39.9762 206.13 37.7922 208.286 37.7922H214.978C217.134 37.7922 219.01 39.9762 219.01 42.6642C219.01 45.3522 217.134 47.5082 214.978 47.5082ZM203.974 36.9802V32.9202H208.594V30.9042H214.614V32.9202H219.234V36.9802H203.974ZM209.21 42.6642C209.21 43.0842 209.518 43.5882 209.966 43.5882H213.41C213.858 43.5882 214.138 43.0842 214.138 42.6642C214.138 42.1322 213.858 41.7122 213.41 41.7122H209.966C209.518 41.7122 209.21 42.1322 209.21 42.6642ZM231.974 36.8402V32.8642H237.21V30.9042H243.594V32.8642H248.83V36.8402H247.29C247.514 37.3722 247.682 37.9042 247.682 38.4922C247.682 40.6482 246.198 42.0762 243.958 42.0762H243.23V43.5322L249.474 43.1962V47.3402L231.694 48.2642V44.1202L237.546 43.8122V42.0762H236.846C234.606 42.0762 233.15 40.6482 233.15 38.4922C233.15 37.9322 233.262 37.3722 233.514 36.8402H231.974ZM232.87 53.2482C232.87 50.8122 234.886 48.8522 237.378 48.8522H252.386C254.878 48.8522 256.894 50.8122 256.894 53.2482C256.894 55.6282 254.878 57.6162 252.386 57.6162H237.378C234.886 57.6162 232.87 55.6282 232.87 53.2482ZM250.174 48.2922V31.4642H256.334V37.0362H259.246V42.1042H256.334V48.2922H250.174ZM238.554 53.1922C238.554 53.5562 238.834 53.8082 239.198 53.8082H250.51C250.874 53.8082 251.154 53.5562 251.154 53.1922C251.154 52.8562 250.874 52.6042 250.51 52.6042H239.198C238.834 52.6042 238.554 52.8562 238.554 53.1922ZM237.658 37.5402C237.658 37.9882 238.05 38.3802 238.582 38.3802H242.222C242.754 38.3802 243.146 37.9882 243.146 37.5402C243.146 37.0082 242.754 36.6442 242.222 36.6442H238.582C238.05 36.6442 237.658 37.0082 237.658 37.5402Z" fill="#215F95"/>
</svg>
