<svg width="276" height="37" viewBox="0 0 276 37" fill="none" xmlns="http://www.w3.org/2000/svg">
<path d="M-0.0078984 0.827999H19.2971V7.458L9.0791 36.084H0.499102L10.9121 7.458H-0.0078984V0.827999ZM20.8461 18.612V13.464H46.7811V18.612H36.7581L36.2511 21.42H56.2971V30.741H31.4541V32.184H56.6871V36.474H23.2641V26.958H48.1071V25.632H23.2641V21.42H28.3731L28.8801 18.612H20.8461ZM21.6261 6.6C21.6261 3.324 24.1611 0.632999 27.7881 0.632999H37.7721C41.3601 0.632999 43.9731 3.324 43.9731 6.6C43.9731 9.876 41.3601 12.528 37.7721 12.528H27.7881C24.1611 12.528 21.6261 9.876 21.6261 6.6ZM44.5971 10.305V4.26H47.7171V0.243H56.2971V20.445H47.7171V10.305H44.5971ZM28.9581 6.678C28.9581 7.302 29.4261 7.848 29.9331 7.848H35.7441C36.2511 7.848 36.7191 7.302 36.7191 6.678C36.7191 6.054 36.2511 5.508 35.7441 5.508H29.9331C29.4261 5.508 28.9581 6.054 28.9581 6.678ZM72.3185 26.256V10.461C72.3185 4.728 77.2715 0.827999 83.3165 0.827999C89.4005 0.827999 94.3925 4.728 94.3925 10.461V26.256C94.3925 31.989 89.4005 35.889 83.3165 35.889C77.2715 35.889 72.3185 31.989 72.3185 26.256ZM98.2145 36.474V0.243H106.99V36.474H98.2145ZM80.6255 10.071V26.646C80.6255 28.011 81.7565 29.298 83.4335 29.298C85.1105 29.298 86.2805 28.011 86.2805 26.646V10.071C86.2805 8.784 85.1105 7.38 83.4335 7.38C81.7565 7.38 80.6255 8.784 80.6255 10.071ZM111.319 22.356V0.632999H118.105V5.001H121.654V0.632999H128.167V8.238H131.092V0.243H137.917V27.114H131.092V14.868H128.167V22.356H111.319ZM147.004 30.078V36.474H112.957V24.306H121.654V30.078H147.004ZM139.438 27.114V0.243H146.419V27.114H139.438ZM118.105 11.397V15.96H121.654V11.397H118.105ZM149.539 35.889V29.025H185.419V35.889H149.539ZM184.444 17.13V23.565H150.904V8.784H183.898V14.907H159.601V17.13H184.444ZM150.904 7.146V0.827999H184.054V7.146H150.904Z" fill="#0564B5"/>
<path d="M201.596 13.386V0.243H234.746V13.386H222.266V16.389H236.111V22.434H200.231V16.389H214.037V13.386H201.596ZM201.401 29.844V24.501H234.746V36.864H226.322V29.844H201.401ZM209.825 5.313V8.316H226.517V5.313H209.825ZM240.596 4.728V0.243H273.746V10.11H249.02V11.436H273.941V16.155H261.266V18.729H275.111V23.994H239.231V18.729H253.037V16.155H240.596V6.054H265.244V4.728H240.596ZM240.596 30.624V25.671H273.746V36.903H265.322V30.624H240.596Z" fill="#0F2762"/>
</svg>
