<svg width="136" height="30" viewBox="0 0 136 30" fill="none" xmlns="http://www.w3.org/2000/svg">
<path d="M1.944 24.116C1.944 20.692 4.696 18.26 8.152 18.26H22.808C26.328 18.26 29.08 20.692 29.08 24.116C29.08 27.444 26.328 29.972 22.808 29.972H8.152C4.696 29.972 1.944 27.444 1.944 24.116ZM0.6 17.012V11.22C4.952 9.94 6.648 6.42 6.648 2.324V0.243999H13.624V2.324C13.624 6.42 15.32 9.62 19.672 10.9V16.692C15.288 15.764 12.216 13.908 10.168 11.252C8.152 14.068 5.048 16.02 0.6 17.012ZM21.4 17.62V0.0839996H28.44V5.556H31.768V11.156H28.44V17.62H21.4ZM10.392 25.14H20.536C21.432 25.14 22.04 24.884 22.04 24.116C22.04 23.252 21.432 23.06 20.536 23.06H10.392C9.624 23.06 9.016 23.252 9.016 24.116C9.016 24.884 9.624 25.14 10.392 25.14ZM32.28 17.652V12.916H61.72V17.652H50.36V19.348H60.6V29.812H53.816V28.98L33.4 29.812V19.348H43.608V17.652H32.28ZM57.112 4.916L56.664 7.572H60.92V11.764H33.08V7.572H37.24L36.792 4.916H43.224L43.576 7.572H50.296L50.68 4.916H57.112ZM33.4 4.276V0.0839996H60.6V4.276H33.4ZM40.152 23.508V25.044L53.816 24.596V23.508H40.152ZM75.8578 20.308V16.564H102.994V24.692H82.9298V25.94H103.474V29.812H75.8578V21.396H95.9538V20.308H75.8578ZM74.1938 15.444V10.292C78.3858 9.364 80.1458 7.06 80.2418 3.124V0.243999H87.2178V2.836C87.2178 6.932 88.9458 9.3 93.2658 10.292V15.444C89.0098 14.932 85.7778 13.268 83.7298 10.548C81.6178 13.3 78.4498 14.932 74.1938 15.444ZM90.0658 8.628V3.572H95.9538V0.0839996H102.994V15.764H95.9538V8.628H90.0658ZM127.922 17.62V14.26H123.634V16.5H106.514V0.563999H123.634V2.42H127.922V0.0839996H134.994V17.62H127.922ZM107.538 24.116C107.538 20.692 110.29 18.26 113.746 18.26H129.042C132.562 18.26 135.314 20.692 135.314 24.116C135.314 27.444 132.562 29.972 129.042 29.972H113.746C110.29 29.972 107.538 27.444 107.538 24.116ZM113.266 5.364V11.7H117.01V5.364H113.266ZM123.634 7.156V9.588H127.922V7.156H123.634ZM115.826 25.14H126.93C127.826 25.14 128.274 24.756 128.274 24.116C128.274 23.476 127.826 23.06 126.93 23.06H115.826C115.058 23.06 114.61 23.476 114.61 24.116C114.61 24.756 115.058 25.14 115.826 25.14Z" fill="white"/>
</svg>
