<svg width="642" height="72" viewBox="0 0 642 72" fill="none" xmlns="http://www.w3.org/2000/svg">
<path d="M94.3128 11.92H91.1928V6.16H87.4728V3.3H91.1928V0.779999H94.3128V11.92ZM98.6928 11.92H95.4928V0.779999H98.6928V11.92ZM90.1328 10.54L80.9528 11.54V0.999999H84.4728V8.02L90.1328 7.42V10.54ZM98.6928 19.5H94.7328V15.42H81.6128V12.5H98.6928V19.5ZM101.073 8V5.14C105.193 5.12 107.713 3.26 107.713 1.26V0.599999H111.573V1.26C111.573 3.26 114.093 5.18 118.193 5.2V8C113.873 7.98 111.033 6.66 109.613 4.86C108.213 6.66 105.333 7.98 101.073 8ZM118.813 12.18H100.473V9.18H118.813V12.18ZM118.273 19.3H101.293V13.24H105.053V16.4H118.273V19.3ZM138.433 19.3H134.573V0.779999H138.433V19.3ZM126.853 12.58C123.773 12.58 121.253 11 121.253 7.72V5.76C121.253 2.48 123.773 0.799999 126.853 0.799999C129.953 0.799999 132.493 2.48 132.493 5.76V7.72C132.493 11 129.953 12.58 126.853 12.58ZM126.853 9.62C127.993 9.62 128.893 8.96 128.893 7.88V5.56C128.893 4.48 127.993 3.78 126.853 3.78C125.753 3.78 124.873 4.48 124.873 5.56V7.88C124.873 8.96 125.753 9.62 126.853 9.62ZM133.933 18.06L120.533 18.88V15.62L133.933 14.8V18.06ZM163.389 19.3H159.589V0.779999H163.389V7.66H166.049V11.08H163.389V19.3ZM158.629 17.8L147.009 18.66V1.42H157.729V4.5H150.809V15.16L158.629 14.54V17.8ZM172.169 11.08C169.269 11.08 166.889 9.6 166.889 6.68V5.2C166.889 2.3 169.269 0.779999 172.169 0.779999C175.069 0.779999 177.449 2.3 177.449 5.2V6.68C177.449 9.6 175.069 11.08 172.169 11.08ZM183.849 11.62H180.049V0.779999H183.849V2.4H185.889V5.16H183.849V6.74H185.889V9.5H183.849V11.62ZM172.209 8.42C173.229 8.42 174.009 7.86 174.009 6.9V4.96C174.009 4 173.229 3.44 172.209 3.44C171.169 3.44 170.409 4 170.409 4.96V6.9C170.409 7.86 171.169 8.42 172.209 8.42ZM180.369 19.4H171.409C169.249 19.4 167.529 17.84 167.529 15.76C167.529 13.64 169.249 12.14 171.409 12.14H180.369C182.569 12.14 184.289 13.64 184.289 15.76C184.289 17.84 182.569 19.4 180.369 19.4ZM172.489 16.62H179.269C179.989 16.62 180.489 16.36 180.489 15.76C180.489 15.12 179.989 14.9 179.269 14.9H172.489C171.849 14.9 171.349 15.12 171.349 15.76C171.349 16.36 171.849 16.62 172.489 16.62ZM198.369 4.6H186.669V1.92H190.529V0.359999H194.489V1.92H198.369V4.6ZM203.849 14.46H200.049V0.779999H203.849V5.46H206.049V8.72H203.849V14.46ZM186.929 8.74C186.929 6.8 188.309 5.28 189.909 5.28H195.129C196.749 5.28 198.129 6.8 198.129 8.74C198.129 10.7 196.749 12.2 195.129 12.2H189.909C188.309 12.2 186.929 10.7 186.929 8.74ZM191.049 9.6H194.049C194.629 9.6 194.949 9.18 194.949 8.74C194.949 8.26 194.629 7.86 194.049 7.86H191.049C190.489 7.86 190.149 8.26 190.149 8.74C190.149 9.18 190.489 9.6 191.049 9.6ZM204.249 19.3H187.789V13.2H191.629V16.3H204.249V19.3ZM221.385 7.86H223.265V0.779999H226.385V19.3H223.265V11.12H220.725C219.325 15.88 216.405 18.06 212.725 18.86V15.46C217.365 14 218.345 9.02 218.345 4.66H212.825V1.42H221.625V3.78C221.625 5.28 221.545 6.62 221.385 7.86ZM227.485 19.3V0.779999H230.685V19.3H227.485ZM238.505 10.54C235.425 10.54 232.925 9.06 232.925 6.2V5.18C232.925 2.28 235.425 0.779999 238.505 0.779999C241.565 0.779999 244.065 2.28 244.065 5.18V6.2C244.065 9.06 241.565 10.54 238.505 10.54ZM250.465 10.94H246.585V0.779999H250.465V10.94ZM238.505 7.98C239.525 7.98 240.345 7.42 240.345 6.54V4.82C240.345 3.94 239.525 3.34 238.505 3.34C237.445 3.34 236.665 3.94 236.665 4.82V6.54C236.665 7.42 237.445 7.98 238.505 7.98ZM246.625 18.76L233.785 19.3V11.52H250.465V19.3H246.625V18.76ZM237.625 14.28V16.36L246.625 16.02V14.28H237.625ZM261.445 7.86H263.305V0.779999H266.425V19.3H263.305V11.12H261.445V14.98C261.445 17.3 259.505 18.96 257.185 18.96C254.865 18.96 252.925 17.3 252.925 14.98V5.02C252.925 2.7 254.865 1.06 257.185 1.06C259.505 1.06 261.445 2.7 261.445 5.02V7.86ZM267.485 19.3V0.779999H270.685V19.3H267.485ZM258.405 14.88V5.12C258.405 4.52 257.845 4.1 257.245 4.1C256.645 4.1 256.065 4.52 256.065 5.12V14.88C256.065 15.48 256.645 15.92 257.245 15.92C257.845 15.92 258.405 15.48 258.405 14.88ZM286.625 10.22H282.705V6.96H286.625V0.779999H290.425V19.3H286.625V10.22ZM272.645 18.64V14.38C274.785 12.98 276.745 10.8 276.785 5.14V1.2H280.545V5.14C280.585 10.8 282.545 12.98 284.685 14.38V18.64C282.165 17.38 279.905 15.48 278.665 12.78C277.425 15.48 275.145 17.38 272.645 18.64ZM316.461 10.68H312.581V0.779999H316.461V10.68ZM311.461 9.76L298.941 10.58V4.46H306.281V3.48H298.941V1.1H309.941V6.68H302.601V7.86L311.461 7.28V9.76ZM316.781 19.3H299.781V14.22H312.641V13.4H299.781V11.26H316.461V16.18H303.601V17.06H316.781V19.3ZM332.421 19.3H329.301V10.34H327.141V7.1H329.301V0.779999H332.421V19.3ZM336.681 19.3H333.481V0.779999H336.681V19.3ZM328.421 17.62L318.921 18.66V8.1H323.021L323.401 4.58H318.921V1.42H327.121L326.161 11.12H322.341V15.06L328.421 14.38V17.62ZM356.461 19.3H352.581V0.779999H356.461V19.3ZM344.461 18.96C341.381 18.96 338.921 16.96 338.921 14.06V5.96C338.921 3.04 341.381 1.06 344.461 1.06C347.561 1.06 350.061 3.04 350.061 5.96V14.06C350.061 16.96 347.561 18.96 344.461 18.96ZM344.521 15.88C345.641 15.88 346.441 15.14 346.441 14.24V5.76C346.441 4.92 345.641 4.1 344.521 4.1C343.381 4.1 342.601 4.92 342.601 5.76V14.24C342.601 15.14 343.381 15.88 344.521 15.88ZM382.457 19.3H378.577V0.779999H382.457V19.3ZM370.457 18.96C367.377 18.96 364.917 16.96 364.917 14.06V5.96C364.917 3.04 367.377 1.06 370.457 1.06C373.557 1.06 376.057 3.04 376.057 5.96V14.06C376.057 16.96 373.557 18.96 370.457 18.96ZM370.517 15.88C371.637 15.88 372.437 15.14 372.437 14.24V5.76C372.437 4.92 371.637 4.1 370.517 4.1C369.377 4.1 368.597 4.92 368.597 5.76V14.24C368.597 15.14 369.377 15.88 370.517 15.88ZM395.297 8.08H393.437V11.96H384.917V0.999999H388.017V3.42H390.417V0.999999H393.437V4.98H395.297V0.779999H398.417V14.5H395.297V8.08ZM399.477 0.779999H402.677V14.5H399.477V0.779999ZM388.017 8.98H390.417V6.42H388.017V8.98ZM389.617 13.1V16.3H402.977V19.3H385.777V13.1H389.617ZM421.957 4.06H405.277V1.1H421.957V4.06ZM422.157 12.64H405.277V5.18H421.877V8.06H409.137V9.62H422.157V12.64ZM422.797 18.96H404.457V15.76H422.797V18.96ZM441.437 19.3H437.637V0.779999H441.437V7.66H444.037V11.08H441.437V19.3ZM424.817 18.86V15.4C429.577 14.18 432.037 10.82 432.017 4.66H424.917V1.42H435.637V4.14C435.637 12.94 431.657 17.72 424.817 18.86ZM468.413 14.54H464.553V0.779999H468.413V14.54ZM450.673 11.82V8.66C453.013 8.46 454.973 7.12 455.013 4.58V4.18H450.873V1.12H462.653V4.18H458.513V4.58C458.553 7.14 460.533 8.46 462.853 8.66V11.82C460.193 11.7 457.953 10.68 456.753 8.8C455.553 10.68 453.313 11.7 450.673 11.82ZM468.733 19.3H451.833V12.68H455.753V16.3H468.733V19.3ZM480.313 4.44H470.633V1.92H473.853V0.359999H477.113V1.92H480.313V4.44ZM484.213 12.14H481.073V0.779999H484.213V4.82H485.473V0.779999H488.673V12.14H485.473V7.9H484.213V12.14ZM470.873 8.24C470.873 6.48 472.153 5.08 473.693 5.08H477.293C478.853 5.08 480.113 6.48 480.113 8.24C480.113 10 478.853 11.4 477.293 11.4H473.693C472.153 11.4 470.873 10 470.873 8.24ZM474.413 8.96H476.553C477.033 8.96 477.313 8.6 477.313 8.24C477.313 7.84 477.033 7.5 476.553 7.5H474.413C473.933 7.5 473.653 7.84 473.653 8.24C473.653 8.6 473.933 8.96 474.413 8.96ZM471.473 15.98C471.473 14.02 472.993 12.6 475.113 12.6H485.193C487.353 12.6 488.873 14.02 488.873 15.98C488.873 17.96 487.353 19.4 485.193 19.4H475.113C472.993 19.4 471.473 17.96 471.473 15.98ZM476.313 16.76H483.993C484.673 16.76 485.073 16.5 485.073 15.98C485.073 15.48 484.673 15.2 483.993 15.2H476.313C475.713 15.2 475.293 15.48 475.293 15.98C475.293 16.5 475.713 16.76 476.313 16.76ZM504.553 11.7V0.779999H508.413V11.7H504.553ZM498.573 8.6L503.913 8.36V10.92L490.413 11.54V8.98L495.133 8.78V7.16H491.253V1.1H502.633V3.52H494.933V4.66H502.833V7.16H498.573V8.6ZM495.553 13.14H504.673V12.14H508.413V19.3H504.673V18.7L491.813 19.3V12.14H495.553V13.14ZM495.553 16.68L504.673 16.32V15.5H495.553V16.68ZM528.393 19.3H524.513V0.779999H528.393V19.3ZM523.413 17.8L511.053 18.66V1.32H515.013V15.06L523.413 14.48V17.8ZM547.373 19.3H543.573V0.779999H547.373V7.66H550.033V11.08H547.373V19.3ZM542.613 17.8L530.993 18.66V1.42H541.713V4.5H534.793V15.16L542.613 14.54V17.8ZM554.013 18.68H550.653V15.3H554.013V18.68Z" fill="white"/>
<path d="M182.251 47.385H180.751V33.705H182.251V47.385ZM173.611 46.98C171.331 46.98 169.636 45.555 169.636 43.455V37.365C169.636 35.265 171.331 33.84 173.611 33.84C175.891 33.84 177.586 35.265 177.586 37.365V43.455C177.586 45.555 175.891 46.98 173.611 46.98ZM173.611 45.72C175.066 45.72 176.086 44.865 176.086 43.53V37.29C176.086 35.985 175.066 35.1 173.611 35.1C172.156 35.1 171.136 35.985 171.136 37.29V43.53C171.136 44.865 172.156 45.72 173.611 45.72ZM195.766 38.385H192.211V41.46H184.726V33.945H186.226V36.3H190.711V33.945H192.211V37.125H195.766V33.705H197.266V43.875H195.766V38.385ZM186.226 40.2H190.711V37.56H186.226V40.2ZM186.946 42.66V46.125H197.536V47.385H185.446V42.66H186.946ZM216.043 40.59H214.543V33.705H216.043V36.36H218.143V37.62H216.043V40.59ZM212.458 39.57L204.313 40.17V34.02H211.393V35.28H205.813V38.79L212.458 38.31V39.57ZM216.343 47.385H204.943V43.695H214.543V42.54H204.943V41.28H216.043V44.895H206.443V46.125H216.343V47.385ZM236.245 47.385H234.745V33.705H236.245V47.385ZM227.605 46.98C225.325 46.98 223.63 45.555 223.63 43.455V37.365C223.63 35.265 225.325 33.84 227.605 33.84C229.885 33.84 231.58 35.265 231.58 37.365V43.455C231.58 45.555 229.885 46.98 227.605 46.98ZM227.605 45.72C229.06 45.72 230.08 44.865 230.08 43.53V37.29C230.08 35.985 229.06 35.1 227.605 35.1C226.15 35.1 225.13 35.985 225.13 37.29V43.53C225.13 44.865 226.15 45.72 227.605 45.72ZM246.97 38.49H244.75V41.61H238.63V33.945H240.13V36.39H243.25V33.945H244.75V37.23H246.97V33.705H248.47V43.8H246.97V38.49ZM249.91 33.705H251.41V43.8H249.91V33.705ZM240.13 40.35H243.25V37.65H240.13V40.35ZM240.85 42.885V46.125H251.635V47.385H239.35V42.885H240.85ZM265.84 35.325H254.08V34.065H265.84V35.325ZM265.99 42.24H254.08V37.08H265.78V38.34H255.58V40.98H265.99V42.24ZM266.77 46.98H253.15V45.72H266.77V46.98ZM281.17 47.385H279.67V33.705H281.17V47.385ZM273.295 42.195C271.03 42.195 269.155 41.085 269.155 38.835V37.215C269.155 34.965 271.03 33.825 273.295 33.825C275.545 33.825 277.435 34.965 277.435 37.215V38.835C277.435 41.085 275.545 42.195 273.295 42.195ZM273.295 40.935C274.78 40.935 275.935 40.155 275.935 38.85V37.2C275.935 35.865 274.78 35.085 273.295 35.085C271.825 35.085 270.655 35.865 270.655 37.2V38.85C270.655 40.155 271.825 40.935 273.295 40.935ZM278.92 45.99L268.33 46.68V45.42L278.92 44.73V45.99ZM288.232 40.485V39.225C291.202 39.135 293.527 36.96 293.602 35.415H288.382V34.155H300.532V35.415H295.297C295.402 36.96 297.712 39.135 300.682 39.225V40.485C297.697 40.395 295.177 38.76 294.457 36.825C293.737 38.76 291.217 40.395 288.232 40.485ZM295.207 47.535H293.707V43.08H287.647V41.82H301.267V43.08H295.207V47.535ZM307.132 41.76C304.927 41.76 303.127 40.665 303.127 38.52V36.93C303.127 34.8 304.927 33.69 307.132 33.69C309.337 33.69 311.137 34.8 311.137 36.93V38.52C311.137 40.665 309.337 41.76 307.132 41.76ZM315.757 43.59H314.257V33.705H315.757V43.59ZM307.147 40.5C308.557 40.5 309.637 39.81 309.637 38.46V37.005C309.637 35.655 308.557 34.95 307.147 34.95C305.707 34.95 304.627 35.655 304.627 37.005V38.46C304.627 39.81 305.707 40.5 307.147 40.5ZM316.027 47.385H303.937V42.81H305.437V46.125H316.027V47.385ZM328.807 35.16H318.592V33.9H330.412L330.022 38.805H328.522L328.807 35.16ZM331.267 40.935H317.647V39.675H322.957V36.9H324.457V39.675H331.267V40.935ZM318.352 44.85C318.352 43.515 319.267 42.3 320.797 42.3H328.117C329.647 42.3 330.562 43.515 330.562 44.85C330.562 46.215 329.647 47.415 328.117 47.415H320.797C319.267 47.415 318.352 46.215 318.352 44.85ZM321.082 46.155H327.802C328.537 46.155 329.062 45.6 329.062 44.835C329.062 44.1 328.537 43.56 327.802 43.56H321.082C320.362 43.56 319.852 44.1 319.852 44.835C319.852 45.6 320.362 46.155 321.082 46.155ZM342.967 39.135H335.947C334.537 39.135 333.427 38.04 333.427 36.48C333.427 34.92 334.537 33.825 335.947 33.825H342.967C344.362 33.825 345.487 34.92 345.487 36.48C345.487 38.04 344.362 39.135 342.967 39.135ZM336.157 37.875H342.757C343.447 37.875 343.987 37.35 343.987 36.465C343.987 35.595 343.447 35.085 342.757 35.085H336.157C335.452 35.085 334.927 35.595 334.927 36.465C334.927 37.35 335.452 37.875 336.157 37.875ZM346.267 41.97H332.647V40.71H346.267V41.97ZM345.562 47.385H333.577V43.005H335.077V46.125H345.562V47.385ZM363.739 39.48V33.705H365.239V47.385H363.739V40.74H360.214V43.455C360.214 45.555 358.594 46.98 356.419 46.98C354.244 46.98 352.624 45.555 352.624 43.455V37.365C352.624 35.265 354.244 33.84 356.419 33.84C358.594 33.84 360.214 35.265 360.214 37.365V39.48H363.739ZM358.714 43.53V37.29C358.714 35.985 357.769 35.1 356.419 35.1C355.069 35.1 354.124 35.985 354.124 37.29V43.53C354.124 44.865 355.069 45.72 356.419 45.72C357.769 45.72 358.714 44.865 358.714 43.53ZM380.314 43.86H378.814V38.385H375.679V37.125H378.814V33.705H380.314V43.86ZM371.359 41.535L367.609 42.03V34.02H371.359V35.28H369.109V40.56L371.359 40.26V41.535ZM377.224 41.58L371.854 42.18V34.02H376.474V35.28H373.354V40.74L377.224 40.305V41.58ZM380.584 47.385H368.434V43.14H369.934V46.125H380.584V47.385ZM392.851 39.465H395.326V33.705H396.826V47.385H395.326V40.725H392.581C391.636 44.31 389.641 46.17 386.971 46.905V45.57C390.466 44.4 391.696 40.815 391.681 35.595H387.046V34.335H393.181V35.295C393.181 36.87 393.061 38.25 392.851 39.465ZM398.401 47.385V33.705H399.901V47.385H398.401ZM406.126 40.86C403.921 40.86 402.121 39.825 402.121 37.77V36.78C402.121 34.74 403.921 33.69 406.126 33.69C408.331 33.69 410.131 34.74 410.131 36.78V37.77C410.131 39.825 408.331 40.86 406.126 40.86ZM414.751 41.175H413.251V33.705H414.751V41.175ZM406.141 39.6C407.551 39.6 408.631 38.97 408.631 37.71V36.855C408.631 35.595 407.551 34.95 406.141 34.95C404.701 34.95 403.621 35.595 403.621 36.855V37.71C403.621 38.97 404.701 39.6 406.141 39.6ZM413.251 46.935L402.841 47.385V41.865H414.751V47.385H413.251V46.935ZM404.341 43.125V46.065L413.251 45.675V43.125H404.341ZM421.126 40.65C418.921 40.65 417.121 39.615 417.121 37.56V36.78C417.121 34.74 418.921 33.69 421.126 33.69C423.331 33.69 425.131 34.74 425.131 36.78V37.56C425.131 39.615 423.331 40.65 421.126 40.65ZM429.751 40.875H428.251V33.705H429.751V40.875ZM421.141 39.39C422.551 39.39 423.631 38.76 423.631 37.5V36.855C423.631 35.595 422.551 34.95 421.141 34.95C419.701 34.95 418.621 35.595 418.621 36.855V37.5C418.621 38.76 419.701 39.39 421.141 39.39ZM430.021 47.385H417.841V43.845H428.251V42.825H417.841V41.565H429.751V45.045H419.341V46.125H430.021V47.385ZM444.181 47.385H442.681V33.705H444.181V39.315H446.131V40.575H444.181V47.385ZM431.806 46.305V44.625C434.341 43.23 434.986 40.575 434.986 35.595H431.956V34.335H436.486V35.475C436.486 41.655 435.571 44.49 431.806 46.305ZM436.141 47.055V45.375C438.421 43.875 439.381 41.85 439.381 35.595H437.131V34.335H440.881V35.475C440.881 42.78 439.546 45.195 436.141 47.055ZM455.851 41.625H451.051C448.846 41.625 447.286 39.96 447.286 37.815C447.286 35.655 448.846 33.99 451.051 33.99H455.851C458.056 33.99 459.616 35.655 459.616 37.815C459.616 39.96 458.056 41.625 455.851 41.625ZM451.216 40.365H455.686C457.096 40.365 458.116 39.315 458.116 37.815C458.116 36.315 457.096 35.25 455.686 35.25H451.216C449.821 35.25 448.786 36.315 448.786 37.815C448.786 39.315 449.821 40.365 451.216 40.365ZM460.261 46.98H446.641V45.72H450.061V42.3H451.561V45.72H455.371V42.3H456.871V45.72H460.261V46.98ZM467.551 37.23V36.63C467.551 35.445 466.801 34.815 465.436 34.815C464.011 34.815 463.276 35.475 463.276 36.66V37.71H461.776V36.45C461.776 34.44 463.261 33.495 465.436 33.495C467.521 33.495 469.051 34.44 469.051 36.45V37.305C469.051 39.39 466.141 39.735 466.111 41.76L466.081 43.635H464.656V41.715C464.656 39.375 467.551 38.715 467.551 37.23ZM466.201 47.1H464.566V45.45H466.201V47.1ZM9.93855 71.385H8.43856V57.705H9.93855V63.42H11.8436V57.705H13.3436V71.385H11.8436V64.68H9.93855V71.385ZM5.42355 70.065L0.563555 70.755V58.335H6.92356V70.755H5.42355V70.065ZM2.06355 59.595V69.27L5.42355 68.79V59.595H2.06355ZM28.1786 65.355H26.6786V60.99H24.8486V59.73H26.6786V57.705H28.1786V65.355ZM21.9986 62.16H18.2636C16.9286 62.16 15.8936 61.215 15.8936 60.015C15.8936 58.815 16.9286 57.885 18.2636 57.885H21.9986C23.3336 57.885 24.3686 58.815 24.3686 60.015C24.3686 61.215 23.3336 62.16 21.9986 62.16ZM21.7886 59.145H18.4886C17.8886 59.145 17.3936 59.535 17.3936 60.03C17.3936 60.51 17.8886 60.9 18.4886 60.9H21.7886C22.3736 60.9 22.8686 60.51 22.8686 60.03C22.8686 59.535 22.3736 59.145 21.7886 59.145ZM17.8736 69.21V70.125H28.4036V71.385H16.3736V68.01H26.6786V67.14H16.3736V65.88H18.8936L19.1936 64.305H14.9936V63.045H25.9286V64.305H20.7236L20.4236 65.88H28.1786V69.21H17.8736ZM47.6756 71.385H46.1756V57.705H47.6756V71.385ZM39.0356 70.98C36.7556 70.98 35.0606 69.555 35.0606 67.455V61.365C35.0606 59.265 36.7556 57.84 39.0356 57.84C41.3156 57.84 43.0106 59.265 43.0106 61.365V67.455C43.0106 69.555 41.3156 70.98 39.0356 70.98ZM39.0356 69.72C40.4906 69.72 41.5106 68.865 41.5106 67.53V61.29C41.5106 59.985 40.4906 59.1 39.0356 59.1C37.5806 59.1 36.5606 59.985 36.5606 61.29V67.53C36.5606 68.865 37.5806 69.72 39.0356 69.72ZM61.1756 63.48V57.705H62.6756V71.385H61.1756V64.74H57.6506V67.455C57.6506 69.555 56.0306 70.98 53.8556 70.98C51.6806 70.98 50.0606 69.555 50.0606 67.455V61.365C50.0606 59.265 51.6806 57.84 53.8556 57.84C56.0306 57.84 57.6506 59.265 57.6506 61.365V63.48H61.1756ZM56.1506 67.53V61.29C56.1506 59.985 55.2056 59.1 53.8556 59.1C52.5056 59.1 51.5606 59.985 51.5606 61.29V67.53C51.5606 68.865 52.5056 69.72 53.8556 69.72C55.2056 69.72 56.1506 68.865 56.1506 67.53ZM77.5856 71.385H76.0856V57.705H77.5856V71.385ZM64.7006 70.71V69.09C66.2756 68.325 68.6606 66.135 68.6606 62.565V59.685H65.0906V58.425H73.7306V59.685H70.1606V62.565C70.1606 66.135 72.5456 68.325 74.1206 69.09V70.71C72.2456 69.975 70.0706 67.995 69.4106 65.7C68.7506 67.995 66.5756 69.975 64.7006 70.71ZM92.3456 62.655H80.5106V57.735H82.0106V61.395H92.3456V62.655ZM93.2006 65.655H79.5806V64.395H93.2006V65.655ZM92.4956 71.385H80.5106V66.825H82.0106V70.125H92.4956V71.385ZM112.188 64.77H110.688V57.705H112.188V64.77ZM108.393 64.065L99.6477 64.635V60.54H105.723V59.28H99.6477V58.02H107.223V61.74H101.148V63.27L108.393 62.805V64.065ZM112.458 71.385H100.278V67.785H110.688V66.72H100.278V65.46H112.188V68.985H101.778V70.125H112.458V71.385ZM124.383 71.385H122.883V64.455H120.723V63.195H122.883V57.705H124.383V71.385ZM127.338 71.385H125.838V57.705H127.338V71.385ZM121.383 69.96L114.558 70.755V63.57H118.353L118.758 59.595H114.558V58.335H120.393L119.733 64.83H116.058V69.315L121.383 68.685V69.96ZM142.173 71.385H140.673V57.705H142.173V71.385ZM133.533 70.98C131.253 70.98 129.558 69.555 129.558 67.455V61.365C129.558 59.265 131.253 57.84 133.533 57.84C135.813 57.84 137.508 59.265 137.508 61.365V67.455C137.508 69.555 135.813 70.98 133.533 70.98ZM133.533 69.72C134.988 69.72 136.008 68.865 136.008 67.53V61.29C136.008 59.985 134.988 59.1 133.533 59.1C132.078 59.1 131.058 59.985 131.058 61.29V67.53C131.058 68.865 132.078 69.72 133.533 69.72ZM161.67 71.385H160.17V57.705H161.67V71.385ZM153.03 70.98C150.75 70.98 149.055 69.555 149.055 67.455V61.365C149.055 59.265 150.75 57.84 153.03 57.84C155.31 57.84 157.005 59.265 157.005 61.365V67.455C157.005 69.555 155.31 70.98 153.03 70.98ZM153.03 69.72C154.485 69.72 155.505 68.865 155.505 67.53V61.29C155.505 59.985 154.485 59.1 153.03 59.1C151.575 59.1 150.555 59.985 150.555 61.29V67.53C150.555 68.865 151.575 69.72 153.03 69.72ZM172.395 62.49H170.175V65.61H164.055V57.945H165.555V60.39H168.675V57.945H170.175V61.23H172.395V57.705H173.895V67.8H172.395V62.49ZM175.335 57.705H176.835V67.8H175.335V57.705ZM165.555 64.35H168.675V61.65H165.555V64.35ZM166.275 66.885V70.125H177.06V71.385H164.775V66.885H166.275ZM191.265 59.325H179.505V58.065H191.265V59.325ZM191.415 66.24H179.505V61.08H191.205V62.34H181.005V64.98H191.415V66.24ZM192.195 70.98H178.575V69.72H192.195V70.98ZM205.632 62.58V64.365H211.692V65.625H198.072V64.365H204.132V62.58H199.002V57.9H210.762V62.58H205.632ZM209.262 59.16H200.502V61.32H209.262V59.16ZM209.262 68.175H198.927V66.915H210.762V71.535H209.262V68.175ZM220.632 63.555V65.01H226.692V66.27H213.072V65.01H219.132V63.555H214.002V60.06H224.262V59.16H214.002V57.9H225.762V61.32H215.502V62.295H225.837V63.555H220.632ZM224.262 68.715H213.957V67.455H225.762V71.535H224.262V68.715ZM238.392 62.235H231.372C229.962 62.235 228.852 61.32 228.852 60.03C228.852 58.74 229.962 57.825 231.372 57.825H238.392C239.787 57.825 240.912 58.74 240.912 60.03C240.912 61.32 239.787 62.235 238.392 62.235ZM231.582 60.975H238.182C238.872 60.975 239.412 60.615 239.412 60.015C239.412 59.43 238.872 59.085 238.182 59.085H231.582C230.877 59.085 230.352 59.43 230.352 60.015C230.352 60.615 230.877 60.975 231.582 60.975ZM241.692 64.62H228.072V63.36H241.692V64.62ZM240.987 71.385H229.002V67.935H239.262V67.02H229.002V65.76H240.762V69.135H230.502V70.125H240.987V71.385ZM253.434 64.68L257.889 64.425V65.685L247.569 66.285V65.025L251.934 64.77V63.3H251.079C249.714 63.3 248.784 62.43 248.784 61.17C248.784 60.51 248.994 59.97 249.189 59.76H248.124V58.5H251.934V57.345H253.434V58.5H257.244V59.76H256.179C256.359 59.97 256.599 60.51 256.599 61.17C256.599 62.43 255.609 63.3 254.244 63.3H253.434V64.68ZM260.139 57.705V61.425H262.059V62.685H260.139V66.825H258.639V57.705H260.139ZM250.299 60.885C250.299 61.605 250.734 62.04 251.424 62.04H253.959C254.664 62.04 255.099 61.605 255.099 60.885C255.099 60.3 254.649 59.76 253.944 59.76H251.439C250.734 59.76 250.299 60.3 250.299 60.885ZM258.639 68.685H248.619V67.425H260.139V71.535H258.639V68.685ZM267.054 65.76C264.849 65.76 263.049 64.665 263.049 62.52V60.93C263.049 58.8 264.849 57.69 267.054 57.69C269.259 57.69 271.059 58.8 271.059 60.93V62.52C271.059 64.665 269.259 65.76 267.054 65.76ZM275.679 67.59H274.179V57.705H275.679V67.59ZM267.069 64.5C268.479 64.5 269.559 63.81 269.559 62.46V61.005C269.559 59.655 268.479 58.95 267.069 58.95C265.629 58.95 264.549 59.655 264.549 61.005V62.46C264.549 63.81 265.629 64.5 267.069 64.5ZM275.949 71.385H263.859V66.81H265.359V70.125H275.949V71.385ZM285.939 61.02H277.809V59.76H281.124V57.495H282.624V59.76H285.939V61.02ZM290.049 71.385H288.549V57.705H290.049V63.405H292.059V64.665H290.049V71.385ZM281.874 70.98C279.714 70.98 278.049 69.705 278.049 67.62V65.385C278.049 63.3 279.714 62.025 281.874 62.025C284.034 62.025 285.699 63.3 285.699 65.385V67.62C285.699 69.705 284.034 70.98 281.874 70.98ZM281.874 69.72C283.149 69.72 284.199 68.94 284.199 67.53V65.475C284.199 64.065 283.149 63.285 281.874 63.285C280.599 63.285 279.549 64.065 279.549 65.475V67.53C279.549 68.94 280.599 69.72 281.874 69.72ZM304.659 67.83H303.159L303.744 59.325H293.424V58.065H305.334L304.659 67.83ZM306.189 70.98H292.569V69.72H297.774V63.6H299.274V69.72H306.189V70.98ZM324.456 65.625H322.956V57.705H324.456V60.81H326.556V62.07H324.456V65.625ZM312.471 65.19V63.93C316.236 63.78 318.651 62.37 318.651 59.28H312.546V58.02H320.166V58.86C320.166 63.405 316.761 65.04 312.471 65.19ZM324.456 71.535H322.956V67.575H313.026V66.315H324.456V71.535ZM337.773 63.465H340.248V57.705H341.748V71.385H340.248V64.725H337.503C336.558 68.31 334.563 70.17 331.893 70.905V69.57C335.388 68.4 336.618 64.815 336.603 59.595H331.968V58.335H338.103V59.295C338.103 60.87 337.983 62.25 337.773 63.465ZM343.323 71.385V57.705H344.823V71.385H343.323ZM351.048 64.86C348.843 64.86 347.043 63.825 347.043 61.77V60.78C347.043 58.74 348.843 57.69 351.048 57.69C353.253 57.69 355.053 58.74 355.053 60.78V61.77C355.053 63.825 353.253 64.86 351.048 64.86ZM359.673 65.175H358.173V57.705H359.673V65.175ZM351.063 63.6C352.473 63.6 353.553 62.97 353.553 61.71V60.855C353.553 59.595 352.473 58.95 351.063 58.95C349.623 58.95 348.543 59.595 348.543 60.855V61.71C348.543 62.97 349.623 63.6 351.063 63.6ZM358.173 70.935L347.763 71.385V65.865H359.673V71.385H358.173V70.935ZM349.263 67.125V70.065L358.173 69.675V67.125H349.263ZM368.193 63.465H370.383V57.705H371.883V71.385H370.383V64.725H368.193V67.98C368.193 69.765 366.873 70.98 365.118 70.98C363.363 70.98 362.043 69.765 362.043 67.98V60.84C362.043 59.055 363.363 57.84 365.118 57.84C366.873 57.84 368.193 59.055 368.193 60.84V63.465ZM373.323 71.385V57.705H374.823V71.385H373.323ZM366.693 67.98V60.84C366.693 59.805 366.033 59.1 365.118 59.1C364.203 59.1 363.543 59.805 363.543 60.84V67.98C363.543 69.045 364.203 69.72 365.118 69.72C366.033 69.72 366.693 69.045 366.693 67.98ZM388.068 64.035H384.543V62.775H388.068V57.705H389.568V71.385H388.068V64.035ZM376.683 70.71V69.09C378.273 68.13 380.568 65.82 380.568 62.265V58.095H382.068V62.265C382.068 65.82 384.348 68.13 385.938 69.09V70.71C384.078 69.765 381.933 67.635 381.318 65.295C380.688 67.635 378.543 69.765 376.683 70.71ZM396.75 63.24V61.98C399.63 61.92 402.09 60.765 402.09 59.415V59.25H396.99V57.99H408.75V59.25H403.65V59.415C403.65 60.765 406.11 61.92 408.99 61.98V63.24C406.005 63.165 403.575 62.22 402.87 60.87C402.165 62.22 399.735 63.165 396.75 63.24ZM402.15 65.715H396.06V64.455H409.68V65.715H403.65V68.52H402.15V65.715ZM408.975 71.385H396.99V66.87H398.49V70.125H408.975V71.385ZM424.065 71.385H422.565V57.705H424.065V71.385ZM417.885 70.035L411.63 70.755V58.29H413.13V62.265H417.885V58.29H419.385V70.755H417.885V70.035ZM413.13 63.525V69.315L417.885 68.76V63.525H413.13ZM435.21 60.18H426.21V58.92H429.96V57.345H431.46V58.92H435.21V60.18ZM438.63 67.845H437.13V57.705H438.63V61.68H440.55V62.94H438.63V67.845ZM426.54 63.585C426.54 62.01 427.695 61.005 429.045 61.005H432.375C433.725 61.005 434.88 62.01 434.88 63.585C434.88 65.16 433.725 66.165 432.375 66.165H429.045C427.695 66.165 426.54 65.16 426.54 63.585ZM429.54 64.905H431.88C432.855 64.905 433.38 64.32 433.38 63.585C433.38 62.85 432.855 62.265 431.88 62.265H429.54C428.565 62.265 428.04 62.85 428.04 63.585C428.04 64.32 428.565 64.905 429.54 64.905ZM438.93 71.385H427.26V67.05H428.76V70.125H438.93V71.385ZM458.247 59.16H446.487V57.9H458.247V59.16ZM458.397 63.615H446.487V59.805H458.172V61.065H447.987V62.355H458.397V63.615ZM459.177 66.06H445.557V64.8H459.177V66.06ZM456.747 68.535H446.412V67.275H458.247V71.535H456.747V68.535ZM472.167 63.03H468.612V64.335H461.127V57.945H462.627V59.79H467.112V57.945H468.612V59.22H472.167V57.705H473.667V64.875H472.167V63.03ZM472.167 61.77V60.48H468.612V61.77H472.167ZM462.627 63.075H467.112V61.05H462.627V63.075ZM463.257 69.045V70.125H473.937V71.385H461.757V67.845H472.167V66.825H461.757V65.565H473.667V69.045H463.257ZM484.707 60.18H475.707V58.92H479.457V57.345H480.957V58.92H484.707V60.18ZM488.127 67.845H486.627V57.705H488.127V61.68H490.047V62.94H488.127V67.845ZM476.037 63.585C476.037 62.01 477.192 61.005 478.542 61.005H481.872C483.222 61.005 484.377 62.01 484.377 63.585C484.377 65.16 483.222 66.165 481.872 66.165H478.542C477.192 66.165 476.037 65.16 476.037 63.585ZM479.037 64.905H481.377C482.352 64.905 482.877 64.32 482.877 63.585C482.877 62.85 482.352 62.265 481.377 62.265H479.037C478.062 62.265 477.537 62.85 477.537 63.585C477.537 64.32 478.062 64.905 479.037 64.905ZM488.427 71.385H476.757V67.05H478.257V70.125H488.427V71.385ZM506.574 61.905H502.944V60.645H506.574V57.705H508.074V67.83H506.574V61.905ZM495.294 65.88V64.5C497.034 63.9 498.774 62.325 498.774 60.225V57.87H500.274V60.225C500.274 62.325 502.014 63.9 503.754 64.5V65.88C501.924 65.34 500.034 63.99 499.524 62.355C499.014 63.99 497.094 65.34 495.294 65.88ZM508.344 71.385H496.434V66.96H497.934V70.125H508.344V71.385ZM510.984 57.9H522.744V62.07H510.984V57.9ZM512.484 60.81H521.244V59.16H512.484V60.81ZM523.674 63.015V64.275H517.614V65.76H522.744V69.135H512.484V70.125H522.969V71.385H510.984V67.935H521.244V67.02H510.984V65.76H516.114V64.275H510.054V63.015H523.674ZM537.894 65.34H525.984V58.065H537.744V59.325H527.484V64.08H537.894V65.34ZM538.674 70.98H525.054V69.72H531.114V66.15H532.614V69.72H538.674V70.98ZM550.641 64.71L555.321 64.44V65.7L544.461 66.33V65.07L549.141 64.8V63.3H548.136C546.771 63.3 545.841 62.43 545.841 61.17C545.841 60.51 546.051 59.97 546.246 59.76H545.181V58.5H549.141V57.345H550.641V58.5H554.601V59.76H553.536C553.716 59.97 553.956 60.51 553.956 61.17C553.956 62.43 552.966 63.3 551.601 63.3H550.641V64.71ZM556.071 66.825V57.705H557.571V66.825H556.071ZM547.356 60.885C547.356 61.605 547.791 62.04 548.481 62.04H551.316C552.021 62.04 552.456 61.605 552.456 60.885C552.456 60.3 552.006 59.76 551.301 59.76H548.496C547.791 59.76 547.356 60.3 547.356 60.885ZM556.071 68.685H545.781V67.425H557.571V71.535H556.071V68.685ZM572.316 62.64H560.481V57.9H572.241V59.1H561.981V61.44H572.316V62.64ZM573.171 65.505H559.551V64.245H573.171V65.505ZM572.241 71.535H570.741V68.19H560.436V66.93H572.241V71.535ZM581.571 61.02H574.791V59.76H577.431V57.495H578.931V59.76H581.571V61.02ZM584.421 71.385H582.921V57.705H584.421V63.42H586.311V57.705H587.811V71.385H586.311V64.68H584.421V71.385ZM575.031 68.07V64.935C575.031 63.135 576.396 62.025 578.181 62.025C579.966 62.025 581.331 63.135 581.331 64.935V68.07C581.331 69.87 579.966 70.98 578.181 70.98C576.396 70.98 575.031 69.87 575.031 68.07ZM578.181 69.72C579.081 69.72 579.831 69.105 579.831 67.98V65.025C579.831 63.9 579.081 63.285 578.181 63.285C577.281 63.285 576.531 63.9 576.531 65.025V67.98C576.531 69.105 577.281 69.72 578.181 69.72ZM606.738 65.64H594.978V57.99H596.478V60.33H605.238V57.99H606.738V65.64ZM596.478 61.59V64.38H605.238V61.59H596.478ZM607.668 70.98H594.048V69.72H600.108V66.45H601.608V69.72H607.668V70.98ZM617.763 64.095H615.093V62.835H617.763V57.705H619.263V71.385H617.763V64.095ZM622.308 71.385H620.808V57.705H622.308V71.385ZM609.198 70.71V68.985C610.548 67.875 611.868 65.73 611.868 62.475V58.095H613.368V62.475C613.368 65.73 614.688 67.875 616.038 68.985V70.71C614.598 69.825 613.068 67.995 612.618 65.85C612.168 67.995 610.638 69.825 609.198 70.71ZM633.258 65.625H628.458C626.253 65.625 624.693 63.96 624.693 61.815C624.693 59.655 626.253 57.99 628.458 57.99H633.258C635.463 57.99 637.023 59.655 637.023 61.815C637.023 63.96 635.463 65.625 633.258 65.625ZM628.623 64.365H633.093C634.503 64.365 635.523 63.315 635.523 61.815C635.523 60.315 634.503 59.25 633.093 59.25H628.623C627.228 59.25 626.193 60.315 626.193 61.815C626.193 63.315 627.228 64.365 628.623 64.365ZM637.668 70.98H624.048V69.72H627.468V66.3H628.968V69.72H632.778V66.3H634.278V69.72H637.668V70.98ZM639.843 67.605L639.708 63.405V57.555H641.268V63.405L641.133 67.605H639.843ZM641.298 71.1H639.663V69.45H641.298V71.1Z" fill="#002942"/>
</svg>
