<svg width="979" height="40" viewBox="0 0 979 40" fill="none" xmlns="http://www.w3.org/2000/svg">
<path d="M25.0071 28.93V36.532L0.0170704 38.212V1.714H23.1171V8.854H9.25707V30.106L25.0071 28.93ZM26.0571 39.472V0.454H35.2971V14.608H40.5051V22.63H35.2971V39.472H26.0571ZM42.6471 39.472V25.066H78.3471V39.472H69.4431V38.38L42.6471 39.472ZM51.5091 30.61V33.13L69.4431 32.542V30.61H51.5091ZM41.1771 22.756V16.372H79.8171V22.756H41.1771ZM42.2271 7.426C42.2271 3.52 45.3771 0.244 49.2411 0.244H71.7111C75.5751 0.244 78.7671 3.52 78.7671 7.426C78.7671 11.29 75.5751 14.482 71.7111 14.482H49.2411C45.3771 14.482 42.2271 11.29 42.2271 7.426ZM51.0891 7.468C51.0891 8.098 51.5091 8.56 52.0551 8.56H69.1071C69.6531 8.56 70.0731 8.098 70.0731 7.468C70.0731 6.838 69.6531 6.334 69.1071 6.334H52.0551C51.5091 6.334 51.0891 6.838 51.0891 7.468ZM98.3729 26.83V21.832H132.729V32.71H107.613V34.306H133.569V39.472H98.3729V28.3H123.489V26.83H98.3729ZM122.439 12.088V18.64L96.6089 20.32V1.084H119.457V7.594H105.849V13.264L122.439 12.088ZM123.489 20.824V0.454H132.729V6.502H137.097V13.684H132.729V20.824H123.489ZM151.201 28.468V11.458C151.201 5.284 156.535 1.084 163.045 1.084C169.597 1.084 174.973 5.284 174.973 11.458V28.468C174.973 34.642 169.597 38.842 163.045 38.842C156.535 38.842 151.201 34.642 151.201 28.468ZM179.089 39.472V0.454H188.539V39.472H179.089ZM160.147 11.038V28.888C160.147 30.358 161.365 31.744 163.171 31.744C164.977 31.744 166.237 30.358 166.237 28.888V11.038C166.237 9.652 164.977 8.14 163.171 8.14C161.365 8.14 160.147 9.652 160.147 11.038ZM193.201 28.468V11.458C193.201 5.284 198.241 1.084 204.415 1.084C210.631 1.084 215.671 5.284 215.671 11.458V15.028H221.299V0.454H230.539V39.472H221.299V22.63H215.671V28.468C215.671 34.642 210.631 38.842 204.415 38.842C198.241 38.842 193.201 34.642 193.201 28.468ZM201.643 10.954V28.972C201.643 30.442 202.819 31.744 204.499 31.744C206.179 31.744 207.397 30.442 207.397 28.972V10.954C207.397 9.568 206.179 8.14 204.499 8.14C202.819 8.14 201.643 9.568 201.643 10.954ZM236.965 26.62V21.832H272.539V32.71H246.205V34.222H273.169V39.472H236.965V28.132H263.257V26.62H236.965ZM235.201 7.342V1.084H260.275V7.342H252.001C252.547 11.71 256.201 13.558 260.695 13.894V20.32C254.941 20.194 250.447 18.472 247.717 14.944C244.987 18.472 240.535 20.194 234.781 20.32V13.894C239.317 13.558 242.803 11.71 243.475 7.342H235.201ZM263.089 20.782V0.454H272.539V20.782H263.089ZM591.134 15.7V23.05H555.014V1.084H590.714V8.308H564.38V15.7H591.134ZM553.544 38.842V31.282H568.118V24.31H577.61V31.282H592.184V38.842H553.544ZM608.976 20.362V1.084H631.404V20.362H608.976ZM635.856 21.034V0.454H645.096V6.628H649.464V14.02H645.096V21.034H635.856ZM626.574 33.214V39.472H610.32V22.966H619.014V33.214H626.574ZM642.072 39.682H631.908C629.388 39.682 627.246 37.288 627.246 34.432C627.246 31.576 629.388 29.182 631.908 29.182H642.072C644.634 29.182 646.776 31.576 646.776 34.432C646.776 37.288 644.634 39.682 642.072 39.682ZM626.91 28.342V23.68H632.958V21.874H640.938V23.68H646.86V28.342H626.91ZM617.838 7.804V14.062H622.71V7.804H617.838ZM633.882 34.432C633.882 34.978 634.26 35.398 635.058 35.398H638.922C639.72 35.398 640.098 34.978 640.098 34.432C640.098 33.886 639.72 33.466 638.922 33.466H635.058C634.26 33.466 633.882 33.886 633.882 34.432ZM650.976 28.468V11.458C650.976 5.284 656.31 1.084 662.82 1.084C669.372 1.084 674.748 5.284 674.748 11.458V28.468C674.748 34.642 669.372 38.842 662.82 38.842C656.31 38.842 650.976 34.642 650.976 28.468ZM678.864 39.472V0.454H688.314V39.472H678.864ZM659.922 11.038V28.888C659.922 30.358 661.14 31.744 662.946 31.744C664.752 31.744 666.012 30.358 666.012 28.888V11.038C666.012 9.652 664.752 8.14 662.946 8.14C661.14 8.14 659.922 9.652 659.922 11.038ZM733.456 39.472V0.454H742.906V39.472H733.456ZM705.358 9.274V1.714H730.138V8.014C730.138 26.368 719.722 36.28 705.148 38.632V30.61C714.976 28.132 721.402 21.37 721.402 9.274H705.358ZM767.812 39.472V0.454H775.288V14.776H777.556V0.454H785.368V39.472H777.556V22.378H775.288V39.472H767.812ZM766.762 29.098V36.532L747.568 38.212V1.714H765.502V8.854H755.548V30.106L766.762 29.098ZM810.442 39.472V0.454H817.792V14.776H819.85V0.454H827.368V39.472H819.85V22.378H817.792V39.472H810.442ZM789.568 30.568V20.74C789.568 15.91 793.978 12.424 798.85 12.424C803.764 12.424 808.174 15.91 808.174 20.74V30.568C808.174 35.398 803.764 38.884 798.85 38.884C793.978 38.884 789.568 35.398 789.568 30.568ZM789.148 11.374V4.654H794.86V0.0339974H802.84V4.654H808.552V11.374H789.148ZM796.708 21.118V30.148C796.708 31.282 797.716 32.248 798.934 32.248C800.152 32.248 801.118 31.282 801.118 30.148V21.118C801.118 19.942 800.152 19.018 798.934 19.018C797.716 19.018 796.708 19.942 796.708 21.118ZM880.49 8.224H867.386C868.058 10.66 871.586 14.104 880.91 13.978V20.95C871.67 20.95 865.664 18.304 862.64 14.44C859.574 18.304 853.61 20.95 844.37 20.95V13.978C853.61 14.104 857.306 10.66 857.852 8.224H844.79V1.084H880.49V8.224ZM843.32 29.644V22.588H881.96V29.644H867.386V39.892H857.894V29.644H843.32ZM885.74 38.212V29.14C890.864 25.15 891.788 20.488 891.662 8.266V1.294H899.432V8.854C899.432 20.656 900.272 25.192 905.354 29.14V38.212C900.86 35.65 897.668 32.92 895.526 28.594C893.384 32.92 890.234 35.65 885.74 38.212ZM901.7 21.244V13.684H907.454V0.454H914.804V39.472H907.454V21.244H901.7ZM916.442 39.472V0.454H923.96V39.472H916.442ZM954.326 23.26H938.912C932.738 23.26 928.37 18.262 928.37 12.088C928.37 5.872 932.738 0.873999 938.912 0.873999H954.326C960.542 0.873999 964.91 5.872 964.91 12.088C964.91 18.262 960.542 23.26 954.326 23.26ZM927.32 38.842V31.282H934.208V24.688H942.734V31.282H950.714V24.688H959.24V31.282H965.96V38.842H927.32ZM937.82 12.088C937.82 14.44 939.374 16.162 941.684 16.162H951.638C953.948 16.162 955.502 14.44 955.502 12.088C955.502 9.778 953.948 8.056 951.638 8.056H941.684C939.374 8.056 937.82 9.778 937.82 12.088ZM970.16 16.834V0.454H978.98V16.834L978.56 28.594H970.58L970.16 16.834ZM970.58 39.472V31.576H978.56V39.472H970.58Z" fill="white"/>
<path d="M317.68 21.496V0.454H327.13V21.496H317.68ZM289.792 6.418V1.084H313.522V13.096H298.654V15.154L316.672 13.978V19.564L289.792 21.286V8.14H304.66V6.418H289.792ZM291.556 27.25V22.546H327.13V32.962H300.838V34.516H327.76V39.472H291.556V28.678H317.848V27.25H291.556ZM331.792 9.064V1.714H349.348L347.248 22.588H339.982V29.896L352.036 28.51V36.07L331.792 38.212V15.616H339.772L340.444 9.064H331.792ZM349.054 20.824V13.264H353.086V0.454H360.436V39.472H353.086V20.824H349.054ZM362.074 39.472V0.454H369.592V39.472H362.074ZM373.792 28.468V11.458C373.792 5.284 379.126 1.084 385.636 1.084C392.188 1.084 397.564 5.284 397.564 11.458V28.468C397.564 34.642 392.188 38.842 385.636 38.842C379.126 38.842 373.792 34.642 373.792 28.468ZM401.68 39.472V0.454H411.13V39.472H401.68ZM382.738 11.038V28.888C382.738 30.358 383.956 31.744 385.762 31.744C387.568 31.744 388.828 30.358 388.828 28.888V11.038C388.828 9.652 387.568 8.14 385.762 8.14C383.956 8.14 382.738 9.652 382.738 11.038ZM428.384 28.468V11.458C428.384 5.284 433.718 1.084 440.228 1.084C446.78 1.084 452.156 5.284 452.156 11.458V28.468C452.156 34.642 446.78 38.842 440.228 38.842C433.718 38.842 428.384 34.642 428.384 28.468ZM456.272 39.472V0.454H465.722V39.472H456.272ZM437.33 11.038V28.888C437.33 30.358 438.548 31.744 440.354 31.744C442.16 31.744 443.42 30.358 443.42 28.888V11.038C443.42 9.652 442.16 8.14 440.354 8.14C438.548 8.14 437.33 9.652 437.33 11.038ZM470.384 24.268V0.873999H477.692V5.578H481.514V0.873999H488.528V9.064H491.678V0.454H499.028V29.392H491.678V16.204H488.528V24.268H470.384ZM508.814 32.584V39.472H472.148V26.368H481.514V32.584H508.814ZM500.666 29.392V0.454H508.184V29.392H500.666ZM477.692 12.466V17.38H481.514V12.466H477.692ZM511.544 38.842V31.45H550.184V38.842H511.544ZM549.134 18.64V25.57H513.014V9.652H548.546V16.246H522.38V18.64H549.134ZM513.014 7.888V1.084H548.714V7.888H513.014Z" fill="#A5D912"/>
</svg>
