<svg width="73" height="24" viewBox="0 0 73 24" fill="none" xmlns="http://www.w3.org/2000/svg">
<path d="M0 12C0 5.37258 5.37258 0 12 0H61C67.6274 0 73 5.37258 73 12C73 18.6274 67.6274 24 61 24H12C5.37259 24 0 18.6274 0 12Z" fill="#FFB800"/>
<g clip-path="url(#clip0_3069_18333)">
<path d="M12.7 16.7025L6.00244 12L12.7 7.29749L13.297 8.28123L8.0004 12L13.297 15.7188L12.7 16.7025Z" fill="black"/>
<path d="M12.9985 9.35498C13.8023 9.35498 14.454 8.654 14.454 7.78931C14.454 6.92461 13.8023 6.22363 12.9985 6.22363C12.1946 6.22363 11.543 6.92461 11.543 7.78931C11.543 8.654 12.1946 9.35498 12.9985 9.35498Z" fill="black"/>
<path d="M12.9985 9.94234C11.8948 9.94234 10.9971 8.97647 10.9971 7.78945C10.9971 6.60243 11.8948 5.63635 12.9985 5.63635C14.1022 5.63635 14.9999 6.60223 14.9999 7.78925C14.9999 8.97627 14.102 9.94215 12.9985 9.94215V9.94234ZM12.9985 6.811C12.497 6.811 12.0891 7.24995 12.0891 7.78925C12.0891 8.32855 12.4971 8.7675 12.9985 8.7675C13.4999 8.7675 13.9079 8.32855 13.9079 7.78925C13.9079 7.24995 13.4999 6.811 12.9985 6.811Z" fill="black"/>
<path d="M12.9985 17.7762C13.8023 17.7762 14.454 17.0753 14.454 16.2106C14.454 15.3459 13.8023 14.6449 12.9985 14.6449C12.1946 14.6449 11.543 15.3459 11.543 16.2106C11.543 17.0753 12.1946 17.7762 12.9985 17.7762Z" fill="black"/>
<path d="M12.9985 18.3637C11.8948 18.3637 10.9971 17.3978 10.9971 16.2108C10.9971 15.0237 11.895 14.0579 12.9985 14.0579C14.102 14.0579 14.9999 15.0237 14.9999 16.2108C14.9999 17.3978 14.102 18.3637 12.9985 18.3637ZM12.9985 15.2323C12.497 15.2323 12.0891 15.6713 12.0891 16.2106C12.0891 16.7499 12.4971 17.1888 12.9985 17.1888C13.4999 17.1888 13.9079 16.7499 13.9079 16.2106C13.9079 15.6713 13.4999 15.2323 12.9985 15.2323Z" fill="black"/>
<path d="M8.43817 12.2512C8.56697 11.3977 8.02815 10.5934 7.23467 10.4549C6.4412 10.3163 5.69355 10.896 5.56475 11.7495C5.43596 12.603 5.97478 13.4072 6.76825 13.5458C7.56173 13.6843 8.30937 13.1047 8.43817 12.2512Z" fill="black"/>
<path d="M7.00142 14.1528C5.89774 14.1528 5 13.187 5 11.9999C5 10.8129 5.89792 9.84705 7.00142 9.84705C8.10493 9.84705 9.00285 10.8129 9.00285 11.9999C9.00285 13.187 8.10493 14.1528 7.00142 14.1528ZM7.00142 11.0215C6.49988 11.0215 6.092 11.4604 6.092 11.9997C6.092 12.5391 6.50006 12.978 7.00142 12.978C7.50278 12.978 7.91085 12.5391 7.91085 11.9997C7.91085 11.4604 7.50278 11.0215 7.00142 11.0215Z" fill="black"/>
</g>
<path d="M20.72 14.928C20.72 13.788 21.644 12.864 22.796 12.864H29.18C30.332 12.864 31.28 13.788 31.28 14.928C31.28 16.08 30.332 16.992 29.18 16.992H22.796C21.644 16.992 20.72 16.08 20.72 14.928ZM20.48 11.256C20.48 10.788 20.864 10.404 21.32 10.404H24.368V9.288C24.368 8.676 24.848 8.34 25.46 8.34C26.048 8.34 26.528 8.676 26.528 9.288V10.404H30.668C31.148 10.404 31.52 10.788 31.52 11.256C31.52 11.7 31.148 12.084 30.668 12.084H21.32C20.864 12.084 20.48 11.7 20.48 11.256ZM28.664 9.048C28.664 8.976 28.676 8.868 28.7 8.784C28.808 8.412 28.88 7.884 28.88 7.644H21.68C21.212 7.644 20.84 7.284 20.84 6.804C20.84 6.336 21.212 5.964 21.68 5.964H30.212C30.668 5.964 31.04 6.336 31.04 6.792C31.04 7.452 30.98 8.46 30.752 9.3C30.608 9.828 30.152 10.044 29.708 10.044C29.084 10.044 28.664 9.588 28.664 9.048ZM22.856 14.928C22.856 15.132 23 15.336 23.264 15.336H28.748C29.012 15.336 29.144 15.132 29.144 14.928C29.144 14.724 29.012 14.52 28.748 14.52H23.264C23 14.52 22.856 14.724 22.856 14.928ZM32.78 8.616C32.78 7.188 33.884 6.024 35.372 6.024H40.628C42.116 6.024 43.22 7.188 43.22 8.616C43.22 10.044 42.116 11.208 40.628 11.208H35.372C33.884 11.208 32.78 10.044 32.78 8.616ZM32.48 13.116C32.48 12.624 32.9 12.216 33.392 12.216H42.596C43.112 12.216 43.52 12.624 43.52 13.116C43.52 13.596 43.112 14.016 42.596 14.016H41.516V16.032C41.516 16.644 41.048 17.112 40.436 17.112C39.824 17.112 39.356 16.644 39.356 16.032V14.016H36.968C36.872 14.88 36.668 15.66 36.284 16.452C36.056 16.92 35.72 17.172 35.264 17.172C34.52 17.172 33.944 16.452 34.22 15.78C34.472 15.156 34.64 14.616 34.748 14.016H33.392C32.9 14.016 32.48 13.596 32.48 13.116ZM34.916 8.616C34.916 9.132 35.276 9.432 35.792 9.432H40.208C40.724 9.432 41.084 9.132 41.084 8.616C41.084 8.1 40.724 7.8 40.208 7.8H35.792C35.276 7.8 34.916 8.1 34.916 8.616ZM44.78 13.884V12.144C44.78 10.368 46.268 9.324 48.044 9.324C49.82 9.324 51.32 10.368 51.32 12.144V13.884C51.32 15.66 49.82 16.692 48.044 16.692C46.268 16.692 44.78 15.66 44.78 13.884ZM52.64 16.032V6.804C52.64 6.192 53.12 5.724 53.72 5.724C54.32 5.724 54.8 6.192 54.8 6.804V10.116H55.388C55.88 10.116 56.288 10.512 56.288 11.016C56.288 11.52 55.88 11.916 55.388 11.916H54.8V16.032C54.8 16.656 54.32 17.112 53.72 17.112C53.12 17.112 52.64 16.656 52.64 16.032ZM44.48 7.884C44.48 7.392 44.84 6.984 45.368 6.984H46.964V6.624C46.964 6.012 47.444 5.604 48.044 5.604C48.644 5.604 49.124 6.012 49.124 6.624V6.984H50.72C51.224 6.984 51.62 7.38 51.62 7.884C51.62 8.388 51.224 8.784 50.72 8.784H45.368C44.84 8.784 44.48 8.388 44.48 7.884ZM46.916 12.168V13.86C46.916 14.496 47.408 14.916 48.056 14.916C48.704 14.916 49.184 14.496 49.184 13.86V12.168C49.184 11.532 48.704 11.1 48.056 11.1C47.408 11.1 46.916 11.532 46.916 12.168ZM64.976 16.032V6.804C64.976 6.192 65.456 5.724 66.056 5.724C66.656 5.724 67.136 6.192 67.136 6.804V16.032C67.136 16.656 66.656 17.112 66.056 17.112C65.456 17.112 64.976 16.656 64.976 16.032ZM56.48 15.516C56.48 15.12 56.696 14.772 57.032 14.604C60.032 13.116 61.34 10.812 61.34 8.004H57.548C57.056 8.004 56.66 7.608 56.66 7.116C56.66 6.6 57.056 6.204 57.548 6.204H62.66C63.128 6.204 63.5 6.576 63.5 7.044V7.704C63.5 10.884 62.336 14.388 57.98 16.404C57.824 16.476 57.632 16.512 57.452 16.512C56.9 16.512 56.48 16.056 56.48 15.516Z" fill="black"/>
<defs>
<clipPath id="clip0_3069_18333">
<rect width="10" height="12.7273" fill="white" transform="translate(5 5.63635)"/>
</clipPath>
</defs>
</svg>
