<svg width="73" height="24" viewBox="0 0 73 24" fill="none" xmlns="http://www.w3.org/2000/svg">
<path d="M0 12C0 5.37258 5.37258 0 12 0H61C67.6274 0 73 5.37258 73 12C73 18.6274 67.6274 24 61 24H12C5.37259 24 0 18.6274 0 12Z" fill="black"/>
<g clip-path="url(#clip0_3069_18330)">
<path d="M12.7001 16.4338L6.00256 12L12.7001 7.56616L13.2971 8.4937L8.00052 12L13.2971 15.5062L12.7001 16.4338Z" fill="#B4B4B4"/>
<path d="M12.9986 9.50612C13.8025 9.50612 14.4541 8.8452 14.4541 8.02992C14.4541 7.21463 13.8025 6.55371 12.9986 6.55371C12.1947 6.55371 11.5431 7.21463 11.5431 8.02992C11.5431 8.8452 12.1947 9.50612 12.9986 9.50612Z" fill="#B4B4B4"/>
<path d="M12.9986 10.0599C11.8949 10.0599 10.9972 9.14925 10.9972 8.03006C10.9972 6.91087 11.8949 6 12.9986 6C14.1023 6 15 6.91068 15 8.02987C15 9.14906 14.1021 10.0597 12.9986 10.0597V10.0599ZM12.9986 7.10752C12.4971 7.10752 12.0892 7.52139 12.0892 8.02987C12.0892 8.53836 12.4973 8.95222 12.9986 8.95222C13.5 8.95222 13.908 8.53836 13.908 8.02987C13.908 7.52139 13.5 7.10752 12.9986 7.10752Z" fill="#B4B4B4"/>
<path d="M12.9986 17.4462C13.8025 17.4462 14.4541 16.7853 14.4541 15.97C14.4541 15.1547 13.8025 14.4938 12.9986 14.4938C12.1947 14.4938 11.5431 15.1547 11.5431 15.97C11.5431 16.7853 12.1947 17.4462 12.9986 17.4462Z" fill="#B4B4B4"/>
<path d="M12.9986 18.0001C11.8949 18.0001 10.9972 17.0894 10.9972 15.9702C10.9972 14.851 11.8951 13.9403 12.9986 13.9403C14.1021 13.9403 15 14.851 15 15.9702C15 17.0894 14.1021 18.0001 12.9986 18.0001ZM12.9986 15.0476C12.4971 15.0476 12.0892 15.4615 12.0892 15.97C12.0892 16.4785 12.4973 16.8923 12.9986 16.8923C13.5 16.8923 13.908 16.4785 13.908 15.97C13.908 15.4615 13.5 15.0476 12.9986 15.0476Z" fill="#B4B4B4"/>
<path d="M8.4383 12.2369C8.56709 11.4321 8.02827 10.6738 7.2348 10.5432C6.44132 10.4126 5.69367 10.9591 5.56488 11.7638C5.43608 12.5686 5.9749 13.3268 6.76837 13.4575C7.56185 13.5881 8.3095 13.0416 8.4383 12.2369Z" fill="#B4B4B4"/>
<path d="M7.00142 14.0298C5.89774 14.0298 5 13.1192 5 12C5 10.8808 5.89792 9.97009 7.00142 9.97009C8.10493 9.97009 9.00285 10.8808 9.00285 12C9.00285 13.1192 8.10493 14.0298 7.00142 14.0298ZM7.00142 11.0774C6.49988 11.0774 6.092 11.4913 6.092 11.9998C6.092 12.5083 6.50006 12.9221 7.00142 12.9221C7.50278 12.9221 7.91085 12.5083 7.91085 11.9998C7.91085 11.4913 7.50278 11.0774 7.00142 11.0774Z" fill="#B4B4B4"/>
</g>
<path d="M20.72 14.928C20.72 13.788 21.644 12.864 22.796 12.864H29.18C30.332 12.864 31.28 13.788 31.28 14.928C31.28 16.08 30.332 16.992 29.18 16.992H22.796C21.644 16.992 20.72 16.08 20.72 14.928ZM20.48 11.256C20.48 10.788 20.864 10.404 21.32 10.404H24.368V9.288C24.368 8.676 24.848 8.34 25.46 8.34C26.048 8.34 26.528 8.676 26.528 9.288V10.404H30.668C31.148 10.404 31.52 10.788 31.52 11.256C31.52 11.7 31.148 12.084 30.668 12.084H21.32C20.864 12.084 20.48 11.7 20.48 11.256ZM28.664 9.048C28.664 8.976 28.676 8.868 28.7 8.784C28.808 8.412 28.88 7.884 28.88 7.644H21.68C21.212 7.644 20.84 7.284 20.84 6.804C20.84 6.336 21.212 5.964 21.68 5.964H30.212C30.668 5.964 31.04 6.336 31.04 6.792C31.04 7.452 30.98 8.46 30.752 9.3C30.608 9.828 30.152 10.044 29.708 10.044C29.084 10.044 28.664 9.588 28.664 9.048ZM22.856 14.928C22.856 15.132 23 15.336 23.264 15.336H28.748C29.012 15.336 29.144 15.132 29.144 14.928C29.144 14.724 29.012 14.52 28.748 14.52H23.264C23 14.52 22.856 14.724 22.856 14.928ZM32.78 8.616C32.78 7.188 33.884 6.024 35.372 6.024H40.628C42.116 6.024 43.22 7.188 43.22 8.616C43.22 10.044 42.116 11.208 40.628 11.208H35.372C33.884 11.208 32.78 10.044 32.78 8.616ZM32.48 13.116C32.48 12.624 32.9 12.216 33.392 12.216H42.596C43.112 12.216 43.52 12.624 43.52 13.116C43.52 13.596 43.112 14.016 42.596 14.016H41.516V16.032C41.516 16.644 41.048 17.112 40.436 17.112C39.824 17.112 39.356 16.644 39.356 16.032V14.016H36.968C36.872 14.88 36.668 15.66 36.284 16.452C36.056 16.92 35.72 17.172 35.264 17.172C34.52 17.172 33.944 16.452 34.22 15.78C34.472 15.156 34.64 14.616 34.748 14.016H33.392C32.9 14.016 32.48 13.596 32.48 13.116ZM34.916 8.616C34.916 9.132 35.276 9.432 35.792 9.432H40.208C40.724 9.432 41.084 9.132 41.084 8.616C41.084 8.1 40.724 7.8 40.208 7.8H35.792C35.276 7.8 34.916 8.1 34.916 8.616ZM44.78 13.884V12.144C44.78 10.368 46.268 9.324 48.044 9.324C49.82 9.324 51.32 10.368 51.32 12.144V13.884C51.32 15.66 49.82 16.692 48.044 16.692C46.268 16.692 44.78 15.66 44.78 13.884ZM52.64 16.032V6.804C52.64 6.192 53.12 5.724 53.72 5.724C54.32 5.724 54.8 6.192 54.8 6.804V10.116H55.388C55.88 10.116 56.288 10.512 56.288 11.016C56.288 11.52 55.88 11.916 55.388 11.916H54.8V16.032C54.8 16.656 54.32 17.112 53.72 17.112C53.12 17.112 52.64 16.656 52.64 16.032ZM44.48 7.884C44.48 7.392 44.84 6.984 45.368 6.984H46.964V6.624C46.964 6.012 47.444 5.604 48.044 5.604C48.644 5.604 49.124 6.012 49.124 6.624V6.984H50.72C51.224 6.984 51.62 7.38 51.62 7.884C51.62 8.388 51.224 8.784 50.72 8.784H45.368C44.84 8.784 44.48 8.388 44.48 7.884ZM46.916 12.168V13.86C46.916 14.496 47.408 14.916 48.056 14.916C48.704 14.916 49.184 14.496 49.184 13.86V12.168C49.184 11.532 48.704 11.1 48.056 11.1C47.408 11.1 46.916 11.532 46.916 12.168ZM64.976 16.032V6.804C64.976 6.192 65.456 5.724 66.056 5.724C66.656 5.724 67.136 6.192 67.136 6.804V16.032C67.136 16.656 66.656 17.112 66.056 17.112C65.456 17.112 64.976 16.656 64.976 16.032ZM56.48 15.516C56.48 15.12 56.696 14.772 57.032 14.604C60.032 13.116 61.34 10.812 61.34 8.004H57.548C57.056 8.004 56.66 7.608 56.66 7.116C56.66 6.6 57.056 6.204 57.548 6.204H62.66C63.128 6.204 63.5 6.576 63.5 7.044V7.704C63.5 10.884 62.336 14.388 57.98 16.404C57.824 16.476 57.632 16.512 57.452 16.512C56.9 16.512 56.48 16.056 56.48 15.516Z" fill="white"/>
<defs>
<clipPath id="clip0_3069_18330">
<rect width="10" height="12" fill="white" transform="translate(5 6)"/>
</clipPath>
</defs>
</svg>
