<svg width="114" height="72" viewBox="0 0 114 72" fill="none" xmlns="http://www.w3.org/2000/svg">
<path d="M59.5187 3.89281C58.3366 2.06574 55.6634 2.06574 54.4813 3.89281L33.1487 36.8629C31.8572 38.859 33.29 41.4926 35.6675 41.4926H78.3325C80.71 41.4926 82.1428 38.859 80.8513 36.8629L59.5187 3.89281Z" fill="#FF3C00"/>
<path d="M54.7876 11.8076L55.3684 29.2281H58.9697L59.5505 11.8076H54.7876ZM54.5262 33.9503C54.5262 34.6606 54.7682 35.2652 55.2523 35.7643C55.7363 36.2826 56.3752 36.5418 57.1691 36.5418C57.9629 36.5418 58.6018 36.2826 59.0858 35.7643C59.5699 35.2652 59.8119 34.6606 59.8119 33.9503C59.8119 33.24 59.5699 32.6354 59.0858 32.1363C58.6018 31.618 57.9629 31.3588 57.1691 31.3588C56.3752 31.3588 55.7363 31.618 55.2523 32.1363C54.7682 32.6354 54.5262 33.24 54.5262 33.9503Z" fill="white"/>
<path d="M1.496 58.293V55.879H4.675V54.689H8.551V55.879H11.73V58.293H10.761C10.897 58.616 10.999 58.939 10.999 59.296C10.999 60.605 10.183 61.472 8.823 61.472H8.33V62.509L12.121 62.322V64.838L1.326 65.348V62.832L4.879 62.662V61.472H4.369C3.009 61.472 2.21 60.605 2.21 59.296C2.21 58.956 2.278 58.616 2.431 58.293H1.496ZM12.546 65.603V55.029H16.286V58.684H18.054V61.761H16.286V65.603H12.546ZM2.21 68.476V66.028H16.286V70.992H12.376V68.476H2.21ZM4.947 58.769C4.947 59.041 5.185 59.279 5.508 59.279H7.684C8.007 59.279 8.245 59.041 8.245 58.769C8.245 58.446 8.007 58.225 7.684 58.225H5.508C5.185 58.225 4.947 58.446 4.947 58.769ZM29.954 66.521V55.029H33.779V66.521H29.954ZM34.034 68.034V70.822H19.38V65.416H23.171V68.034H34.034ZM18.666 60.707V58.905C18.666 56.406 20.825 55.029 23.477 55.029C26.112 55.029 28.271 56.406 28.271 58.905V60.707C28.271 63.155 26.112 64.532 23.477 64.532C20.825 64.532 18.666 63.155 18.666 60.707ZM22.338 58.701V60.911C22.338 61.506 22.814 61.931 23.477 61.931C24.106 61.931 24.616 61.506 24.616 60.911V58.701C24.616 58.106 24.106 57.63 23.477 57.63C22.814 57.63 22.338 58.106 22.338 58.701ZM44.115 70.822V55.029H47.09V60.826H47.923V55.029H50.966V70.822H47.923V63.903H47.09V70.822H44.115ZM35.666 67.218V63.24C35.666 61.285 37.451 59.874 39.423 59.874C41.412 59.874 43.197 61.285 43.197 63.24V67.218C43.197 69.173 41.412 70.584 39.423 70.584C37.451 70.584 35.666 69.173 35.666 67.218ZM35.496 59.449V56.729H37.808V54.859H41.038V56.729H43.35V59.449H35.496ZM38.556 63.393V67.048C38.556 67.507 38.964 67.898 39.457 67.898C39.95 67.898 40.341 67.507 40.341 67.048V63.393C40.341 62.917 39.95 62.543 39.457 62.543C38.964 62.543 38.556 62.917 38.556 63.393ZM72.4677 58.174H67.1637C67.4357 59.16 68.8637 60.554 72.6377 60.503V63.325C68.8977 63.325 66.4667 62.254 65.2427 60.69C64.0017 62.254 61.5877 63.325 57.8477 63.325V60.503C61.5877 60.554 63.0837 59.16 63.3047 58.174H58.0177V55.284H72.4677V58.174ZM57.4227 66.844V63.988H73.0627V66.844H67.1637V70.992H63.3217V66.844H57.4227ZM74.5927 70.312V66.64C76.6667 65.025 77.0407 63.138 76.9897 58.191V55.369H80.1347V58.429C80.1347 63.206 80.4747 65.042 82.5317 66.64V70.312C80.7127 69.275 79.4207 68.17 78.5537 66.419C77.6867 68.17 76.4117 69.275 74.5927 70.312ZM81.0527 63.444V60.384H83.3817V55.029H86.3567V70.822H83.3817V63.444H81.0527ZM87.0197 70.822V55.029H90.0627V70.822H87.0197ZM102.354 64.26H96.1147C93.6157 64.26 91.8477 62.237 91.8477 59.738C91.8477 57.222 93.6157 55.199 96.1147 55.199H102.354C104.87 55.199 106.638 57.222 106.638 59.738C106.638 62.237 104.87 64.26 102.354 64.26ZM91.4227 70.567V67.507H94.2107V64.838H97.6617V67.507H100.892V64.838H104.343V67.507H107.063V70.567H91.4227ZM95.6727 59.738C95.6727 60.69 96.3017 61.387 97.2367 61.387H101.266C102.201 61.387 102.83 60.69 102.83 59.738C102.83 58.803 102.201 58.106 101.266 58.106H97.2367C96.3017 58.106 95.6727 58.803 95.6727 59.738ZM108.763 61.659V55.029H112.333V61.659L112.163 66.419H108.933L108.763 61.659ZM108.933 70.822V67.626H112.163V70.822H108.933Z" fill="white"/>
</svg>
