<svg width="215" height="66" viewBox="0 0 215 66" fill="none" xmlns="http://www.w3.org/2000/svg">
<g filter="url(#filter0_d_1830_1908)">
<path d="M0 10C0 4.47715 4.47715 0 10 0H205C210.523 0 215 4.47715 215 10V52C215 57.5228 210.523 62 205 62H10C4.47716 62 0 57.5228 0 52V10Z" fill="#13D7F1"/>
<path d="M26.7919 35.176V27.481C26.7919 24.688 29.2049 22.788 32.1499 22.788C35.1139 22.788 37.5459 24.688 37.5459 27.481V35.176C37.5459 37.969 35.1139 39.869 32.1499 39.869C29.2049 39.869 26.7919 37.969 26.7919 35.176ZM39.4079 40.154V22.503H43.6829V40.154H39.4079ZM30.8389 27.291V35.366C30.8389 36.031 31.3899 36.658 32.2069 36.658C33.0239 36.658 33.5939 36.031 33.5939 35.366V27.291C33.5939 26.664 33.0239 25.98 32.2069 25.98C31.3899 25.98 30.8389 26.664 30.8389 27.291ZM45.7919 33.276V22.693H49.0979V24.821H50.8269V22.693H53.9999V26.398H55.4249V22.503H58.7499V35.594H55.4249V29.628H53.9999V33.276H45.7919ZM63.1769 37.038V40.154H46.5899V34.226H50.8269V37.038H63.1769ZM59.4909 35.594V22.503H62.8919V35.594H59.4909ZM49.0979 27.937V30.16H50.8269V27.937H49.0979ZM64.4119 39.869V36.525H81.8919V39.869H64.4119ZM81.4169 30.73V33.865H65.0769V26.664H81.1509V29.647H69.3139V30.73H81.4169ZM65.0769 25.866V22.788H81.2269V25.866H65.0769ZM89.4881 39.584V22.959H93.4971V27.025H95.7201V22.959H99.6531V39.584H95.7201V38.9L89.4881 39.584ZM101.648 40.154V22.503H105.828V28.906H107.804V32.535H105.828V40.154H101.648ZM93.4971 30.236V35.898L95.7201 35.67V30.236H93.4971ZM108.773 25.676V22.788H124.923V29.324H112.934V30.274H125.113V33.276H108.773V26.55H120.762V25.676H108.773ZM108.108 39.869V36.487H114.701V33.846H118.995V36.487H125.588V39.869H108.108ZM127.488 26.493V23.073H137.843V25.923C137.843 34.207 134.005 38.729 127.393 39.774V36.145C131.725 35.005 133.91 31.984 133.891 26.493H127.488ZM139.268 40.154V22.503H143.448V28.906H145.804V32.535H143.448V40.154H139.268ZM159.104 40.154V22.503H163.379V40.154H159.104ZM146.393 26.493V23.073H157.603V25.923C157.603 34.226 152.891 38.71 146.298 39.774V36.145C150.744 35.024 153.651 31.965 153.651 26.493H146.393Z" fill="white"/>
<path fill-rule="evenodd" clip-rule="evenodd" d="M179.36 22.4205C178.694 21.7544 177.614 21.7544 176.948 22.4205C176.282 23.0866 176.282 24.1666 176.948 24.8327L183.093 30.9776L176.948 37.1226C176.269 37.801 176.269 38.901 176.948 39.5795C177.626 40.258 178.726 40.258 179.405 39.5795L186.733 32.2508C187.411 31.573 187.412 30.4744 186.735 29.7958C186.735 29.7952 186.734 29.7945 186.733 29.7939L179.36 22.4205Z" fill="white"/>
</g>
<defs>
<filter id="filter0_d_1830_1908" x="0" y="0" width="215" height="66" filterUnits="userSpaceOnUse" color-interpolation-filters="sRGB">
<feFlood flood-opacity="0" result="BackgroundImageFix"/>
<feColorMatrix in="SourceAlpha" type="matrix" values="0 0 0 0 0 0 0 0 0 0 0 0 0 0 0 0 0 0 127 0" result="hardAlpha"/>
<feOffset dy="4"/>
<feComposite in2="hardAlpha" operator="out"/>
<feColorMatrix type="matrix" values="0 0 0 0 0 0 0 0 0 0.325139 0 0 0 0 0.368978 0 0 0 1 0"/>
<feBlend mode="normal" in2="BackgroundImageFix" result="effect1_dropShadow_1830_1908"/>
<feBlend mode="normal" in="SourceGraphic" in2="effect1_dropShadow_1830_1908" result="shape"/>
</filter>
</defs>
</svg>
