<svg width="215" height="66" viewBox="0 0 215 66" fill="none" xmlns="http://www.w3.org/2000/svg">
<g filter="url(#filter0_d_1830_1906)">
<path d="M0 10C0 4.47715 4.47715 0 10 0H205C210.523 0 215 4.47715 215 10V52C215 57.5228 210.523 62 205 62H10C4.47716 62 0 57.5228 0 52V10Z" fill="black"/>
<path d="M89.45 26.151V23.453H93.003V22.123H97.335V23.453H100.888V26.151H99.805C99.957 26.512 100.071 26.873 100.071 27.272C100.071 28.735 99.159 29.704 97.639 29.704H97.088V30.863L101.325 30.654V33.466L89.26 34.036V31.224L93.231 31.034V29.704H92.661C91.141 29.704 90.248 28.735 90.248 27.272C90.248 26.892 90.324 26.512 90.495 26.151H89.45ZM101.8 34.321V22.503H105.98V26.588H107.956V30.027H105.98V34.321H101.8ZM90.248 37.532V34.796H105.98V40.344H101.61V37.532H90.248ZM93.307 26.683C93.307 26.987 93.573 27.253 93.934 27.253H96.366C96.727 27.253 96.993 26.987 96.993 26.683C96.993 26.322 96.727 26.075 96.366 26.075H93.934C93.573 26.075 93.307 26.322 93.307 26.683ZM121.256 35.347V22.503H125.531V35.347H121.256ZM125.816 37.038V40.154H109.438V34.112H113.675V37.038H125.816ZM108.64 28.849V26.835C108.64 24.042 111.053 22.503 114.017 22.503C116.962 22.503 119.375 24.042 119.375 26.835V28.849C119.375 31.585 116.962 33.124 114.017 33.124C111.053 33.124 108.64 31.585 108.64 28.849ZM112.744 26.607V29.077C112.744 29.742 113.276 30.217 114.017 30.217C114.72 30.217 115.29 29.742 115.29 29.077V26.607C115.29 25.942 114.72 25.41 114.017 25.41C113.276 25.41 112.744 25.942 112.744 26.607Z" fill="white"/>
</g>
<defs>
<filter id="filter0_d_1830_1906" x="0" y="0" width="215" height="66" filterUnits="userSpaceOnUse" color-interpolation-filters="sRGB">
<feFlood flood-opacity="0" result="BackgroundImageFix"/>
<feColorMatrix in="SourceAlpha" type="matrix" values="0 0 0 0 0 0 0 0 0 0 0 0 0 0 0 0 0 0 127 0" result="hardAlpha"/>
<feOffset dy="4"/>
<feComposite in2="hardAlpha" operator="out"/>
<feColorMatrix type="matrix" values="0 0 0 0 0 0 0 0 0 0 0 0 0 0 0 0 0 0 0.36 0"/>
<feBlend mode="normal" in2="BackgroundImageFix" result="effect1_dropShadow_1830_1906"/>
<feBlend mode="normal" in="SourceGraphic" in2="effect1_dropShadow_1830_1906" result="shape"/>
</filter>
</defs>
</svg>
