<svg width="17" height="17" viewBox="0 0 17 17" fill="none" xmlns="http://www.w3.org/2000/svg">
<g clip-path="url(#clip0_3457_3542)">
<path d="M17 8.50021C17 13.1948 13.1944 17.0004 8.49979 17.0004C3.80559 17 0 13.1944 0 8.50021C0 3.80559 3.80559 0 8.50021 0C13.1948 0 17.0004 3.80559 17.0004 8.50021H17Z" fill="#214B9C"/>
<path d="M9.72679 7.71941L13.1653 4.04175H11.8595L9.16077 6.92877L7.0939 4.04175H3.52234L7.13754 9.09191L3.52234 12.9591H4.82809L7.70399 9.88297L9.90606 12.9591H13.4776L9.72679 7.71984V7.71941ZM5.36245 4.98726H6.60745L11.6371 12.0127H10.3921L5.36245 4.98726Z" fill="white"/>
</g>
<defs>
<clipPath id="clip0_3457_3542">
<rect width="17" height="17" fill="white"/>
</clipPath>
</defs>
</svg>
