<svg width="17" height="17" viewBox="0 0 17 17" fill="none" xmlns="http://www.w3.org/2000/svg">
<g clip-path="url(#clip0_2784_2597)">
<circle cx="8.5" cy="8.5" r="8.5" fill="black"/>
<path fill-rule="evenodd" clip-rule="evenodd" d="M10.8199 5.31812C11.0609 5.52473 11.0803 5.88166 10.8631 6.11123L6.30378 10.9317C6.08693 11.1613 5.7123 11.1798 5.47136 10.9728C5.23041 10.7662 5.21098 10.4093 5.42822 10.1797L9.9875 5.35922C10.2044 5.12966 10.579 5.11114 10.8199 5.31812ZM13.0774 2.93139C14.4286 4.09143 14.5378 6.09383 13.3203 7.38124L12.8163 7.91442C11.9011 8.88192 10.4869 9.18109 9.267 8.7775L10.1702 7.82259C10.8141 7.87628 11.4771 7.65264 11.9407 7.16278L12.4447 6.6296C13.2282 5.80095 13.1579 4.51242 12.2885 3.76597C11.4188 3.01952 10.0664 3.08653 9.28293 3.91482L8.77889 4.448C8.31527 4.93823 8.1505 5.58952 8.27369 6.19417L7.37054 7.14908C6.82297 6.03495 6.98852 4.66349 7.90334 3.69599L8.40737 3.16281C9.62492 1.8754 11.7266 1.77135 13.0778 2.93139H13.0774ZM8.92152 9.14259C9.46908 10.2567 9.30353 11.6282 8.38872 12.5957L7.88468 13.1289C6.66714 14.4163 4.56548 14.5203 3.21425 13.3603C1.86303 12.2002 1.75382 10.1978 2.97137 8.91043L3.47541 8.37725C4.39061 7.40975 5.80479 7.11057 7.02467 7.51416L6.12152 8.46907C5.47757 8.41539 4.81459 8.63903 4.35097 9.12889L3.84693 9.66207C3.06347 10.4907 3.13381 11.7792 4.00315 12.5257C4.87288 13.2721 6.22528 13.2051 7.00873 12.3769L7.51277 11.8437C7.9764 11.3534 8.14117 10.7021 8.01798 10.0975L8.92113 9.14259H8.92152Z" fill="white"/>
</g>
<defs>
<clipPath id="clip0_2784_2597">
<rect width="17" height="17" fill="white"/>
</clipPath>
</defs>
</svg>
