<svg width="17" height="17" viewBox="0 0 17 17" fill="none" xmlns="http://www.w3.org/2000/svg">
<g clip-path="url(#clip0_3457_3534)">
<path d="M8.5 17C13.1944 17 17 13.1944 17 8.5C17 3.80558 13.1944 0 8.5 0C3.80558 0 0 3.80558 0 8.5C0 13.1944 3.80558 17 8.5 17Z" fill="#214B9C"/>
<path d="M8.58064 12.8394C8.22049 12.8419 7.86286 12.8256 7.50649 12.7752C7.45234 12.7676 7.40952 12.7777 7.36419 12.8104C6.65649 13.3066 5.95004 13.804 5.21967 14.2674C5.13152 14.3241 5.03834 14.3732 4.94641 14.4261C4.91367 14.445 4.87967 14.4563 4.84189 14.4613C4.72478 14.4777 4.65678 14.4084 4.68197 14.2926C4.72478 14.0886 4.78649 13.8896 4.84315 13.6894C4.98671 13.1844 5.13152 12.6795 5.27634 12.1745C5.28893 12.1304 5.28515 12.109 5.23856 12.0864C4.54975 11.7376 3.94152 11.283 3.44664 10.6873C2.95678 10.098 2.6256 9.43312 2.50723 8.67252C2.37249 7.80238 2.52612 6.98008 2.94545 6.20815C3.35597 5.4526 3.94908 4.86704 4.66434 4.40112C5.42871 3.90497 6.26738 3.59519 7.16019 3.434C7.82634 3.31437 8.49752 3.28415 9.17123 3.34586C10.4393 3.46045 11.6092 3.85208 12.6405 4.61267C13.3255 5.11763 13.8758 5.73971 14.2108 6.52926C14.7472 7.7923 14.6352 9.01504 13.9212 10.1799C13.464 10.9266 12.8218 11.487 12.0688 11.9227C11.3497 12.3395 10.5753 12.6027 9.75552 12.7399C9.36641 12.8054 8.97353 12.8394 8.57812 12.8419L8.58064 12.8394Z" fill="white"/>
<path d="M11.3863 7.74953C11.3989 7.73064 11.4102 7.71049 11.4266 7.69412C11.7238 7.39568 12.0222 7.09723 12.3207 6.80005C12.4328 6.68798 12.57 6.67161 12.7035 6.7522C12.837 6.83279 12.9037 6.9902 12.8634 7.12872C12.8483 7.18161 12.8156 7.22316 12.7765 7.2622C12.5322 7.50523 12.2892 7.75079 12.0437 7.99257C12.0097 8.02657 12.0109 8.04546 12.0386 8.08198C12.3106 8.43961 12.5814 8.79975 12.8521 9.15864C12.9705 9.31605 12.9541 9.51627 12.8156 9.63968C12.6607 9.77694 12.4315 9.75553 12.3018 9.58553C12.0588 9.26694 11.8182 8.94709 11.5777 8.62724C11.5714 8.61842 11.5664 8.6096 11.5588 8.60205C11.5299 8.57435 11.5223 8.52146 11.4782 8.51894C11.4442 8.51642 11.3649 8.64109 11.3649 8.68138C11.3649 8.92064 11.3662 9.16116 11.3637 9.40042C11.3611 9.5679 11.244 9.70012 11.0765 9.73286C10.9254 9.76183 10.7668 9.67872 10.7013 9.5339C10.6799 9.48605 10.6698 9.43694 10.6698 9.38405C10.6698 8.59323 10.6698 7.80242 10.6698 7.01035C10.6698 6.81138 10.8234 6.65775 11.0161 6.65649C11.2088 6.65649 11.3624 6.80886 11.3649 7.00783C11.3674 7.23449 11.3649 7.46242 11.3649 7.68909V7.73694C11.3725 7.74198 11.3788 7.74701 11.3863 7.75079V7.74953Z" fill="#214B9C"/>
<path d="M4.81044 8.3942C4.81044 8.06427 4.81044 7.73308 4.81044 7.40316C4.81044 7.35153 4.80162 7.33138 4.7437 7.3339C4.58881 7.33894 4.43392 7.33642 4.27903 7.33516C4.07629 7.33516 3.92644 7.1916 3.92518 7.00019C3.92392 6.80501 4.07251 6.6539 4.27651 6.6539C4.86459 6.65264 5.45266 6.65264 6.04199 6.6539C6.2271 6.6539 6.37318 6.7836 6.39207 6.95612C6.41096 7.12612 6.30392 7.27975 6.1377 7.32508C6.1037 7.33516 6.06844 7.33516 6.03318 7.33516C5.87829 7.33516 5.7234 7.33768 5.56851 7.33516C5.51814 7.33516 5.50807 7.35153 5.50807 7.39812C5.50933 8.05671 5.50807 8.71531 5.50807 9.3739C5.50807 9.5502 5.42118 9.67612 5.26881 9.72397C5.0371 9.79701 4.8117 9.63582 4.81044 9.39279C4.80792 9.06034 4.81044 8.7279 4.81044 8.39545V8.3942Z" fill="#214B9C"/>
<path d="M8.74809 8.18138C8.74809 7.78849 8.74809 7.39686 8.74809 7.00397C8.74809 6.82012 8.88031 6.67908 9.06794 6.65516C9.23542 6.63375 9.40164 6.74834 9.44697 6.91708C9.45831 6.9599 9.45705 7.00271 9.45705 7.04553C9.45705 7.69153 9.45705 8.33753 9.45705 8.98479C9.45705 9.04019 9.4709 9.05405 9.52505 9.05279C9.75172 9.04901 9.97964 9.04901 10.2063 9.05279C10.3839 9.0553 10.5249 9.18879 10.5325 9.35249C10.54 9.52627 10.404 9.68368 10.2277 9.68619C9.83609 9.69123 9.4432 9.69123 9.05031 9.68619C8.88031 9.68368 8.74683 9.5376 8.74683 9.36508C8.74683 8.97093 8.74683 8.57679 8.74683 8.18138H8.74809Z" fill="#214B9C"/>
<path d="M8.50889 9.16116C8.36408 8.77835 8.218 8.39553 8.07193 8.01146C7.94222 7.6702 7.81378 7.32894 7.68282 6.98894C7.59467 6.76101 7.36423 6.61998 7.14511 6.66405C6.95119 6.70309 6.824 6.82524 6.75474 7.00783C6.518 7.6299 6.28126 8.25072 6.04704 8.87405C5.99163 9.02264 5.92363 9.1662 5.89089 9.32235C5.83926 9.57168 5.92363 9.69635 6.16667 9.73287C6.35556 9.76057 6.47771 9.69005 6.54445 9.51501C6.58726 9.40168 6.6326 9.28835 6.67415 9.17375C6.68674 9.13849 6.70437 9.12842 6.74089 9.12842C6.90208 9.13094 7.06326 9.12842 7.22445 9.12842C7.38311 9.12842 7.54304 9.13094 7.70171 9.12716C7.74452 9.12716 7.76215 9.14101 7.776 9.18005C7.81756 9.2959 7.86919 9.40924 7.90571 9.52761C7.95104 9.67368 8.05556 9.72531 8.19408 9.73413C8.26963 9.73916 8.34141 9.72279 8.41193 9.69761C8.50763 9.66235 8.55548 9.59183 8.5643 9.49235C8.57437 9.37649 8.54919 9.26694 8.50889 9.1599V9.16116ZM7.13126 8.51264C7.06326 8.51264 6.99526 8.51012 6.92726 8.51264C6.88319 8.51516 6.87689 8.50383 6.89074 8.46227C6.98015 8.21294 7.0683 7.96109 7.15645 7.71049C7.1766 7.65383 7.19548 7.59842 7.22193 7.52412C7.3403 7.86161 7.45363 8.18398 7.56948 8.51264H7.13H7.13126Z" fill="#214B9C"/>
</g>
<defs>
<clipPath id="clip0_3457_3534">
<rect width="17" height="17" fill="white"/>
</clipPath>
</defs>
</svg>
