<svg width="17" height="17" viewBox="0 0 17 17" fill="none" xmlns="http://www.w3.org/2000/svg">
<g clip-path="url(#clip0_3457_3532)">
<path d="M17 8.5C17 3.80548 13.1945 0 8.5 0C3.80548 0 0 3.80548 0 8.5C0 12.7424 3.10785 16.2596 7.17148 16.8967V10.9568H5.01311V8.5H7.17148V6.62748C7.17148 4.49682 8.44081 3.32067 10.3826 3.32067C11.3132 3.32067 12.2853 3.48689 12.2853 3.48689V5.57852H11.2137C10.1584 5.57852 9.82852 6.23333 9.82852 6.90578V8.5H12.1859L11.8093 10.9568H9.82852V16.8967C13.8921 16.2596 17 12.7424 17 8.5Z" fill="#214B9C"/>
</g>
<defs>
<clipPath id="clip0_3457_3532">
<rect width="17" height="16.8967" fill="white"/>
</clipPath>
</defs>
</svg>
