<svg width="15" height="17" viewBox="0 0 15 17" fill="none" xmlns="http://www.w3.org/2000/svg">
<g clip-path="url(#clip0_2703_4609)">
<path d="M10.2083 2.71458C10.8523 1.99509 11.2855 0.994071 11.1666 0C10.2428 0.0347577 9.1196 0.566551 8.4526 1.28604C7.85842 1.92558 7.33708 2.9405 7.47508 3.91719C8.5101 3.99019 9.56427 3.43059 10.2083 2.71458Z" fill="black"/>
<path d="M12.5275 9.03353C12.5198 8.35228 12.7076 7.78573 12.9721 7.32345C13.5395 6.32591 14.4595 5.83235 14.517 5.79412C13.4321 4.33429 11.7454 4.1327 11.1474 4.11184C9.71376 3.97629 8.34908 4.89041 7.62074 4.89041C6.89239 4.89041 5.76921 4.12922 4.58087 4.15008C3.01685 4.17093 1.5755 4.98774 0.770493 6.28072C0.521323 6.68044 0.337321 7.11143 0.21082 7.56328C-0.471521 10.0311 0.597991 13.062 1.93584 14.8485C2.71018 15.8808 3.63019 17.0417 4.84154 17C6.01072 16.9583 6.44772 16.3048 7.8584 16.3048C9.26909 16.3048 9.66776 17 10.9021 16.9791C12.1556 16.9583 12.953 15.926 13.7196 14.8902C14.609 13.6911 14.9731 12.5302 14.9961 12.4711C14.9693 12.4606 12.5505 11.6056 12.5236 9.03353H12.5275Z" fill="black"/>
</g>
<defs>
<clipPath id="clip0_2703_4609">
<rect width="15" height="17" fill="white"/>
</clipPath>
</defs>
</svg>
