<svg width="17" height="17" viewBox="0 0 17 17" fill="none" xmlns="http://www.w3.org/2000/svg">
<g clip-path="url(#clip0_2703_4601)">
<path d="M16.8857 6.94783C16.8857 6.94783 17.0002 8.13647 17.0002 8.52999C17.0002 8.94563 16.8857 10.184 16.8857 10.184C16.8854 10.1857 16.8852 10.1877 16.8848 10.1896C16.6167 12.0463 15.868 13.7185 14.5012 14.9205L11.6925 12.8549C11.9059 12.7172 12.1086 12.5651 12.299 12.3994C12.9767 11.8102 13.3049 11.05 13.4565 10.1896H8.71582V6.94783H16.8857Z" fill="#2683FB"/>
<path d="M14.5406 2.22327L12.0418 4.62544C11.1404 3.89158 10.0393 3.35342 8.77853 3.35342C6.46221 3.35342 4.49325 4.80624 3.77348 6.83042L0.921204 4.73307C2.35769 1.9376 5.32104 0 8.71581 0C10.9372 0 13.0013 0.875738 14.5351 2.21859C14.5369 2.2203 14.5388 2.22178 14.5406 2.22349V2.22327Z" fill="#EA4335"/>
<path d="M14.5012 14.9205C14.492 14.9286 14.4827 14.9367 14.4735 14.9448C12.9423 16.2761 10.8782 17 8.66748 17C5.27096 17 2.3307 15.0907 0.909241 12.3103L3.76631 10.2092C4.47998 12.2437 6.45439 13.7066 8.77855 13.7066C9.85482 13.7066 10.8566 13.3935 11.6927 12.8549L14.5014 14.9205H14.5012Z" fill="#34A853"/>
<path d="M3.76609 10.2094L0.909019 12.3105C0.327325 11.1725 0 9.8886 0 8.53C0 7.1714 0.332334 5.87917 0.921214 4.73286L3.77328 6.83042C3.58381 7.36284 3.48101 7.93462 3.48101 8.53C3.48101 9.12538 3.58119 9.68269 3.76587 10.2092L3.76609 10.2094Z" fill="#FFBC00"/>
</g>
<defs>
<clipPath id="clip0_2703_4601">
<rect width="17" height="17" fill="white"/>
</clipPath>
</defs>
</svg>
