<svg width="17" height="17" viewBox="0 0 17 17" fill="none" xmlns="http://www.w3.org/2000/svg">
<g clip-path="url(#clip0_2703_4605)">
<path d="M17 8.5C17 3.80548 13.1945 0 8.5 0C3.80548 0 0 3.80548 0 8.5C0 12.7424 3.10785 16.2596 7.17148 16.8967V10.9568H5.01311V8.5H7.17148V6.62748C7.17148 4.49682 8.44081 3.32067 10.3826 3.32067C11.3132 3.32067 12.2853 3.48689 12.2853 3.48689V5.57852H11.2137C10.1584 5.57852 9.82852 6.23333 9.82852 6.90578V8.5H12.1859L11.8093 10.9568H9.82852V16.8967C13.8921 16.2596 17 12.7424 17 8.5Z" fill="#4676ED"/>
<path d="M11.8081 10.9568L12.1846 8.5H9.82725V6.90577C9.82725 6.23333 10.1559 5.57852 11.2124 5.57852H12.2841V3.48689C12.2841 3.48689 11.3119 3.32066 10.3813 3.32066C8.43954 3.32066 7.17021 4.49681 7.17021 6.62748V8.5H5.01184V10.9568H7.17021V16.8967C7.6034 16.9647 8.04666 17 8.49873 17C8.9508 17 9.39406 16.9647 9.82725 16.8967V10.9568H11.8081Z" fill="white"/>
</g>
<defs>
<clipPath id="clip0_2703_4605">
<rect width="17" height="17" fill="white"/>
</clipPath>
</defs>
</svg>
