<svg width="46" height="15" viewBox="0 0 46 15" fill="none" xmlns="http://www.w3.org/2000/svg">
<path d="M12.9546 10.978V13.204C12.9546 13.904 12.3946 14.464 11.6946 14.464C10.9946 14.464 10.4346 13.904 10.4346 13.204V11.748H1.96462C1.41862 11.748 0.984617 11.314 0.984617 10.768C0.984617 10.222 1.41862 9.788 1.96462 9.788H11.7646C12.3806 9.788 12.9546 10.25 12.9546 10.978ZM2.95862 2.62V6.736C3.85462 6.722 4.79262 6.624 5.75862 6.316C6.24862 6.162 6.82262 6.442 6.97662 6.96C7.13062 7.464 6.83662 7.982 6.31862 8.164C5.15662 8.57 3.58862 8.668 2.18862 8.668H1.48862C0.956617 8.668 0.522617 8.234 0.522617 7.702V2.62C0.522617 1.948 1.08262 1.388 1.72662 1.388C2.42662 1.388 2.95862 1.948 2.95862 2.62ZM7.43862 8.094V5.266H5.85662C5.31062 5.266 4.87662 4.832 4.87662 4.286C4.87662 3.74 5.31062 3.306 5.85662 3.306H7.43862V2.452C7.43862 1.78 7.98462 1.248 8.64262 1.248C9.32862 1.248 9.86062 1.78 9.86062 2.452V8.094C9.86062 8.78 9.32862 9.298 8.64262 9.298C7.98462 9.298 7.43862 8.78 7.43862 8.094ZM10.5046 8.15V2.396C10.5046 1.71 11.0506 1.178 11.7226 1.178C12.4086 1.178 12.9546 1.71 12.9546 2.396V8.15C12.9546 8.85 12.4086 9.368 11.7226 9.368C11.0506 9.368 10.5046 8.85 10.5046 8.15ZM15.5726 6.666C15.0266 6.666 14.5926 6.232 14.5926 5.686C14.5926 5.14 15.0266 4.706 15.5726 4.706C17.7006 4.706 19.4226 3.39 19.4226 2.298V2.032C19.4226 1.472 19.9826 0.967999 20.7106 0.967999C21.4106 0.967999 21.9426 1.472 21.9426 2.032V2.298C21.9426 3.39 23.6646 4.706 25.7926 4.706C26.3386 4.706 26.7726 5.14 26.7726 5.686C26.7726 6.232 26.3386 6.666 25.7926 6.666C23.1886 6.666 21.5086 5.658 20.6826 4.454C19.8426 5.658 18.1626 6.666 15.5726 6.666ZM14.7326 13.134V11.258C14.7326 10.558 15.2926 10.138 15.9926 10.138C16.6926 10.138 17.2526 10.558 17.2526 11.258V12.364H25.9326C26.4786 12.364 26.9126 12.798 26.9126 13.344C26.9126 13.89 26.4786 14.324 25.9326 14.324H15.9226C15.3066 14.324 14.7326 13.862 14.7326 13.134ZM14.2426 8.584C14.2426 8.038 14.6906 7.59 15.2226 7.59H26.1286C26.6886 7.59 27.1226 8.038 27.1226 8.584C27.1226 9.102 26.6886 9.55 26.1286 9.55H15.2226C14.6906 9.55 14.2426 9.102 14.2426 8.584Z" fill="white"/>
<path d="M33.2266 3.992H32.5406V11.272H33.2266C33.8286 11.272 34.1786 11.804 34.1786 12.378C34.1786 12.938 33.8286 13.484 33.2266 13.484H29.3346C28.7326 13.484 28.3826 12.952 28.3826 12.378C28.3826 11.818 28.7326 11.272 29.3346 11.272H30.0206V3.992H29.3346C28.7326 3.992 28.3826 3.46 28.3826 2.886C28.3826 2.326 28.7326 1.78 29.3346 1.78H33.2266C33.8286 1.78 34.1786 2.312 34.1786 2.886C34.1786 3.446 33.8286 3.992 33.2266 3.992ZM40.082 13.484H37.254C36.414 13.484 35.854 12.924 35.854 12.084V3.18C35.854 2.34 36.414 1.78 37.254 1.78H40.096C43.708 1.78 45.612 4.216 45.612 7.618C45.612 11.02 43.708 13.484 40.082 13.484ZM39.886 3.992H38.346V11.272H39.886C42.224 11.272 43.12 9.83 43.12 7.618C43.12 5.406 42.238 3.992 39.886 3.992Z" fill="#FED601"/>
</svg>
